G75*
%MOIN*%
%OFA0B0*%
%FSLAX24Y24*%
%IPPOS*%
%LPD*%
%AMOC8*
5,1,8,0,0,1.08239X$1,22.5*
%
%ADD10R,0.0513X0.0474*%
%ADD11R,0.0513X0.0828*%
%ADD12R,0.1064X0.0474*%
%ADD13R,0.2442X0.1064*%
%ADD14R,0.0474X0.0513*%
%ADD15C,0.0680*%
%ADD16R,0.0769X0.0552*%
%ADD17R,0.0867X0.0316*%
%ADD18R,0.0769X0.0631*%
%ADD19R,0.0631X0.0395*%
%ADD20R,0.0474X0.0690*%
%ADD21R,0.0592X0.0395*%
%ADD22R,0.0769X0.0474*%
%ADD23OC8,0.0680*%
%ADD24OC8,0.0820*%
%ADD25C,0.0820*%
%ADD26C,0.0740*%
%ADD27C,0.0340*%
D10*
X006815Y004950D03*
X007485Y004950D03*
X008365Y004400D03*
X009035Y004400D03*
X009600Y003485D03*
X009600Y002815D03*
X010500Y002815D03*
X010500Y003485D03*
X012415Y004550D03*
X013085Y004550D03*
X013665Y004650D03*
X014335Y004650D03*
X017815Y004550D03*
X018485Y004550D03*
X009600Y010565D03*
X009600Y011235D03*
X008650Y009835D03*
X008650Y009165D03*
X007385Y008000D03*
X006715Y008000D03*
X006400Y008965D03*
X006400Y009635D03*
X009000Y007085D03*
X009000Y006415D03*
D11*
X012197Y007022D03*
X013103Y007022D03*
X013103Y008478D03*
X012197Y008478D03*
D12*
X014300Y004050D03*
X014300Y003050D03*
D13*
X012300Y003550D03*
D14*
X010635Y004350D03*
X009965Y004350D03*
X007535Y004000D03*
X006865Y004000D03*
X005850Y003715D03*
X005850Y004385D03*
X003450Y005465D03*
X003450Y006135D03*
X006715Y007200D03*
X007385Y007200D03*
X007350Y009265D03*
X007350Y009935D03*
X011100Y009085D03*
X011100Y008415D03*
X011100Y007485D03*
X011100Y006815D03*
X003400Y009085D03*
X003400Y009755D03*
D15*
X017710Y003780D02*
X017710Y003180D01*
X019490Y003180D02*
X019490Y003780D01*
X019490Y001220D02*
X019490Y000620D01*
X017710Y000620D02*
X017710Y001220D01*
D16*
X019407Y010061D03*
D17*
X019407Y009529D03*
X019407Y009096D03*
X019407Y008663D03*
X019407Y008230D03*
X019407Y007797D03*
X019407Y007364D03*
X019407Y006931D03*
X019407Y006498D03*
D18*
X019407Y005533D03*
D19*
X016297Y010100D03*
D20*
X015588Y010021D03*
D21*
X016041Y005395D03*
D22*
X015037Y005553D03*
D23*
X000950Y005650D03*
X000950Y006650D03*
X000950Y008450D03*
X000950Y009450D03*
X000950Y011350D03*
X000950Y012350D03*
X000950Y003800D03*
X000950Y002800D03*
D24*
X008300Y013250D03*
X009300Y013250D03*
X010300Y013250D03*
X011300Y013250D03*
X012300Y013250D03*
X012300Y014250D03*
X011300Y014250D03*
X010300Y014250D03*
X009300Y014250D03*
X008300Y014250D03*
D25*
X001600Y000950D03*
X002600Y000950D03*
X003600Y000950D03*
X004600Y000950D03*
X005600Y000950D03*
X007800Y000950D03*
X008800Y000950D03*
X010200Y000950D03*
X011200Y000950D03*
X012200Y000950D03*
X013200Y000950D03*
X014200Y000950D03*
X015200Y000950D03*
X016200Y000950D03*
X016200Y001950D03*
X016500Y003150D03*
X016500Y004150D03*
X016950Y010950D03*
X015950Y010950D03*
X013400Y013250D03*
X013400Y014250D03*
X015950Y014250D03*
X016950Y014250D03*
X005600Y014250D03*
X004600Y014250D03*
X003600Y014250D03*
X002600Y014250D03*
X001600Y014250D03*
D26*
X008700Y010900D03*
X008700Y008400D03*
X008850Y005350D03*
X008800Y002550D03*
D27*
X007500Y002740D03*
X007150Y003270D03*
X006380Y004000D03*
X006380Y004780D03*
X005920Y005210D03*
X004920Y005060D03*
X004920Y004700D03*
X004040Y004810D03*
X004060Y005330D03*
X003040Y005720D03*
X002580Y006750D03*
X002760Y008660D03*
X002960Y009860D03*
X002990Y010200D03*
X003860Y010060D03*
X004050Y010730D03*
X004870Y011160D03*
X004870Y011560D03*
X004470Y011560D03*
X006210Y011810D03*
X006670Y011280D03*
X006670Y010810D03*
X007430Y010720D03*
X008240Y010410D03*
X008150Y009790D03*
X008070Y009310D03*
X009840Y009840D03*
X010250Y009730D03*
X010810Y010140D03*
X010470Y010280D03*
X010190Y009390D03*
X010580Y008500D03*
X011480Y008750D03*
X011620Y008410D03*
X011720Y007790D03*
X012030Y007610D03*
X012670Y007300D03*
X013520Y007740D03*
X014250Y007940D03*
X014500Y007700D03*
X014840Y007600D03*
X015460Y007600D03*
X015280Y008140D03*
X013810Y008420D03*
X012920Y009280D03*
X012580Y009370D03*
X012230Y010010D03*
X012480Y010450D03*
X013090Y010590D03*
X013520Y010240D03*
X013520Y009880D03*
X014850Y010730D03*
X014650Y011430D03*
X015160Y011450D03*
X014370Y012050D03*
X012830Y011980D03*
X012480Y012330D03*
X011100Y012350D03*
X010520Y012640D03*
X009810Y013590D03*
X008720Y012200D03*
X010130Y011520D03*
X010500Y011520D03*
X012230Y010910D03*
X012730Y011050D03*
X015000Y009930D03*
X016160Y009500D03*
X016450Y010620D03*
X018800Y008850D03*
X018800Y007950D03*
X016520Y006460D03*
X016810Y005960D03*
X016780Y005440D03*
X015870Y005770D03*
X015710Y006290D03*
X014480Y005810D03*
X014060Y005860D03*
X013770Y005570D03*
X013390Y005060D03*
X012590Y005550D03*
X012170Y005410D03*
X011440Y005800D03*
X010810Y005060D03*
X010390Y004780D03*
X010130Y005310D03*
X009990Y005810D03*
X009240Y004810D03*
X009490Y004330D03*
X009090Y003900D03*
X008750Y003920D03*
X007970Y004740D03*
X007330Y005360D03*
X007580Y005870D03*
X007560Y006210D03*
X007950Y006730D03*
X008570Y006240D03*
X010050Y007110D03*
X010330Y007480D03*
X008590Y007590D03*
X008180Y007990D03*
X007810Y007620D03*
X007040Y007590D03*
X006220Y007990D03*
X004870Y009260D03*
X005970Y009810D03*
X004870Y010100D03*
X002540Y011650D03*
X006820Y005910D03*
X004600Y003770D03*
X005920Y002790D03*
X010470Y001680D03*
X011970Y004260D03*
X011010Y004450D03*
X012930Y006350D03*
X013270Y006290D03*
X013770Y006900D03*
X015190Y004880D03*
X015010Y003900D03*
X015350Y003680D03*
X015600Y003920D03*
X015460Y003050D03*
X014510Y003460D03*
X016950Y003540D03*
X018150Y004930D03*
X017750Y005960D03*
X017810Y012370D03*
X016440Y013350D03*
X016280Y012830D03*
X015650Y013630D03*
X015170Y013680D03*
X014330Y013350D03*
M02*
