G75*
%MOIN*%
%OFA0B0*%
%FSLAX24Y24*%
%IPPOS*%
%LPD*%
%AMOC8*
5,1,8,0,0,1.08239X$1,22.5*
%
%ADD10R,0.0394X0.0106*%
%ADD11R,0.0551X0.0138*%
%ADD12R,0.0748X0.0709*%
%ADD13R,0.0748X0.0748*%
%ADD14R,0.0630X0.0827*%
%ADD15R,0.0472X0.0217*%
%ADD16R,0.0394X0.0433*%
%ADD17R,0.0433X0.0394*%
%ADD18R,0.0315X0.0315*%
%ADD19C,0.0600*%
%ADD20R,0.0390X0.0120*%
%ADD21R,0.0472X0.0118*%
%ADD22OC8,0.0600*%
%ADD23OC8,0.0740*%
%ADD24C,0.0740*%
%ADD25C,0.0100*%
%ADD26C,0.0260*%
%ADD27C,0.0080*%
D10*
G36*
X009951Y006908D02*
X009674Y006631D01*
X009599Y006706D01*
X009876Y006983D01*
X009951Y006908D01*
G37*
G36*
X009812Y007047D02*
X009535Y006770D01*
X009460Y006845D01*
X009737Y007122D01*
X009812Y007047D01*
G37*
G36*
X009673Y007186D02*
X009396Y006909D01*
X009321Y006984D01*
X009598Y007261D01*
X009673Y007186D01*
G37*
G36*
X010091Y006768D02*
X009814Y006491D01*
X009739Y006566D01*
X010016Y006843D01*
X010091Y006768D01*
G37*
G36*
X010230Y006629D02*
X009953Y006352D01*
X009878Y006427D01*
X010155Y006704D01*
X010230Y006629D01*
G37*
G36*
X010369Y006490D02*
X010092Y006213D01*
X010017Y006288D01*
X010294Y006565D01*
X010369Y006490D01*
G37*
G36*
X010508Y006351D02*
X010231Y006074D01*
X010156Y006149D01*
X010433Y006426D01*
X010508Y006351D01*
G37*
G36*
X010647Y006212D02*
X010370Y005935D01*
X010295Y006010D01*
X010572Y006287D01*
X010647Y006212D01*
G37*
G36*
X010787Y006072D02*
X010510Y005795D01*
X010435Y005870D01*
X010712Y006147D01*
X010787Y006072D01*
G37*
G36*
X010926Y005933D02*
X010649Y005656D01*
X010574Y005731D01*
X010851Y006008D01*
X010926Y005933D01*
G37*
G36*
X011065Y005794D02*
X010788Y005517D01*
X010713Y005592D01*
X010990Y005869D01*
X011065Y005794D01*
G37*
G36*
X011204Y005655D02*
X010927Y005378D01*
X010852Y005453D01*
X011129Y005730D01*
X011204Y005655D01*
G37*
G36*
X011343Y005516D02*
X011066Y005239D01*
X010991Y005314D01*
X011268Y005591D01*
X011343Y005516D01*
G37*
G36*
X011483Y005376D02*
X011206Y005099D01*
X011131Y005174D01*
X011408Y005451D01*
X011483Y005376D01*
G37*
G36*
X011622Y005237D02*
X011345Y004960D01*
X011270Y005035D01*
X011547Y005312D01*
X011622Y005237D01*
G37*
G36*
X011761Y005098D02*
X011484Y004821D01*
X011409Y004896D01*
X011686Y005173D01*
X011761Y005098D01*
G37*
G36*
X012514Y005173D02*
X012791Y004896D01*
X012716Y004821D01*
X012439Y005098D01*
X012514Y005173D01*
G37*
G36*
X012653Y005312D02*
X012930Y005035D01*
X012855Y004960D01*
X012578Y005237D01*
X012653Y005312D01*
G37*
G36*
X012792Y005451D02*
X013069Y005174D01*
X012994Y005099D01*
X012717Y005376D01*
X012792Y005451D01*
G37*
G36*
X012932Y005591D02*
X013209Y005314D01*
X013134Y005239D01*
X012857Y005516D01*
X012932Y005591D01*
G37*
G36*
X013071Y005730D02*
X013348Y005453D01*
X013273Y005378D01*
X012996Y005655D01*
X013071Y005730D01*
G37*
G36*
X013210Y005869D02*
X013487Y005592D01*
X013412Y005517D01*
X013135Y005794D01*
X013210Y005869D01*
G37*
G36*
X013349Y006008D02*
X013626Y005731D01*
X013551Y005656D01*
X013274Y005933D01*
X013349Y006008D01*
G37*
G36*
X013488Y006147D02*
X013765Y005870D01*
X013690Y005795D01*
X013413Y006072D01*
X013488Y006147D01*
G37*
G36*
X013628Y006287D02*
X013905Y006010D01*
X013830Y005935D01*
X013553Y006212D01*
X013628Y006287D01*
G37*
G36*
X013767Y006426D02*
X014044Y006149D01*
X013969Y006074D01*
X013692Y006351D01*
X013767Y006426D01*
G37*
G36*
X013906Y006565D02*
X014183Y006288D01*
X014108Y006213D01*
X013831Y006490D01*
X013906Y006565D01*
G37*
G36*
X014045Y006704D02*
X014322Y006427D01*
X014247Y006352D01*
X013970Y006629D01*
X014045Y006704D01*
G37*
G36*
X014184Y006843D02*
X014461Y006566D01*
X014386Y006491D01*
X014109Y006768D01*
X014184Y006843D01*
G37*
G36*
X014324Y006983D02*
X014601Y006706D01*
X014526Y006631D01*
X014249Y006908D01*
X014324Y006983D01*
G37*
G36*
X014463Y007122D02*
X014740Y006845D01*
X014665Y006770D01*
X014388Y007047D01*
X014463Y007122D01*
G37*
G36*
X014602Y007261D02*
X014879Y006984D01*
X014804Y006909D01*
X014527Y007186D01*
X014602Y007261D01*
G37*
G36*
X014879Y008216D02*
X014602Y007939D01*
X014527Y008014D01*
X014804Y008291D01*
X014879Y008216D01*
G37*
G36*
X014740Y008355D02*
X014463Y008078D01*
X014388Y008153D01*
X014665Y008430D01*
X014740Y008355D01*
G37*
G36*
X014601Y008494D02*
X014324Y008217D01*
X014249Y008292D01*
X014526Y008569D01*
X014601Y008494D01*
G37*
G36*
X014461Y008634D02*
X014184Y008357D01*
X014109Y008432D01*
X014386Y008709D01*
X014461Y008634D01*
G37*
G36*
X014322Y008773D02*
X014045Y008496D01*
X013970Y008571D01*
X014247Y008848D01*
X014322Y008773D01*
G37*
G36*
X014183Y008912D02*
X013906Y008635D01*
X013831Y008710D01*
X014108Y008987D01*
X014183Y008912D01*
G37*
G36*
X014044Y009051D02*
X013767Y008774D01*
X013692Y008849D01*
X013969Y009126D01*
X014044Y009051D01*
G37*
G36*
X013905Y009190D02*
X013628Y008913D01*
X013553Y008988D01*
X013830Y009265D01*
X013905Y009190D01*
G37*
G36*
X013765Y009330D02*
X013488Y009053D01*
X013413Y009128D01*
X013690Y009405D01*
X013765Y009330D01*
G37*
G36*
X013626Y009469D02*
X013349Y009192D01*
X013274Y009267D01*
X013551Y009544D01*
X013626Y009469D01*
G37*
G36*
X013487Y009608D02*
X013210Y009331D01*
X013135Y009406D01*
X013412Y009683D01*
X013487Y009608D01*
G37*
G36*
X013348Y009747D02*
X013071Y009470D01*
X012996Y009545D01*
X013273Y009822D01*
X013348Y009747D01*
G37*
G36*
X013209Y009886D02*
X012932Y009609D01*
X012857Y009684D01*
X013134Y009961D01*
X013209Y009886D01*
G37*
G36*
X013069Y010026D02*
X012792Y009749D01*
X012717Y009824D01*
X012994Y010101D01*
X013069Y010026D01*
G37*
G36*
X012930Y010165D02*
X012653Y009888D01*
X012578Y009963D01*
X012855Y010240D01*
X012930Y010165D01*
G37*
G36*
X012791Y010304D02*
X012514Y010027D01*
X012439Y010102D01*
X012716Y010379D01*
X012791Y010304D01*
G37*
G36*
X011484Y010379D02*
X011761Y010102D01*
X011686Y010027D01*
X011409Y010304D01*
X011484Y010379D01*
G37*
G36*
X011345Y010240D02*
X011622Y009963D01*
X011547Y009888D01*
X011270Y010165D01*
X011345Y010240D01*
G37*
G36*
X011206Y010101D02*
X011483Y009824D01*
X011408Y009749D01*
X011131Y010026D01*
X011206Y010101D01*
G37*
G36*
X011066Y009961D02*
X011343Y009684D01*
X011268Y009609D01*
X010991Y009886D01*
X011066Y009961D01*
G37*
G36*
X010927Y009822D02*
X011204Y009545D01*
X011129Y009470D01*
X010852Y009747D01*
X010927Y009822D01*
G37*
G36*
X010788Y009683D02*
X011065Y009406D01*
X010990Y009331D01*
X010713Y009608D01*
X010788Y009683D01*
G37*
G36*
X010649Y009544D02*
X010926Y009267D01*
X010851Y009192D01*
X010574Y009469D01*
X010649Y009544D01*
G37*
G36*
X010510Y009405D02*
X010787Y009128D01*
X010712Y009053D01*
X010435Y009330D01*
X010510Y009405D01*
G37*
G36*
X010370Y009265D02*
X010647Y008988D01*
X010572Y008913D01*
X010295Y009190D01*
X010370Y009265D01*
G37*
G36*
X010231Y009126D02*
X010508Y008849D01*
X010433Y008774D01*
X010156Y009051D01*
X010231Y009126D01*
G37*
G36*
X010092Y008987D02*
X010369Y008710D01*
X010294Y008635D01*
X010017Y008912D01*
X010092Y008987D01*
G37*
G36*
X009953Y008848D02*
X010230Y008571D01*
X010155Y008496D01*
X009878Y008773D01*
X009953Y008848D01*
G37*
G36*
X009814Y008709D02*
X010091Y008432D01*
X010016Y008357D01*
X009739Y008634D01*
X009814Y008709D01*
G37*
G36*
X009674Y008569D02*
X009951Y008292D01*
X009876Y008217D01*
X009599Y008494D01*
X009674Y008569D01*
G37*
G36*
X009535Y008430D02*
X009812Y008153D01*
X009737Y008078D01*
X009460Y008355D01*
X009535Y008430D01*
G37*
G36*
X009396Y008291D02*
X009673Y008014D01*
X009598Y007939D01*
X009321Y008216D01*
X009396Y008291D01*
G37*
D11*
X018307Y012338D03*
X018307Y012594D03*
X018307Y012850D03*
X018307Y013106D03*
X018307Y013362D03*
D12*
X019350Y014425D03*
X019350Y011275D03*
D13*
X019350Y012350D03*
X019350Y013350D03*
D14*
X018346Y014070D03*
X018346Y011630D03*
D15*
X015812Y011826D03*
X015812Y012200D03*
X015812Y012574D03*
X014788Y012574D03*
X014788Y011826D03*
D16*
X016700Y012165D03*
X016700Y012835D03*
X015985Y013250D03*
X015315Y013250D03*
X010585Y011950D03*
X009915Y011950D03*
X007385Y012150D03*
X006715Y012150D03*
X005400Y012065D03*
X005400Y012735D03*
X003835Y012040D03*
X003165Y012040D03*
X006715Y009650D03*
X007385Y009650D03*
X005450Y008735D03*
X005450Y008065D03*
X005450Y007235D03*
X005450Y006565D03*
X006865Y006650D03*
X007535Y006650D03*
X009650Y005435D03*
X009650Y004765D03*
X007535Y004100D03*
X006865Y004100D03*
X005350Y003135D03*
X005350Y002465D03*
X003685Y003200D03*
X003015Y003200D03*
X003115Y006500D03*
X003785Y006500D03*
X003835Y008700D03*
X003165Y008700D03*
X015100Y005985D03*
X015100Y005315D03*
X017215Y006800D03*
X017885Y006800D03*
X017885Y007350D03*
X017885Y007900D03*
X017215Y007900D03*
X017215Y007350D03*
X017215Y008450D03*
X017885Y008450D03*
X018565Y004550D03*
X019235Y004550D03*
D17*
X015335Y009550D03*
X014665Y009550D03*
X014515Y010350D03*
X015185Y010350D03*
X013935Y011000D03*
X013265Y011000D03*
X013265Y011600D03*
X013265Y012150D03*
X013935Y012150D03*
X013935Y011600D03*
X012085Y011350D03*
X011415Y011350D03*
X011415Y011950D03*
X012085Y011950D03*
X010035Y010300D03*
X009365Y010300D03*
X009160Y011545D03*
X009160Y012215D03*
X007385Y012650D03*
X006715Y012650D03*
X005300Y011435D03*
X004650Y012065D03*
X004650Y012735D03*
X003835Y012680D03*
X003165Y012680D03*
X002350Y012735D03*
X002350Y012065D03*
X005300Y010765D03*
X005300Y010085D03*
X005300Y009415D03*
X004650Y008735D03*
X004650Y008065D03*
X003835Y008050D03*
X003165Y008050D03*
X002250Y008165D03*
X002250Y008835D03*
X003115Y007150D03*
X003785Y007150D03*
X004700Y007235D03*
X004700Y006565D03*
X005450Y005885D03*
X005450Y005215D03*
X005450Y004535D03*
X005450Y003865D03*
X004550Y003135D03*
X004550Y002465D03*
X003685Y002550D03*
X003015Y002550D03*
X002200Y002615D03*
X002200Y003285D03*
X002200Y006415D03*
X002200Y007085D03*
X006865Y007150D03*
X007535Y007150D03*
X007535Y004600D03*
X006865Y004600D03*
X006715Y010150D03*
X007385Y010150D03*
D18*
X014650Y013055D03*
X014650Y013645D03*
X016205Y008450D03*
X016795Y008450D03*
X016795Y007900D03*
X016795Y007350D03*
X016205Y007350D03*
X016205Y007900D03*
X016205Y006800D03*
X016795Y006800D03*
D19*
X017710Y003780D02*
X017710Y003180D01*
X019490Y003180D02*
X019490Y003780D01*
X019490Y001220D02*
X019490Y000620D01*
X017710Y000620D02*
X017710Y001220D01*
D20*
X004509Y004042D03*
X004509Y004298D03*
X004509Y004554D03*
X004509Y004810D03*
X004509Y005066D03*
X004509Y005322D03*
X004509Y005578D03*
X002211Y005578D03*
X002211Y005322D03*
X002211Y005066D03*
X002211Y004810D03*
X002211Y004554D03*
X002211Y004298D03*
X002211Y004042D03*
X002161Y009702D03*
X002161Y009958D03*
X002161Y010214D03*
X002161Y010470D03*
X002161Y010726D03*
X002161Y010982D03*
X002161Y011238D03*
X004459Y011238D03*
X004459Y010982D03*
X004459Y010726D03*
X004459Y010470D03*
X004459Y010214D03*
X004459Y009958D03*
X004459Y009702D03*
D21*
X006218Y009034D03*
X006218Y008778D03*
X006218Y008522D03*
X006218Y008267D03*
X007881Y008267D03*
X007881Y008522D03*
X007881Y008778D03*
X007881Y009034D03*
X007881Y010767D03*
X007881Y011022D03*
X007881Y011278D03*
X007881Y011534D03*
X006218Y011534D03*
X006218Y011278D03*
X006218Y011022D03*
X006218Y010767D03*
X006368Y005984D03*
X006368Y005728D03*
X006368Y005472D03*
X006368Y005217D03*
X008031Y005217D03*
X008031Y005472D03*
X008031Y005728D03*
X008031Y005984D03*
X008031Y003484D03*
X008031Y003228D03*
X008031Y002972D03*
X008031Y002717D03*
X006368Y002717D03*
X006368Y002972D03*
X006368Y003228D03*
X006368Y003484D03*
D22*
X000950Y003800D03*
X000950Y002800D03*
X000950Y005650D03*
X000950Y006650D03*
X000950Y008450D03*
X000950Y009450D03*
X000950Y011350D03*
X000950Y012350D03*
D23*
X008300Y013250D03*
X009300Y013250D03*
X010300Y013250D03*
X011300Y013250D03*
X012300Y013250D03*
X012300Y014250D03*
X011300Y014250D03*
X010300Y014250D03*
X009300Y014250D03*
X008300Y014250D03*
D24*
X001600Y000950D03*
X002600Y000950D03*
X003600Y000950D03*
X004600Y000950D03*
X005600Y000950D03*
X007800Y000950D03*
X008800Y000950D03*
X010200Y000950D03*
X011200Y000950D03*
X012200Y000950D03*
X013200Y000950D03*
X014200Y000950D03*
X015200Y000950D03*
X016200Y000950D03*
X016200Y001950D03*
X016500Y003150D03*
X016500Y004150D03*
X008850Y005350D03*
X008800Y002550D03*
X008700Y008400D03*
X008700Y010900D03*
X013400Y013250D03*
X013400Y014250D03*
X015950Y014250D03*
X016950Y014250D03*
X016950Y010950D03*
X015950Y010950D03*
X005600Y014250D03*
X004600Y014250D03*
X003600Y014250D03*
X002600Y014250D03*
X001600Y014250D03*
D25*
X001570Y014210D01*
X000520Y013160D01*
X000520Y011170D01*
X001200Y010490D01*
X002120Y010490D01*
X002161Y010470D01*
X002720Y010470D01*
X002990Y010200D01*
X003280Y009870D02*
X003480Y010070D01*
X003850Y010070D01*
X003860Y010060D01*
X003860Y009790D01*
X003950Y009700D01*
X004456Y009700D01*
X004459Y009702D01*
X004450Y009700D01*
X003860Y010060D02*
X003860Y010370D01*
X003960Y010470D01*
X004459Y010470D01*
X004459Y011238D02*
X004450Y011240D01*
X003710Y011240D01*
X003480Y011010D01*
X003480Y010070D01*
X003280Y009870D02*
X002970Y009870D01*
X002960Y009860D01*
X005830Y010930D02*
X005990Y010770D01*
X006210Y010770D01*
X006218Y010767D01*
X005830Y010930D02*
X005830Y014020D01*
X005600Y014250D01*
X005560Y014220D01*
X004640Y014220D01*
X004600Y014250D01*
X003600Y014250D01*
X002600Y014250D01*
X001600Y014250D01*
X007881Y011534D02*
X007890Y011530D01*
X008460Y011530D01*
X009145Y011530D01*
X009160Y011545D01*
X009150Y011620D01*
X009507Y011625D02*
X009644Y011625D01*
X009665Y011603D02*
X010166Y011603D01*
X010242Y011680D01*
X010242Y011697D01*
X010248Y011676D01*
X010268Y011641D01*
X010296Y011613D01*
X010330Y011594D01*
X010368Y011583D01*
X010536Y011583D01*
X010536Y011902D01*
X010633Y011902D01*
X010633Y011998D01*
X010931Y011998D01*
X010931Y012151D01*
X010953Y012130D01*
X011048Y012090D01*
X011049Y012090D01*
X011049Y011998D01*
X011367Y011998D01*
X011367Y011902D01*
X011049Y011902D01*
X011049Y011733D01*
X011059Y011695D01*
X011079Y011661D01*
X011090Y011650D01*
X011079Y011639D01*
X011059Y011605D01*
X011049Y011567D01*
X011049Y011398D01*
X011367Y011398D01*
X011367Y011302D01*
X011049Y011302D01*
X011049Y011133D01*
X011059Y011095D01*
X011079Y011061D01*
X011107Y011033D01*
X011141Y011013D01*
X011179Y011003D01*
X011367Y011003D01*
X011367Y011302D01*
X011464Y011302D01*
X011464Y011003D01*
X011609Y011003D01*
X011455Y010850D01*
X010105Y010850D01*
X009975Y010720D01*
X009882Y010627D01*
X009764Y010627D01*
X009711Y010573D01*
X009702Y010589D01*
X009674Y010617D01*
X009640Y010637D01*
X009602Y010647D01*
X009414Y010647D01*
X009414Y010348D01*
X009317Y010348D01*
X009317Y010252D01*
X008999Y010252D01*
X008999Y010083D01*
X009009Y010045D01*
X009029Y010011D01*
X009057Y009983D01*
X009091Y009963D01*
X009129Y009953D01*
X009317Y009953D01*
X009317Y010252D01*
X009414Y010252D01*
X009414Y009953D01*
X009602Y009953D01*
X009606Y009954D01*
X009580Y009892D01*
X009580Y009788D01*
X009620Y009693D01*
X009650Y009662D01*
X009650Y009095D01*
X009818Y008927D01*
X009809Y008917D01*
X010054Y008672D01*
X010059Y008677D01*
X010054Y008672D01*
X010054Y008672D01*
X010054Y008672D01*
X010299Y008427D01*
X010351Y008478D01*
X010370Y008512D01*
X010375Y008531D01*
X010488Y008643D01*
X010567Y008723D01*
X010660Y008630D01*
X010660Y008460D01*
X009760Y007560D01*
X008900Y007560D01*
X008830Y007491D01*
X008850Y007538D01*
X008850Y007642D01*
X008810Y007737D01*
X008737Y007810D01*
X008642Y007850D01*
X008538Y007850D01*
X008443Y007810D01*
X008392Y007760D01*
X008304Y007760D01*
X008327Y007770D01*
X008400Y007843D01*
X008440Y007938D01*
X008440Y007967D01*
X008601Y007900D01*
X008799Y007900D01*
X008983Y007976D01*
X009124Y008117D01*
X009200Y008301D01*
X009200Y008499D01*
X009124Y008683D01*
X008983Y008824D01*
X008799Y008900D01*
X008601Y008900D01*
X008487Y008853D01*
X008400Y008940D01*
X008305Y008940D01*
X008320Y008955D01*
X008330Y008965D01*
X009780Y008965D01*
X009809Y008917D02*
X009757Y008866D01*
X009737Y008831D01*
X009732Y008812D01*
X009608Y008688D01*
X009469Y008549D01*
X009329Y008410D01*
X009190Y008270D01*
X009190Y008163D01*
X009545Y007808D01*
X009653Y007808D01*
X009792Y007947D01*
X009931Y008087D01*
X010070Y008226D01*
X010194Y008350D01*
X010213Y008355D01*
X010248Y008375D01*
X010299Y008427D01*
X010054Y008672D01*
X010054Y008672D01*
X010100Y008640D01*
X010240Y008500D01*
X010580Y008500D01*
X010660Y008473D02*
X010345Y008473D01*
X010253Y008473D02*
X010253Y008473D01*
X010246Y008374D02*
X010574Y008374D01*
X010475Y008276D02*
X010120Y008276D01*
X010021Y008177D02*
X010377Y008177D01*
X010278Y008079D02*
X009923Y008079D01*
X009824Y007980D02*
X010180Y007980D01*
X010081Y007882D02*
X009726Y007882D01*
X009884Y007685D02*
X008832Y007685D01*
X008850Y007586D02*
X009786Y007586D01*
X009983Y007783D02*
X008765Y007783D01*
X008987Y007980D02*
X009373Y007980D01*
X009275Y008079D02*
X009086Y008079D01*
X009149Y008177D02*
X009190Y008177D01*
X009190Y008276D02*
X009195Y008276D01*
X009200Y008374D02*
X009294Y008374D01*
X009200Y008473D02*
X009392Y008473D01*
X009491Y008571D02*
X009170Y008571D01*
X009130Y008670D02*
X009589Y008670D01*
X009688Y008768D02*
X009039Y008768D01*
X008880Y008867D02*
X009758Y008867D01*
X009809Y008917D02*
X010054Y008672D01*
X010020Y008710D01*
X009370Y009360D01*
X009370Y010300D01*
X009365Y010300D01*
X009410Y010330D01*
X010410Y011330D01*
X010500Y011330D01*
X010500Y011520D01*
X010536Y011625D02*
X010633Y011625D01*
X010633Y011583D02*
X010801Y011583D01*
X010839Y011594D01*
X010874Y011613D01*
X010902Y011641D01*
X010921Y011676D01*
X010931Y011714D01*
X010931Y011902D01*
X010633Y011902D01*
X010633Y011583D01*
X010633Y011723D02*
X010536Y011723D01*
X010536Y011822D02*
X010633Y011822D01*
X010633Y011920D02*
X011367Y011920D01*
X011367Y011902D02*
X011464Y011902D01*
X011464Y011697D01*
X011464Y011398D01*
X011367Y011398D01*
X011367Y011902D01*
X011415Y011950D02*
X011420Y011950D01*
X011420Y011350D01*
X011415Y011350D01*
X011370Y011330D01*
X010500Y011330D01*
X010285Y011625D02*
X010187Y011625D01*
X010130Y011520D02*
X010590Y011980D01*
X010590Y012200D01*
X011130Y012750D01*
X012430Y012750D01*
X012940Y012250D01*
X013040Y012150D01*
X013265Y012150D01*
X013270Y012110D01*
X013270Y011640D01*
X013265Y011600D01*
X013270Y011600D01*
X013270Y011000D01*
X013265Y011000D01*
X013217Y011048D02*
X013217Y011552D01*
X013314Y011552D01*
X013314Y011253D01*
X013314Y011048D01*
X013217Y011048D01*
X013217Y011132D02*
X013314Y011132D01*
X013314Y011231D02*
X013217Y011231D01*
X013217Y011329D02*
X013314Y011329D01*
X013314Y011428D02*
X013217Y011428D01*
X013217Y011526D02*
X013314Y011526D01*
X013314Y011648D02*
X013217Y011648D01*
X013217Y012102D01*
X013061Y012102D01*
X013050Y012127D01*
X012979Y012198D01*
X013217Y012198D01*
X013217Y012102D01*
X013314Y012102D01*
X013314Y011803D01*
X013314Y011648D01*
X013314Y011723D02*
X013217Y011723D01*
X013217Y011822D02*
X013314Y011822D01*
X013314Y011920D02*
X013217Y011920D01*
X013217Y012019D02*
X013314Y012019D01*
X013217Y012117D02*
X013055Y012117D01*
X012940Y012250D02*
X012440Y012750D01*
X012430Y012750D01*
X012507Y012750D02*
X012093Y012750D01*
X011800Y013043D01*
X011800Y013457D01*
X012093Y013750D01*
X012120Y013750D01*
X012120Y013750D01*
X012093Y013750D01*
X011800Y014043D01*
X011800Y014457D01*
X011913Y014570D01*
X011687Y014570D01*
X011800Y014457D01*
X011800Y014043D01*
X011507Y013750D01*
X011093Y013750D01*
X010800Y014043D01*
X010800Y014457D01*
X010913Y014570D01*
X010860Y014570D01*
X010774Y014483D01*
X010800Y014457D01*
X010800Y014043D01*
X010667Y013910D01*
X010880Y013910D01*
X011067Y013724D01*
X011093Y013750D01*
X011507Y013750D01*
X011800Y013457D01*
X011800Y013043D01*
X011507Y012750D01*
X011093Y012750D01*
X010800Y013043D01*
X010800Y013457D01*
X010826Y013483D01*
X010740Y013570D01*
X010687Y013570D01*
X010800Y013457D01*
X010800Y013043D01*
X010632Y012875D01*
X010667Y012860D01*
X010740Y012787D01*
X010780Y012692D01*
X010780Y012588D01*
X010740Y012493D01*
X010667Y012420D01*
X010572Y012380D01*
X010468Y012380D01*
X010373Y012420D01*
X010332Y012460D01*
X009507Y012460D01*
X009507Y012164D01*
X009550Y012120D01*
X009589Y012120D01*
X009589Y012220D01*
X009665Y012297D01*
X010166Y012297D01*
X010242Y012220D01*
X010242Y012203D01*
X010248Y012224D01*
X010268Y012259D01*
X010296Y012287D01*
X010330Y012306D01*
X010368Y012317D01*
X010536Y012317D01*
X010536Y011998D01*
X010633Y011998D01*
X010633Y012317D01*
X010801Y012317D01*
X010839Y012306D01*
X010840Y012306D01*
X010840Y012402D01*
X010880Y012497D01*
X010953Y012570D01*
X011048Y012610D01*
X012465Y012610D01*
X012485Y012590D01*
X012532Y012590D01*
X012627Y012550D01*
X012700Y012477D01*
X012740Y012382D01*
X012740Y012278D01*
X012713Y012213D01*
X012778Y012240D01*
X012882Y012240D01*
X012899Y012233D01*
X012899Y012367D01*
X012909Y012405D01*
X012929Y012439D01*
X012957Y012467D01*
X012991Y012487D01*
X013029Y012497D01*
X013217Y012497D01*
X013217Y012198D01*
X013314Y012198D01*
X013314Y012497D01*
X013502Y012497D01*
X013540Y012487D01*
X013574Y012467D01*
X013602Y012439D01*
X013611Y012423D01*
X013664Y012477D01*
X014205Y012477D01*
X014281Y012401D01*
X014281Y012295D01*
X014318Y012310D01*
X014422Y012310D01*
X014517Y012270D01*
X014590Y012197D01*
X014630Y012102D01*
X014630Y012064D01*
X015078Y012064D01*
X015154Y011988D01*
X015154Y011710D01*
X015212Y011710D01*
X015307Y011670D01*
X015380Y011597D01*
X015420Y011502D01*
X015420Y011398D01*
X015380Y011303D01*
X015307Y011230D01*
X015212Y011190D01*
X015108Y011190D01*
X015013Y011230D01*
X014940Y011303D01*
X014909Y011376D01*
X014870Y011283D01*
X014797Y011210D01*
X014702Y011170D01*
X014598Y011170D01*
X014503Y011210D01*
X014430Y011283D01*
X014390Y011378D01*
X014390Y011450D01*
X014281Y011558D01*
X014281Y011349D01*
X014232Y011300D01*
X014281Y011251D01*
X014281Y010749D01*
X014205Y010673D01*
X014100Y010673D01*
X014100Y009250D01*
X014079Y009229D01*
X014102Y009207D01*
X014170Y009275D01*
X014275Y009380D01*
X014299Y009380D01*
X014299Y009502D01*
X014617Y009502D01*
X014617Y009598D01*
X014299Y009598D01*
X014299Y009767D01*
X014309Y009805D01*
X014329Y009839D01*
X014357Y009867D01*
X014391Y009887D01*
X014429Y009897D01*
X014617Y009897D01*
X014617Y009598D01*
X014714Y009598D01*
X014714Y009897D01*
X014902Y009897D01*
X014940Y009887D01*
X014974Y009867D01*
X015002Y009839D01*
X015011Y009823D01*
X015064Y009877D01*
X015605Y009877D01*
X015681Y009801D01*
X015681Y009680D01*
X015972Y009680D01*
X015980Y009688D01*
X015980Y009745D01*
X016085Y009850D01*
X016734Y010498D01*
X016689Y010517D01*
X016670Y010473D01*
X016597Y010400D01*
X016502Y010360D01*
X016398Y010360D01*
X016303Y010400D01*
X016230Y010473D01*
X016211Y010517D01*
X016049Y010450D01*
X015851Y010450D01*
X015667Y010526D01*
X015526Y010667D01*
X015450Y010851D01*
X015450Y011049D01*
X015526Y011233D01*
X015667Y011374D01*
X015851Y011450D01*
X016049Y011450D01*
X016233Y011374D01*
X016280Y011327D01*
X016280Y011400D01*
X016748Y011869D01*
X016748Y012117D01*
X016997Y012117D01*
X016748Y012117D01*
X016652Y012117D01*
X016652Y011799D01*
X016483Y011799D01*
X016445Y011809D01*
X016411Y011829D01*
X016383Y011857D01*
X016363Y011891D01*
X016353Y011929D01*
X016353Y011949D01*
X016255Y011850D01*
X016178Y011774D01*
X016178Y011664D01*
X016102Y011588D01*
X015522Y011588D01*
X015446Y011664D01*
X015446Y011988D01*
X015456Y011999D01*
X015456Y012000D01*
X015436Y012034D01*
X015426Y012072D01*
X015426Y012196D01*
X015808Y012196D01*
X015816Y012196D01*
X016000Y012196D01*
X016000Y012204D01*
X015816Y012204D01*
X015816Y012196D01*
X015816Y012064D01*
X015808Y012064D01*
X015808Y012196D01*
X015808Y012204D01*
X015808Y012336D01*
X015816Y012336D01*
X015816Y012204D01*
X015808Y012204D01*
X015426Y012204D01*
X015426Y012328D01*
X015436Y012366D01*
X015456Y012400D01*
X015456Y012401D01*
X015446Y012412D01*
X015446Y012660D01*
X015355Y012660D01*
X015235Y012780D01*
X015130Y012885D01*
X015130Y012903D01*
X015065Y012903D01*
X014989Y012980D01*
X014989Y013494D01*
X014950Y013533D01*
X014937Y013562D01*
X014937Y013434D01*
X014861Y013358D01*
X014844Y013358D01*
X014865Y013352D01*
X014900Y013332D01*
X014928Y013304D01*
X014947Y013270D01*
X014957Y013232D01*
X014957Y013083D01*
X014679Y013083D01*
X014679Y013026D01*
X014957Y013026D01*
X014957Y012877D01*
X014947Y012839D01*
X014932Y012812D01*
X015078Y012812D01*
X015154Y012736D01*
X015154Y012412D01*
X015078Y012336D01*
X014498Y012336D01*
X014422Y012412D01*
X014422Y012736D01*
X014441Y012756D01*
X014435Y012757D01*
X014400Y012777D01*
X014372Y012805D01*
X014353Y012839D01*
X014343Y012877D01*
X014343Y013026D01*
X014621Y013026D01*
X014621Y013083D01*
X014343Y013083D01*
X014343Y013090D01*
X014278Y013090D01*
X014183Y013130D01*
X014110Y013203D01*
X014070Y013298D01*
X014070Y013402D01*
X014110Y013497D01*
X014183Y013570D01*
X014278Y013610D01*
X014350Y013610D01*
X014363Y013623D01*
X014363Y013857D01*
X014439Y013933D01*
X014861Y013933D01*
X014937Y013857D01*
X014937Y013798D01*
X014950Y013827D01*
X015023Y013900D01*
X015118Y013940D01*
X015222Y013940D01*
X015317Y013900D01*
X015390Y013827D01*
X015420Y013755D01*
X015430Y013777D01*
X015503Y013850D01*
X015582Y013883D01*
X015553Y013911D01*
X015505Y013977D01*
X015468Y014050D01*
X015443Y014128D01*
X015431Y014200D01*
X015900Y014200D01*
X016000Y014200D01*
X016000Y013731D01*
X016072Y013743D01*
X016150Y013768D01*
X016223Y013805D01*
X016270Y013840D01*
X016270Y013562D01*
X016235Y013597D01*
X015910Y013597D01*
X015910Y013682D01*
X015889Y013733D01*
X015900Y013731D01*
X015900Y014200D01*
X015900Y014300D01*
X015431Y014300D01*
X015443Y014372D01*
X015468Y014450D01*
X015505Y014523D01*
X015540Y014570D01*
X013787Y014570D01*
X013824Y014533D01*
X013900Y014349D01*
X013900Y014151D01*
X013824Y013967D01*
X013683Y013826D01*
X013499Y013750D01*
X013301Y013750D01*
X013117Y013674D01*
X012976Y013533D01*
X012900Y013349D01*
X012900Y013151D01*
X012976Y012967D01*
X013117Y012826D01*
X013301Y012750D01*
X013499Y012750D01*
X013683Y012826D01*
X013824Y012967D01*
X013900Y013151D01*
X013900Y013349D01*
X013824Y013533D01*
X013683Y013674D01*
X013499Y013750D01*
X013301Y013750D01*
X013117Y013826D01*
X012976Y013967D01*
X012933Y014070D01*
X012800Y014070D01*
X012800Y014043D01*
X012507Y013750D01*
X012480Y013750D01*
X012480Y013750D01*
X012507Y013750D01*
X012800Y013457D01*
X012800Y013043D01*
X012507Y012750D01*
X012564Y012807D02*
X013164Y012807D01*
X013038Y012905D02*
X012662Y012905D01*
X012761Y013004D02*
X012961Y013004D01*
X012920Y013102D02*
X012800Y013102D01*
X012800Y013201D02*
X012900Y013201D01*
X012900Y013299D02*
X012800Y013299D01*
X012800Y013398D02*
X012920Y013398D01*
X012961Y013496D02*
X012761Y013496D01*
X012663Y013595D02*
X013037Y013595D01*
X013163Y013693D02*
X012564Y013693D01*
X012549Y013792D02*
X013200Y013792D01*
X013053Y013890D02*
X012647Y013890D01*
X012746Y013989D02*
X012967Y013989D01*
X013400Y014250D02*
X012300Y014250D01*
X012300Y013250D01*
X011937Y013595D02*
X011663Y013595D01*
X011564Y013693D02*
X012036Y013693D01*
X012051Y013792D02*
X011549Y013792D01*
X011647Y013890D02*
X011953Y013890D01*
X011854Y013989D02*
X011746Y013989D01*
X011800Y014087D02*
X011800Y014087D01*
X011800Y014186D02*
X011800Y014186D01*
X011800Y014284D02*
X011800Y014284D01*
X011800Y014383D02*
X011800Y014383D01*
X011776Y014481D02*
X011824Y014481D01*
X010953Y013890D02*
X010900Y013890D01*
X010854Y013989D02*
X010746Y013989D01*
X010800Y014087D02*
X010800Y014087D01*
X010800Y014186D02*
X010800Y014186D01*
X010800Y014284D02*
X010800Y014284D01*
X010800Y014383D02*
X010800Y014383D01*
X010776Y014481D02*
X010824Y014481D01*
X010533Y014724D02*
X010507Y014750D01*
X010093Y014750D01*
X009800Y014457D01*
X009507Y014750D01*
X009093Y014750D01*
X008814Y014471D01*
X008515Y014770D01*
X008350Y014770D01*
X008350Y014300D01*
X008250Y014300D01*
X008250Y014770D01*
X008220Y014770D01*
X008220Y014950D01*
X019950Y014950D01*
X019950Y000250D01*
X019746Y000250D01*
X019783Y000277D01*
X019833Y000327D01*
X019875Y000384D01*
X019907Y000447D01*
X019929Y000515D01*
X019940Y000585D01*
X019940Y000870D01*
X019540Y000870D01*
X019540Y000970D01*
X019440Y000970D01*
X019440Y001668D01*
X019385Y001659D01*
X019317Y001637D01*
X019254Y001605D01*
X019197Y001563D01*
X019147Y001513D01*
X019105Y001456D01*
X019073Y001393D01*
X019051Y001325D01*
X019040Y001255D01*
X019040Y000970D01*
X019440Y000970D01*
X019440Y000870D01*
X019040Y000870D01*
X019040Y000585D01*
X019051Y000515D01*
X019073Y000447D01*
X019105Y000384D01*
X019147Y000327D01*
X019197Y000277D01*
X019234Y000250D01*
X017940Y000250D01*
X017954Y000255D01*
X018075Y000376D01*
X018140Y000534D01*
X018140Y001110D01*
X018730Y001700D01*
X018730Y004203D01*
X018816Y004203D01*
X018892Y004280D01*
X018892Y004750D01*
X018908Y004750D01*
X018908Y004280D01*
X018984Y004203D01*
X019389Y004203D01*
X019246Y004145D01*
X019125Y004024D01*
X019060Y003866D01*
X019060Y003094D01*
X019125Y002936D01*
X019246Y002815D01*
X019404Y002750D01*
X019576Y002750D01*
X019734Y002815D01*
X019855Y002936D01*
X019920Y003094D01*
X019920Y003866D01*
X019855Y004024D01*
X019734Y004145D01*
X019576Y004210D01*
X019492Y004210D01*
X019561Y004280D01*
X019561Y004820D01*
X019485Y004897D01*
X019410Y004897D01*
X019410Y004905D01*
X019305Y005010D01*
X019205Y005110D01*
X018338Y005110D01*
X018297Y005150D01*
X018202Y005190D01*
X018098Y005190D01*
X018003Y005150D01*
X017930Y005077D01*
X017920Y005054D01*
X017920Y005762D01*
X017970Y005813D01*
X018010Y005908D01*
X018010Y006012D01*
X017984Y006074D01*
X018620Y006710D01*
X018720Y006810D01*
X018720Y007702D01*
X018748Y007690D01*
X018852Y007690D01*
X018947Y007730D01*
X019020Y007803D01*
X019060Y007898D01*
X019060Y008002D01*
X019020Y008097D01*
X018970Y008148D01*
X018970Y008652D01*
X019020Y008703D01*
X019060Y008798D01*
X019060Y008902D01*
X019020Y008997D01*
X018947Y009070D01*
X018852Y009110D01*
X018748Y009110D01*
X018720Y009098D01*
X018720Y010860D01*
X018846Y010986D01*
X018846Y010867D01*
X018922Y010791D01*
X019778Y010791D01*
X019854Y010867D01*
X019854Y011683D01*
X019778Y011760D01*
X018960Y011760D01*
X018960Y011846D01*
X019778Y011846D01*
X019854Y011922D01*
X019854Y012778D01*
X019782Y012850D01*
X019854Y012922D01*
X019854Y013778D01*
X019778Y013854D01*
X018922Y013854D01*
X018846Y013778D01*
X018846Y012922D01*
X018918Y012850D01*
X018846Y012778D01*
X018846Y012554D01*
X018740Y012660D01*
X018712Y012688D01*
X018712Y012717D01*
X018707Y012722D01*
X018712Y012727D01*
X018712Y012973D01*
X018707Y012978D01*
X018712Y012983D01*
X018712Y013218D01*
X018722Y013235D01*
X018732Y013273D01*
X018732Y013362D01*
X018732Y013450D01*
X018722Y013489D01*
X018702Y013523D01*
X018698Y013527D01*
X018715Y013527D01*
X018791Y013603D01*
X018791Y014538D01*
X018715Y014614D01*
X017977Y014614D01*
X017901Y014538D01*
X017901Y013603D01*
X017948Y013556D01*
X017939Y013551D01*
X017911Y013523D01*
X017891Y013489D01*
X017881Y013450D01*
X017881Y013362D01*
X018307Y013362D01*
X018732Y013362D01*
X018307Y013362D01*
X018307Y013362D01*
X018300Y013360D01*
X018020Y013360D01*
X016830Y012170D01*
X016700Y012170D01*
X016700Y012165D01*
X016660Y012140D01*
X016100Y011580D01*
X015440Y011580D01*
X015440Y011360D01*
X015210Y011130D01*
X015210Y010390D01*
X015185Y010350D01*
X015180Y010350D01*
X015180Y010080D01*
X015015Y009915D01*
X015000Y009930D01*
X015015Y009915D02*
X014690Y009590D01*
X014665Y009550D01*
X014440Y009550D01*
X014060Y009170D01*
X014060Y009160D01*
X013890Y008990D01*
X013868Y008950D01*
X013820Y008920D01*
X013680Y008780D01*
X013310Y008780D01*
X012085Y007555D01*
X012030Y007610D01*
X012085Y007555D02*
X011980Y007450D01*
X011980Y006790D01*
X010920Y005730D01*
X010889Y005693D01*
X010644Y005448D01*
X010695Y005396D01*
X010729Y005376D01*
X010748Y005371D01*
X010800Y005320D01*
X010758Y005320D01*
X010663Y005280D01*
X010590Y005207D01*
X010550Y005112D01*
X010550Y005008D01*
X010565Y004973D01*
X010537Y005000D01*
X010442Y005040D01*
X010338Y005040D01*
X010243Y005000D01*
X010170Y004927D01*
X010130Y004832D01*
X010130Y004728D01*
X010170Y004633D01*
X010220Y004582D01*
X010220Y001756D01*
X010210Y001732D01*
X010210Y001628D01*
X010250Y001533D01*
X010323Y001460D01*
X010353Y001447D01*
X010322Y001457D01*
X010250Y001469D01*
X010250Y001000D01*
X010150Y001000D01*
X010150Y001469D01*
X010078Y001457D01*
X010000Y001432D01*
X009927Y001395D01*
X009861Y001347D01*
X009803Y001289D01*
X009755Y001223D01*
X009718Y001150D01*
X009693Y001072D01*
X009681Y001000D01*
X010150Y001000D01*
X010150Y000900D01*
X009681Y000900D01*
X009693Y000828D01*
X009718Y000750D01*
X009755Y000677D01*
X009790Y000630D01*
X009360Y000630D01*
X009253Y000737D01*
X009300Y000851D01*
X009300Y001049D01*
X009224Y001233D01*
X009083Y001374D01*
X008899Y001450D01*
X008701Y001450D01*
X008517Y001374D01*
X008376Y001233D01*
X008300Y001049D01*
X008300Y000851D01*
X008376Y000667D01*
X008517Y000526D01*
X008701Y000450D01*
X008899Y000450D01*
X009013Y000497D01*
X009220Y000290D01*
X010480Y000290D01*
X010580Y000390D01*
X010760Y000570D01*
X010817Y000626D01*
X010917Y000526D01*
X011101Y000450D01*
X011299Y000450D01*
X011483Y000526D01*
X011624Y000667D01*
X011700Y000851D01*
X011700Y001049D01*
X011624Y001233D01*
X011483Y001374D01*
X011299Y001450D01*
X011101Y001450D01*
X010917Y001374D01*
X010860Y001317D01*
X010860Y004232D01*
X010863Y004230D01*
X010958Y004190D01*
X011062Y004190D01*
X011157Y004230D01*
X011230Y004303D01*
X011270Y004398D01*
X011270Y004442D01*
X011519Y004690D01*
X011537Y004690D01*
X011892Y005045D01*
X011892Y005058D01*
X012140Y004810D01*
X012140Y004458D01*
X012117Y004480D01*
X012022Y004520D01*
X011918Y004520D01*
X011823Y004480D01*
X011750Y004407D01*
X011710Y004312D01*
X011710Y004208D01*
X011750Y004113D01*
X011800Y004062D01*
X011800Y001257D01*
X011776Y001233D01*
X011700Y001049D01*
X011700Y000851D01*
X011776Y000667D01*
X011917Y000526D01*
X012101Y000450D01*
X012299Y000450D01*
X012483Y000526D01*
X012624Y000667D01*
X012700Y000851D01*
X012776Y000667D01*
X012917Y000526D01*
X013101Y000450D01*
X013299Y000450D01*
X013483Y000526D01*
X013624Y000667D01*
X013700Y000851D01*
X013776Y000667D01*
X013917Y000526D01*
X014101Y000450D01*
X014299Y000450D01*
X014483Y000526D01*
X014624Y000667D01*
X014700Y000851D01*
X014776Y000667D01*
X014917Y000526D01*
X015101Y000450D01*
X015299Y000450D01*
X015483Y000526D01*
X015624Y000667D01*
X015700Y000851D01*
X015700Y001049D01*
X015624Y001233D01*
X015483Y001374D01*
X015299Y001450D01*
X015101Y001450D01*
X014917Y001374D01*
X014776Y001233D01*
X014700Y001049D01*
X014700Y000851D01*
X014700Y001049D01*
X014653Y001163D01*
X014680Y001190D01*
X014680Y003230D01*
X015747Y002163D01*
X015700Y002049D01*
X015700Y001851D01*
X015776Y001667D01*
X015917Y001526D01*
X016101Y001450D01*
X015917Y001374D01*
X015776Y001233D01*
X015700Y001049D01*
X015700Y000851D01*
X015776Y000667D01*
X015917Y000526D01*
X016101Y000450D01*
X016299Y000450D01*
X016483Y000526D01*
X016624Y000667D01*
X016700Y000851D01*
X016700Y001049D01*
X016624Y001233D01*
X016483Y001374D01*
X016299Y001450D01*
X016101Y001450D01*
X016299Y001450D01*
X016420Y001500D01*
X017150Y000770D01*
X017280Y000770D01*
X017280Y000534D01*
X017345Y000376D01*
X017466Y000255D01*
X017480Y000250D01*
X008220Y000250D01*
X008220Y000663D01*
X008224Y000667D01*
X008300Y000851D01*
X008300Y001049D01*
X008243Y001188D01*
X008765Y001710D01*
X009385Y001710D01*
X009490Y001815D01*
X009490Y001815D01*
X009515Y001840D01*
X009620Y001945D01*
X009620Y002895D01*
X008930Y003585D01*
X008930Y003692D01*
X008943Y003680D01*
X009038Y003640D01*
X009142Y003640D01*
X009237Y003680D01*
X009310Y003753D01*
X009350Y003848D01*
X009350Y003952D01*
X009310Y004047D01*
X009264Y004094D01*
X009311Y004141D01*
X009343Y004110D01*
X009438Y004070D01*
X009542Y004070D01*
X009637Y004110D01*
X009710Y004183D01*
X009750Y004278D01*
X009750Y004382D01*
X009743Y004399D01*
X009867Y004399D01*
X009905Y004409D01*
X009939Y004429D01*
X009967Y004457D01*
X009987Y004491D01*
X009997Y004529D01*
X009997Y004717D01*
X009698Y004717D01*
X009698Y004814D01*
X009997Y004814D01*
X009997Y005002D01*
X009987Y005040D01*
X009967Y005074D01*
X009939Y005102D01*
X009923Y005111D01*
X009942Y005130D01*
X009983Y005090D01*
X010078Y005050D01*
X010182Y005050D01*
X010277Y005090D01*
X010350Y005163D01*
X010353Y005168D01*
X010420Y005235D01*
X010638Y005453D01*
X010644Y005448D01*
X010889Y005693D01*
X010889Y005693D01*
X010899Y005683D01*
X010899Y005683D01*
X010889Y005693D01*
X010889Y005693D01*
X010850Y005660D01*
X009960Y004770D01*
X009990Y004730D01*
X010200Y004520D01*
X010200Y000950D01*
X010150Y000987D02*
X009300Y000987D01*
X009300Y000888D02*
X009683Y000888D01*
X009705Y000790D02*
X009275Y000790D01*
X009299Y000691D02*
X009748Y000691D01*
X009114Y000396D02*
X008220Y000396D01*
X008220Y000494D02*
X008594Y000494D01*
X008450Y000593D02*
X008220Y000593D01*
X008234Y000691D02*
X008366Y000691D01*
X008325Y000790D02*
X008275Y000790D01*
X008300Y000888D02*
X008300Y000888D01*
X008300Y000987D02*
X008300Y000987D01*
X008285Y001085D02*
X008315Y001085D01*
X008356Y001184D02*
X008244Y001184D01*
X008337Y001282D02*
X008425Y001282D01*
X008435Y001381D02*
X008533Y001381D01*
X008534Y001479D02*
X010303Y001479D01*
X010250Y001381D02*
X010150Y001381D01*
X010150Y001282D02*
X010250Y001282D01*
X010250Y001184D02*
X010150Y001184D01*
X010150Y001085D02*
X010250Y001085D01*
X009908Y001381D02*
X009067Y001381D01*
X009175Y001282D02*
X009798Y001282D01*
X009735Y001184D02*
X009244Y001184D01*
X009285Y001085D02*
X009697Y001085D01*
X010231Y001578D02*
X008632Y001578D01*
X008731Y001676D02*
X010210Y001676D01*
X010220Y001775D02*
X009449Y001775D01*
X009515Y001840D02*
X009515Y001840D01*
X009548Y001873D02*
X010220Y001873D01*
X010220Y001972D02*
X009620Y001972D01*
X009620Y002070D02*
X010220Y002070D01*
X010220Y002169D02*
X009620Y002169D01*
X009620Y002267D02*
X010220Y002267D01*
X010220Y002366D02*
X009620Y002366D01*
X009620Y002464D02*
X010220Y002464D01*
X010220Y002563D02*
X009620Y002563D01*
X009620Y002661D02*
X010220Y002661D01*
X010220Y002760D02*
X009620Y002760D01*
X009620Y002858D02*
X010220Y002858D01*
X010220Y002957D02*
X009558Y002957D01*
X009460Y003055D02*
X010220Y003055D01*
X010220Y003154D02*
X009361Y003154D01*
X009263Y003252D02*
X010220Y003252D01*
X010220Y003351D02*
X009164Y003351D01*
X009066Y003449D02*
X010220Y003449D01*
X010220Y003548D02*
X008967Y003548D01*
X008930Y003646D02*
X009024Y003646D01*
X009156Y003646D02*
X010220Y003646D01*
X010220Y003745D02*
X009302Y003745D01*
X009348Y003843D02*
X010220Y003843D01*
X010220Y003942D02*
X009350Y003942D01*
X009313Y004040D02*
X010220Y004040D01*
X010220Y004139D02*
X009666Y004139D01*
X009733Y004237D02*
X010220Y004237D01*
X010220Y004336D02*
X009750Y004336D01*
X009944Y004434D02*
X010220Y004434D01*
X010220Y004533D02*
X009997Y004533D01*
X009997Y004631D02*
X010171Y004631D01*
X010130Y004730D02*
X009698Y004730D01*
X009650Y004765D02*
X009620Y004810D01*
X009240Y004810D01*
X009303Y004814D02*
X009602Y004814D01*
X009602Y004717D01*
X009303Y004717D01*
X009303Y004529D01*
X009307Y004515D01*
X009292Y004500D01*
X009190Y004500D01*
X009090Y004400D01*
X008392Y005098D01*
X008398Y005104D01*
X008398Y005135D01*
X008426Y005067D01*
X008567Y004926D01*
X008751Y004850D01*
X008949Y004850D01*
X009133Y004926D01*
X009274Y005067D01*
X009323Y005186D01*
X009323Y005164D01*
X009377Y005111D01*
X009361Y005102D01*
X009333Y005074D01*
X009313Y005040D01*
X009303Y005002D01*
X009303Y004814D01*
X009303Y004828D02*
X008662Y004828D01*
X008566Y004927D02*
X008564Y004927D01*
X008468Y005025D02*
X008465Y005025D01*
X008403Y005124D02*
X008398Y005124D01*
X008761Y004730D02*
X009602Y004730D01*
X009650Y004765D02*
X009650Y004770D01*
X009960Y004770D01*
X009997Y004828D02*
X010130Y004828D01*
X010169Y004927D02*
X009997Y004927D01*
X009991Y005025D02*
X010302Y005025D01*
X010311Y005124D02*
X010555Y005124D01*
X010550Y005025D02*
X010478Y005025D01*
X010407Y005222D02*
X010604Y005222D01*
X010505Y005321D02*
X010799Y005321D01*
X010673Y005419D02*
X010604Y005419D01*
X010713Y005518D02*
X010713Y005518D01*
X010812Y005616D02*
X010812Y005616D01*
X010890Y005690D02*
X010889Y005693D01*
X010880Y005702D01*
X010889Y005693D01*
X010889Y005693D01*
X010889Y005693D01*
X011134Y005938D01*
X011083Y005990D01*
X011049Y006010D01*
X011030Y006015D01*
X010947Y006097D01*
X011790Y006940D01*
X011890Y007040D01*
X011890Y007592D01*
X011940Y007643D01*
X011980Y007738D01*
X011980Y007842D01*
X011940Y007937D01*
X011867Y008010D01*
X011834Y008024D01*
X012842Y009031D01*
X012868Y009020D01*
X012972Y009020D01*
X013067Y009060D01*
X013140Y009133D01*
X013165Y009191D01*
X013283Y009073D01*
X013422Y008934D01*
X013546Y008810D01*
X013551Y008791D01*
X013571Y008756D01*
X013623Y008705D01*
X013674Y008653D01*
X013682Y008649D01*
X013663Y008640D01*
X013612Y008590D01*
X013130Y008590D01*
X013030Y008490D01*
X011980Y007440D01*
X011980Y006220D01*
X011674Y005914D01*
X011660Y005947D01*
X011587Y006020D01*
X011492Y006060D01*
X011388Y006060D01*
X011293Y006020D01*
X011242Y005970D01*
X011230Y005970D01*
X011166Y005906D01*
X011134Y005938D01*
X010889Y005693D01*
X010880Y005702D02*
X010880Y005702D01*
X010910Y005715D02*
X010910Y005715D01*
X011009Y005813D02*
X011009Y005813D01*
X011107Y005912D02*
X011107Y005912D01*
X011161Y005912D02*
X011171Y005912D01*
X011282Y006010D02*
X011047Y006010D01*
X010959Y006109D02*
X011868Y006109D01*
X011967Y006207D02*
X011057Y006207D01*
X011156Y006306D02*
X011980Y006306D01*
X011980Y006404D02*
X011254Y006404D01*
X011353Y006503D02*
X011980Y006503D01*
X011980Y006601D02*
X011451Y006601D01*
X011550Y006700D02*
X011980Y006700D01*
X011980Y006798D02*
X011648Y006798D01*
X011747Y006897D02*
X011980Y006897D01*
X011980Y006995D02*
X011845Y006995D01*
X011890Y007094D02*
X011980Y007094D01*
X011980Y007192D02*
X011890Y007192D01*
X011890Y007291D02*
X011980Y007291D01*
X011980Y007389D02*
X011890Y007389D01*
X011890Y007488D02*
X012027Y007488D01*
X012126Y007586D02*
X011890Y007586D01*
X011958Y007685D02*
X012224Y007685D01*
X012323Y007783D02*
X011980Y007783D01*
X011964Y007882D02*
X012421Y007882D01*
X012520Y007980D02*
X011898Y007980D01*
X011889Y008079D02*
X012618Y008079D01*
X012717Y008177D02*
X011987Y008177D01*
X012086Y008276D02*
X012815Y008276D01*
X012914Y008374D02*
X012184Y008374D01*
X012283Y008473D02*
X013012Y008473D01*
X013111Y008571D02*
X012381Y008571D01*
X012480Y008670D02*
X013658Y008670D01*
X013623Y008705D02*
X013862Y008944D01*
X013862Y008944D01*
X013623Y008705D01*
X013564Y008768D02*
X012578Y008768D01*
X012677Y008867D02*
X013489Y008867D01*
X013391Y008965D02*
X012775Y008965D01*
X013071Y009064D02*
X013292Y009064D01*
X013194Y009162D02*
X013153Y009162D01*
X013686Y008768D02*
X013686Y008768D01*
X013784Y008867D02*
X013784Y008867D01*
X013860Y008950D02*
X013868Y008950D01*
X013868Y008951D02*
X014060Y009142D01*
X013868Y008951D01*
X013868Y008951D01*
X013883Y008965D02*
X013883Y008965D01*
X013981Y009064D02*
X013981Y009064D01*
X014060Y009142D02*
X014060Y009142D01*
X014100Y009261D02*
X014156Y009261D01*
X014100Y009359D02*
X014254Y009359D01*
X014299Y009458D02*
X014100Y009458D01*
X014100Y009556D02*
X014617Y009556D01*
X014617Y009655D02*
X014714Y009655D01*
X014714Y009753D02*
X014617Y009753D01*
X014617Y009852D02*
X014714Y009852D01*
X014786Y010023D02*
X014839Y010077D01*
X014848Y010061D01*
X014876Y010033D01*
X014910Y010013D01*
X014948Y010003D01*
X015136Y010003D01*
X015136Y010302D01*
X015233Y010302D01*
X015233Y010398D01*
X015551Y010398D01*
X015551Y010567D01*
X015541Y010605D01*
X015521Y010639D01*
X015493Y010667D01*
X015459Y010687D01*
X015421Y010697D01*
X015233Y010697D01*
X015233Y010398D01*
X015136Y010398D01*
X015136Y010697D01*
X015110Y010697D01*
X015110Y010782D01*
X015070Y010877D01*
X014997Y010950D01*
X014902Y010990D01*
X014798Y010990D01*
X014703Y010950D01*
X014630Y010877D01*
X014590Y010782D01*
X014590Y010725D01*
X014542Y010677D01*
X014245Y010677D01*
X014169Y010601D01*
X014169Y010099D01*
X014245Y010023D01*
X014786Y010023D01*
X014811Y010049D02*
X014861Y010049D01*
X014989Y009852D02*
X015039Y009852D01*
X015233Y010003D02*
X015421Y010003D01*
X015459Y010013D01*
X015493Y010033D01*
X015521Y010061D01*
X015541Y010095D01*
X015551Y010133D01*
X015551Y010302D01*
X015233Y010302D01*
X015233Y010003D01*
X015233Y010049D02*
X015136Y010049D01*
X015136Y010147D02*
X015233Y010147D01*
X015233Y010246D02*
X015136Y010246D01*
X015233Y010344D02*
X016579Y010344D01*
X016640Y010443D02*
X016678Y010443D01*
X016950Y010460D02*
X016160Y009670D01*
X016160Y009500D01*
X015540Y009500D01*
X015490Y009550D01*
X015335Y009550D01*
X015170Y009550D01*
X015170Y009340D01*
X015030Y009200D01*
X014350Y009200D01*
X014240Y009090D01*
X014240Y009050D01*
X014010Y008820D01*
X014007Y008811D01*
X014100Y009655D02*
X014299Y009655D01*
X014299Y009753D02*
X014100Y009753D01*
X014100Y009852D02*
X014341Y009852D01*
X014100Y009950D02*
X016185Y009950D01*
X016087Y009852D02*
X015630Y009852D01*
X015681Y009753D02*
X015988Y009753D01*
X016160Y009500D02*
X016200Y009470D01*
X017120Y009470D01*
X017880Y008710D01*
X017880Y008490D01*
X017885Y008450D01*
X017880Y008450D01*
X017880Y007900D01*
X017885Y007900D01*
X017880Y007860D01*
X017880Y007390D01*
X017885Y007350D01*
X017880Y007350D01*
X017880Y006800D01*
X017885Y006800D01*
X017880Y006760D01*
X017880Y006520D01*
X017740Y006380D01*
X016600Y006380D01*
X016520Y006460D01*
X017920Y005715D02*
X019950Y005715D01*
X019950Y005813D02*
X017971Y005813D01*
X018010Y005912D02*
X019950Y005912D01*
X019950Y006010D02*
X018010Y006010D01*
X018019Y006109D02*
X019950Y006109D01*
X019950Y006207D02*
X018117Y006207D01*
X018216Y006306D02*
X019950Y006306D01*
X019950Y006404D02*
X018314Y006404D01*
X018413Y006503D02*
X019950Y006503D01*
X019950Y006601D02*
X018511Y006601D01*
X018610Y006700D02*
X019950Y006700D01*
X019950Y006798D02*
X018708Y006798D01*
X018720Y006897D02*
X019950Y006897D01*
X019950Y006995D02*
X018720Y006995D01*
X018720Y007094D02*
X019950Y007094D01*
X019950Y007192D02*
X018720Y007192D01*
X018720Y007291D02*
X019950Y007291D01*
X019950Y007389D02*
X018720Y007389D01*
X018720Y007488D02*
X019950Y007488D01*
X019950Y007586D02*
X018720Y007586D01*
X018720Y007685D02*
X019950Y007685D01*
X019950Y007783D02*
X019001Y007783D01*
X019053Y007882D02*
X019950Y007882D01*
X019950Y007980D02*
X019060Y007980D01*
X019028Y008079D02*
X019950Y008079D01*
X019950Y008177D02*
X018970Y008177D01*
X018970Y008276D02*
X019950Y008276D01*
X019950Y008374D02*
X018970Y008374D01*
X018970Y008473D02*
X019950Y008473D01*
X019950Y008571D02*
X018970Y008571D01*
X018987Y008670D02*
X019950Y008670D01*
X019950Y008768D02*
X019047Y008768D01*
X019060Y008867D02*
X019950Y008867D01*
X019950Y008965D02*
X019034Y008965D01*
X018954Y009064D02*
X019950Y009064D01*
X019950Y009162D02*
X018720Y009162D01*
X018720Y009261D02*
X019950Y009261D01*
X019950Y009359D02*
X018720Y009359D01*
X018720Y009458D02*
X019950Y009458D01*
X019950Y009556D02*
X018720Y009556D01*
X018720Y009655D02*
X019950Y009655D01*
X019950Y009753D02*
X018720Y009753D01*
X018720Y009852D02*
X019950Y009852D01*
X019950Y009950D02*
X018720Y009950D01*
X018720Y010049D02*
X019950Y010049D01*
X019950Y010147D02*
X018720Y010147D01*
X018720Y010246D02*
X019950Y010246D01*
X019950Y010344D02*
X018720Y010344D01*
X018720Y010443D02*
X019950Y010443D01*
X019950Y010541D02*
X018720Y010541D01*
X018720Y010640D02*
X019950Y010640D01*
X019950Y010738D02*
X018720Y010738D01*
X018720Y010837D02*
X018876Y010837D01*
X018846Y010935D02*
X018795Y010935D01*
X019824Y010837D02*
X019950Y010837D01*
X019950Y010935D02*
X019854Y010935D01*
X019854Y011034D02*
X019950Y011034D01*
X019950Y011132D02*
X019854Y011132D01*
X019854Y011231D02*
X019950Y011231D01*
X019950Y011329D02*
X019854Y011329D01*
X019854Y011428D02*
X019950Y011428D01*
X019950Y011526D02*
X019854Y011526D01*
X019854Y011625D02*
X019950Y011625D01*
X019950Y011723D02*
X019814Y011723D01*
X019950Y011822D02*
X018960Y011822D01*
X018307Y012338D02*
X018300Y012340D01*
X017840Y012340D01*
X017810Y012370D01*
X017400Y012520D02*
X017400Y012730D01*
X017590Y012920D01*
X017690Y013020D01*
X017901Y013020D01*
X017901Y013218D01*
X017891Y013235D01*
X017881Y013273D01*
X017881Y013362D01*
X018307Y013362D01*
X018307Y013362D01*
X018732Y013398D02*
X018846Y013398D01*
X018846Y013496D02*
X018718Y013496D01*
X018782Y013595D02*
X018846Y013595D01*
X018846Y013693D02*
X018791Y013693D01*
X018791Y013792D02*
X018860Y013792D01*
X018791Y013890D02*
X019950Y013890D01*
X019950Y013792D02*
X019840Y013792D01*
X019854Y013693D02*
X019950Y013693D01*
X019950Y013595D02*
X019854Y013595D01*
X019854Y013496D02*
X019950Y013496D01*
X019950Y013398D02*
X019854Y013398D01*
X019854Y013299D02*
X019950Y013299D01*
X019950Y013201D02*
X019854Y013201D01*
X019854Y013102D02*
X019950Y013102D01*
X019950Y013004D02*
X019854Y013004D01*
X019837Y012905D02*
X019950Y012905D01*
X019950Y012807D02*
X019825Y012807D01*
X019854Y012708D02*
X019950Y012708D01*
X019950Y012610D02*
X019854Y012610D01*
X019854Y012511D02*
X019950Y012511D01*
X019950Y012413D02*
X019854Y012413D01*
X019854Y012314D02*
X019950Y012314D01*
X019950Y012216D02*
X019854Y012216D01*
X019854Y012117D02*
X019950Y012117D01*
X019950Y012019D02*
X019854Y012019D01*
X019852Y011920D02*
X019950Y011920D01*
X018846Y012610D02*
X018791Y012610D01*
X018846Y012708D02*
X018712Y012708D01*
X018712Y012807D02*
X018875Y012807D01*
X018863Y012905D02*
X018712Y012905D01*
X018712Y013004D02*
X018846Y013004D01*
X018846Y013102D02*
X018712Y013102D01*
X018712Y013201D02*
X018846Y013201D01*
X018846Y013299D02*
X018732Y013299D01*
X018922Y013940D02*
X019778Y013940D01*
X019854Y014017D01*
X019854Y014833D01*
X019778Y014909D01*
X018922Y014909D01*
X018846Y014833D01*
X018846Y014017D01*
X018922Y013940D01*
X018874Y013989D02*
X018791Y013989D01*
X018791Y014087D02*
X018846Y014087D01*
X018846Y014186D02*
X018791Y014186D01*
X018791Y014284D02*
X018846Y014284D01*
X018846Y014383D02*
X018791Y014383D01*
X018791Y014481D02*
X018846Y014481D01*
X018846Y014580D02*
X018749Y014580D01*
X018846Y014678D02*
X017223Y014678D01*
X017233Y014674D02*
X017049Y014750D01*
X016851Y014750D01*
X016667Y014674D01*
X016567Y014574D01*
X016330Y014810D01*
X016230Y014910D01*
X010720Y014910D01*
X010533Y014724D01*
X010586Y014777D02*
X008220Y014777D01*
X008220Y014875D02*
X010685Y014875D01*
X010021Y014678D02*
X009579Y014678D01*
X009678Y014580D02*
X009922Y014580D01*
X009824Y014481D02*
X009776Y014481D01*
X009800Y014457D02*
X009800Y014043D01*
X009507Y013750D01*
X009093Y013750D01*
X008814Y014029D01*
X008535Y013750D01*
X008814Y013471D01*
X009093Y013750D01*
X009507Y013750D01*
X009569Y013688D01*
X009590Y013737D01*
X009663Y013810D01*
X009758Y013850D01*
X009862Y013850D01*
X009931Y013821D01*
X009976Y013867D01*
X009800Y014043D01*
X009800Y014457D01*
X009800Y014383D02*
X009800Y014383D01*
X009800Y014284D02*
X009800Y014284D01*
X009800Y014186D02*
X009800Y014186D01*
X009800Y014087D02*
X009800Y014087D01*
X009746Y013989D02*
X009854Y013989D01*
X009953Y013890D02*
X009647Y013890D01*
X009644Y013792D02*
X009549Y013792D01*
X009564Y013693D02*
X009571Y013693D01*
X009051Y013792D02*
X008577Y013792D01*
X008592Y013693D02*
X009036Y013693D01*
X008937Y013595D02*
X008691Y013595D01*
X008789Y013496D02*
X008839Y013496D01*
X008350Y013496D02*
X008250Y013496D01*
X008250Y013398D02*
X008350Y013398D01*
X008350Y013300D02*
X008250Y013300D01*
X008250Y013770D01*
X008250Y014200D01*
X008350Y014200D01*
X008350Y013300D01*
X008300Y013250D02*
X008300Y014250D01*
X008250Y014186D02*
X008350Y014186D01*
X008350Y014087D02*
X008250Y014087D01*
X008250Y013989D02*
X008350Y013989D01*
X008350Y013890D02*
X008250Y013890D01*
X008250Y013792D02*
X008350Y013792D01*
X008350Y013693D02*
X008250Y013693D01*
X008250Y013595D02*
X008350Y013595D01*
X008675Y013890D02*
X008953Y013890D01*
X008854Y013989D02*
X008774Y013989D01*
X008350Y014383D02*
X008250Y014383D01*
X008250Y014481D02*
X008350Y014481D01*
X008350Y014580D02*
X008250Y014580D01*
X008250Y014678D02*
X008350Y014678D01*
X008607Y014678D02*
X009021Y014678D01*
X008922Y014580D02*
X008706Y014580D01*
X008804Y014481D02*
X008824Y014481D01*
X008350Y013200D02*
X008350Y012730D01*
X008515Y012730D01*
X008814Y013029D01*
X009023Y012820D01*
X008715Y012820D01*
X008610Y012715D01*
X008280Y012385D01*
X008280Y011710D01*
X008220Y011710D01*
X008220Y012730D01*
X008250Y012730D01*
X008250Y013200D01*
X008350Y013200D01*
X008350Y013102D02*
X008250Y013102D01*
X008250Y013004D02*
X008350Y013004D01*
X008350Y012905D02*
X008250Y012905D01*
X008250Y012807D02*
X008350Y012807D01*
X008220Y012708D02*
X008603Y012708D01*
X008592Y012807D02*
X008702Y012807D01*
X008690Y012905D02*
X008938Y012905D01*
X008839Y013004D02*
X008789Y013004D01*
X008790Y012640D02*
X010520Y012640D01*
X010721Y012807D02*
X011036Y012807D01*
X011130Y012750D02*
X010590Y012210D01*
X010590Y012200D01*
X010633Y012216D02*
X010536Y012216D01*
X010536Y012314D02*
X010633Y012314D01*
X010650Y012413D02*
X010844Y012413D01*
X010840Y012314D02*
X010811Y012314D01*
X010748Y012511D02*
X010893Y012511D01*
X010780Y012610D02*
X011047Y012610D01*
X011180Y012430D02*
X011100Y012350D01*
X011180Y012430D02*
X012390Y012430D01*
X012450Y012370D01*
X012480Y012330D01*
X012480Y012070D01*
X012360Y011950D01*
X012085Y011950D01*
X012085Y011350D01*
X012085Y011225D01*
X011530Y010670D01*
X010840Y010670D01*
X011430Y010080D01*
X011430Y010070D01*
X011440Y010070D01*
X011446Y010064D01*
X011307Y009925D02*
X011552Y009679D01*
X011307Y009925D01*
X011307Y009925D01*
X011310Y009920D01*
X011480Y009750D01*
X011480Y008750D01*
X011567Y008670D02*
X011000Y008670D01*
X011000Y008768D02*
X011738Y008768D01*
X011640Y008670D02*
X012320Y009350D01*
X012320Y009422D01*
X012360Y009517D01*
X012421Y009579D01*
X012250Y009750D01*
X012178Y009750D01*
X012083Y009790D01*
X012010Y009863D01*
X011970Y009958D01*
X011970Y010040D01*
X011884Y010040D01*
X011740Y009896D01*
X011628Y009784D01*
X011623Y009765D01*
X011603Y009731D01*
X011552Y009679D01*
X011500Y009628D01*
X011466Y009608D01*
X011447Y009603D01*
X011323Y009479D01*
X011184Y009339D01*
X011057Y009212D01*
X011057Y009212D01*
X010905Y009061D01*
X010807Y008963D01*
X010900Y008870D01*
X011000Y008770D01*
X011000Y008320D01*
X010409Y007729D01*
X010477Y007700D01*
X010550Y007627D01*
X010590Y007532D01*
X010590Y007460D01*
X010650Y007400D01*
X010730Y007400D01*
X011506Y008176D01*
X011473Y008190D01*
X011400Y008263D01*
X011360Y008358D01*
X011360Y008462D01*
X011400Y008557D01*
X011473Y008630D01*
X011568Y008670D01*
X011640Y008670D01*
X011413Y008571D02*
X011000Y008571D01*
X011000Y008473D02*
X011364Y008473D01*
X011360Y008374D02*
X011000Y008374D01*
X010956Y008276D02*
X011394Y008276D01*
X011503Y008177D02*
X010857Y008177D01*
X010759Y008079D02*
X011408Y008079D01*
X011310Y007980D02*
X010660Y007980D01*
X010562Y007882D02*
X011211Y007882D01*
X011113Y007783D02*
X010463Y007783D01*
X010493Y007685D02*
X011014Y007685D01*
X010916Y007586D02*
X010568Y007586D01*
X010590Y007488D02*
X010817Y007488D01*
X009472Y007882D02*
X008416Y007882D01*
X008415Y007783D02*
X008341Y007783D01*
X008474Y008867D02*
X008520Y008867D01*
X008330Y008965D02*
X008330Y009602D01*
X008370Y009643D01*
X008410Y009738D01*
X008410Y009842D01*
X008370Y009937D01*
X008297Y010010D01*
X008220Y010042D01*
X008220Y010150D01*
X008292Y010150D01*
X008387Y010190D01*
X008460Y010263D01*
X008500Y010358D01*
X008500Y010442D01*
X008601Y010400D01*
X008799Y010400D01*
X008983Y010476D01*
X008999Y010492D01*
X008999Y010348D01*
X009317Y010348D01*
X009317Y010647D01*
X009136Y010647D01*
X009200Y010801D01*
X009200Y010999D01*
X009124Y011183D01*
X009089Y011219D01*
X009430Y011219D01*
X009507Y011295D01*
X009507Y011780D01*
X009589Y011780D01*
X009589Y011680D01*
X009665Y011603D01*
X009589Y011723D02*
X009507Y011723D01*
X009507Y011526D02*
X011049Y011526D01*
X011049Y011428D02*
X009507Y011428D01*
X009507Y011329D02*
X011367Y011329D01*
X011367Y011231D02*
X011464Y011231D01*
X011464Y011132D02*
X011367Y011132D01*
X011367Y011034D02*
X011464Y011034D01*
X011540Y010935D02*
X009200Y010935D01*
X009200Y010837D02*
X010092Y010837D01*
X009993Y010738D02*
X009174Y010738D01*
X009317Y010640D02*
X009414Y010640D01*
X009414Y010541D02*
X009317Y010541D01*
X009317Y010443D02*
X009414Y010443D01*
X009317Y010344D02*
X008494Y010344D01*
X008443Y010246D02*
X008999Y010246D01*
X008999Y010147D02*
X008220Y010147D01*
X008220Y010049D02*
X009008Y010049D01*
X009317Y010049D02*
X009414Y010049D01*
X009414Y010147D02*
X009317Y010147D01*
X009317Y010246D02*
X009414Y010246D01*
X009604Y009950D02*
X008358Y009950D01*
X008406Y009852D02*
X009580Y009852D01*
X009595Y009753D02*
X008410Y009753D01*
X008375Y009655D02*
X009650Y009655D01*
X009650Y009556D02*
X008330Y009556D01*
X008330Y009458D02*
X009650Y009458D01*
X009650Y009359D02*
X008330Y009359D01*
X008330Y009261D02*
X009650Y009261D01*
X009650Y009162D02*
X008330Y009162D01*
X008330Y009064D02*
X009682Y009064D01*
X009830Y009170D02*
X009830Y009830D01*
X009840Y009840D01*
X010035Y010035D01*
X010035Y010300D01*
X010050Y010315D01*
X010050Y010540D01*
X010180Y010670D01*
X010840Y010670D01*
X011106Y011034D02*
X009186Y011034D01*
X009145Y011132D02*
X011049Y011132D01*
X011049Y011231D02*
X009442Y011231D01*
X010130Y011520D02*
X010540Y011930D01*
X010585Y011950D01*
X010590Y011950D01*
X010590Y011980D01*
X010633Y012019D02*
X010536Y012019D01*
X010536Y012117D02*
X010633Y012117D01*
X010246Y012216D02*
X010242Y012216D01*
X010359Y012314D02*
X009507Y012314D01*
X009507Y012216D02*
X009589Y012216D01*
X009507Y012413D02*
X010390Y012413D01*
X010773Y012708D02*
X014422Y012708D01*
X014422Y012610D02*
X012465Y012610D01*
X012667Y012511D02*
X014422Y012511D01*
X014422Y012413D02*
X014269Y012413D01*
X014281Y012314D02*
X015426Y012314D01*
X015440Y012340D02*
X015160Y012620D01*
X015160Y012740D01*
X014880Y013020D01*
X014690Y013020D01*
X014650Y013055D01*
X014215Y013055D01*
X014080Y012920D01*
X014080Y014050D01*
X014260Y014250D01*
X015950Y014250D01*
X015900Y014284D02*
X013900Y014284D01*
X013900Y014186D02*
X015434Y014186D01*
X015456Y014087D02*
X013874Y014087D01*
X013833Y013989D02*
X015500Y013989D01*
X015575Y013890D02*
X015328Y013890D01*
X015405Y013792D02*
X015444Y013792D01*
X015320Y013530D02*
X015170Y013680D01*
X015320Y013530D02*
X015320Y013250D01*
X015315Y013250D01*
X015320Y013210D01*
X015320Y012970D01*
X015310Y012960D01*
X015430Y012840D01*
X016190Y012840D01*
X016200Y012830D01*
X016280Y012830D01*
X016390Y012570D02*
X016650Y012830D01*
X016700Y012830D01*
X016700Y012835D01*
X016720Y012880D01*
X016720Y014020D01*
X016950Y014250D01*
X017297Y013890D02*
X017901Y013890D01*
X017901Y013792D02*
X017150Y013792D01*
X017233Y013826D02*
X017374Y013967D01*
X017450Y014151D01*
X017450Y014349D01*
X017374Y014533D01*
X017233Y014674D01*
X017328Y014580D02*
X017943Y014580D01*
X017901Y014481D02*
X017395Y014481D01*
X017436Y014383D02*
X017901Y014383D01*
X017901Y014284D02*
X017450Y014284D01*
X017450Y014186D02*
X017901Y014186D01*
X017901Y014087D02*
X017424Y014087D01*
X017383Y013989D02*
X017901Y013989D01*
X017901Y013693D02*
X016900Y013693D01*
X016900Y013750D02*
X017049Y013750D01*
X017233Y013826D01*
X016900Y013750D02*
X016900Y013181D01*
X016951Y013181D01*
X017027Y013105D01*
X017027Y012564D01*
X016973Y012511D01*
X016989Y012502D01*
X017017Y012474D01*
X017037Y012440D01*
X017047Y012402D01*
X017047Y012214D01*
X016748Y012214D01*
X016748Y012117D01*
X016748Y012019D02*
X016652Y012019D01*
X016652Y011920D02*
X016748Y011920D01*
X016701Y011822D02*
X016652Y011822D01*
X016603Y011723D02*
X016178Y011723D01*
X016139Y011625D02*
X016504Y011625D01*
X016406Y011526D02*
X015410Y011526D01*
X015440Y011580D02*
X015440Y012230D01*
X015770Y012230D01*
X015812Y012200D01*
X015810Y012200D01*
X015808Y012216D02*
X015816Y012216D01*
X015808Y012314D02*
X015816Y012314D01*
X015820Y012570D02*
X015812Y012574D01*
X015820Y012570D02*
X016180Y012570D01*
X016180Y012030D01*
X015980Y011830D01*
X015820Y011830D01*
X015812Y011826D01*
X015808Y012117D02*
X015816Y012117D01*
X015445Y012019D02*
X015124Y012019D01*
X015154Y011920D02*
X015446Y011920D01*
X015446Y011822D02*
X015154Y011822D01*
X015154Y011723D02*
X015446Y011723D01*
X015485Y011625D02*
X015353Y011625D01*
X015420Y011428D02*
X015796Y011428D01*
X015622Y011329D02*
X015391Y011329D01*
X015308Y011231D02*
X015525Y011231D01*
X015484Y011132D02*
X014281Y011132D01*
X014281Y011034D02*
X015450Y011034D01*
X015450Y010935D02*
X015013Y010935D01*
X015087Y010837D02*
X015456Y010837D01*
X015497Y010738D02*
X015110Y010738D01*
X015136Y010640D02*
X015233Y010640D01*
X015233Y010541D02*
X015136Y010541D01*
X015136Y010443D02*
X015233Y010443D01*
X015521Y010640D02*
X015553Y010640D01*
X015551Y010541D02*
X015652Y010541D01*
X015551Y010443D02*
X016260Y010443D01*
X016481Y010246D02*
X015551Y010246D01*
X015551Y010147D02*
X016382Y010147D01*
X016284Y010049D02*
X015509Y010049D01*
X014850Y010730D02*
X014515Y010395D01*
X014515Y010350D01*
X014169Y010344D02*
X014100Y010344D01*
X014100Y010246D02*
X014169Y010246D01*
X014169Y010147D02*
X014100Y010147D01*
X014100Y010049D02*
X014220Y010049D01*
X014169Y010443D02*
X014100Y010443D01*
X014100Y010541D02*
X014169Y010541D01*
X014208Y010640D02*
X014100Y010640D01*
X014270Y010738D02*
X014590Y010738D01*
X014613Y010837D02*
X014281Y010837D01*
X014281Y010935D02*
X014687Y010935D01*
X014850Y010730D02*
X014810Y010690D01*
X014818Y011231D02*
X015012Y011231D01*
X014929Y011329D02*
X014890Y011329D01*
X014482Y011231D02*
X014281Y011231D01*
X014261Y011329D02*
X014410Y011329D01*
X014390Y011428D02*
X014281Y011428D01*
X014281Y011526D02*
X014314Y011526D01*
X014624Y012117D02*
X015426Y012117D01*
X015426Y012216D02*
X014572Y012216D01*
X015154Y012413D02*
X015446Y012413D01*
X015440Y012340D02*
X015440Y012230D01*
X015446Y012511D02*
X015154Y012511D01*
X015154Y012610D02*
X015446Y012610D01*
X015307Y012708D02*
X015154Y012708D01*
X015209Y012807D02*
X015084Y012807D01*
X015063Y012905D02*
X014957Y012905D01*
X014957Y013004D02*
X014989Y013004D01*
X014989Y013102D02*
X014957Y013102D01*
X014957Y013201D02*
X014989Y013201D01*
X014989Y013299D02*
X014931Y013299D01*
X014901Y013398D02*
X014989Y013398D01*
X014986Y013496D02*
X014937Y013496D01*
X014904Y013890D02*
X015012Y013890D01*
X014396Y013890D02*
X013747Y013890D01*
X013600Y013792D02*
X014363Y013792D01*
X014363Y013693D02*
X013637Y013693D01*
X013763Y013595D02*
X014241Y013595D01*
X014109Y013496D02*
X013839Y013496D01*
X013880Y013398D02*
X014070Y013398D01*
X014070Y013299D02*
X013900Y013299D01*
X013900Y013201D02*
X014112Y013201D01*
X014249Y013102D02*
X013880Y013102D01*
X013839Y013004D02*
X014343Y013004D01*
X014343Y012905D02*
X013762Y012905D01*
X013636Y012807D02*
X014372Y012807D01*
X014080Y012920D02*
X014080Y012690D01*
X013930Y012540D01*
X013400Y012540D01*
X013270Y012410D01*
X013270Y012150D01*
X013265Y012150D01*
X013217Y012216D02*
X013314Y012216D01*
X013314Y012314D02*
X013217Y012314D01*
X013217Y012413D02*
X013314Y012413D01*
X012914Y012413D02*
X012727Y012413D01*
X012740Y012314D02*
X012899Y012314D01*
X012719Y012216D02*
X012714Y012216D01*
X012036Y012807D02*
X011564Y012807D01*
X011662Y012905D02*
X011938Y012905D01*
X011839Y013004D02*
X011761Y013004D01*
X011800Y013102D02*
X011800Y013102D01*
X011800Y013201D02*
X011800Y013201D01*
X011800Y013299D02*
X011800Y013299D01*
X011800Y013398D02*
X011800Y013398D01*
X011761Y013496D02*
X011839Y013496D01*
X011051Y013792D02*
X010999Y013792D01*
X010814Y013496D02*
X010761Y013496D01*
X010800Y013398D02*
X010800Y013398D01*
X010800Y013299D02*
X010800Y013299D01*
X010800Y013201D02*
X010800Y013201D01*
X010800Y013102D02*
X010800Y013102D01*
X010761Y013004D02*
X010839Y013004D01*
X010938Y012905D02*
X010662Y012905D01*
X010931Y012117D02*
X010983Y012117D01*
X010931Y012019D02*
X011049Y012019D01*
X011049Y011822D02*
X010931Y011822D01*
X010931Y011723D02*
X011052Y011723D01*
X011070Y011625D02*
X010885Y011625D01*
X011367Y011625D02*
X011464Y011625D01*
X011464Y011723D02*
X011367Y011723D01*
X011367Y011822D02*
X011464Y011822D01*
X011464Y011526D02*
X011367Y011526D01*
X011367Y011428D02*
X011464Y011428D01*
X009895Y010640D02*
X009629Y010640D01*
X008999Y010443D02*
X008902Y010443D01*
X008150Y009790D02*
X008150Y009310D01*
X008070Y009310D01*
X008150Y009310D02*
X008150Y009040D01*
X008140Y009030D01*
X007890Y009030D01*
X007881Y009034D01*
X006218Y008267D02*
X006220Y008260D01*
X006220Y007990D01*
X003785Y007150D02*
X003785Y006500D01*
X003040Y005720D02*
X003050Y005710D01*
X003050Y005110D01*
X002750Y004810D01*
X002211Y004810D01*
X004040Y004810D02*
X004040Y004210D01*
X004210Y004040D01*
X004500Y004040D01*
X004509Y004042D01*
X004560Y004040D01*
X004600Y004040D01*
X004600Y003770D01*
X004920Y004700D02*
X004810Y004810D01*
X004509Y004810D01*
X004040Y004810D01*
X004040Y005310D01*
X004060Y005330D01*
X004060Y005430D01*
X004210Y005580D01*
X004500Y005580D01*
X004509Y005578D01*
X005920Y005210D02*
X006360Y005210D01*
X006368Y005217D01*
X007580Y005870D02*
X007690Y005980D01*
X008030Y005980D01*
X008031Y005984D01*
X008080Y005980D01*
X008310Y005980D01*
X008570Y006240D01*
X010130Y005310D02*
X010240Y005310D01*
X010550Y005620D01*
X010550Y005640D01*
X010740Y005830D01*
X010750Y005832D01*
X011598Y006010D02*
X011770Y006010D01*
X012235Y005665D02*
X012480Y005910D01*
X012480Y006050D01*
X012480Y007230D01*
X013070Y007820D01*
X013272Y007820D01*
X013260Y007792D01*
X013260Y007688D01*
X013300Y007593D01*
X013350Y007542D01*
X013350Y006270D01*
X013388Y006232D01*
X013310Y006154D01*
X013291Y006149D01*
X013256Y006129D01*
X013205Y006077D01*
X013153Y006026D01*
X013134Y005992D01*
X013129Y005973D01*
X013110Y005954D01*
X013110Y006162D01*
X013150Y006203D01*
X013190Y006298D01*
X013190Y006402D01*
X013150Y006497D01*
X013077Y006570D01*
X012982Y006610D01*
X012878Y006610D01*
X012783Y006570D01*
X012710Y006497D01*
X012670Y006402D01*
X012670Y006298D01*
X012710Y006203D01*
X012750Y006162D01*
X012750Y005758D01*
X012737Y005770D01*
X012642Y005810D01*
X012538Y005810D01*
X012443Y005770D01*
X012370Y005697D01*
X012335Y005613D01*
X012317Y005630D01*
X012235Y005665D01*
X012285Y005715D02*
X012387Y005715D01*
X012383Y005813D02*
X012750Y005813D01*
X012750Y005912D02*
X012480Y005912D01*
X012480Y006010D02*
X012750Y006010D01*
X012750Y006109D02*
X012480Y006109D01*
X012480Y006207D02*
X012708Y006207D01*
X012670Y006306D02*
X012480Y006306D01*
X012480Y006404D02*
X012671Y006404D01*
X012715Y006503D02*
X012480Y006503D01*
X012480Y006601D02*
X012857Y006601D01*
X013003Y006601D02*
X013350Y006601D01*
X013350Y006503D02*
X013145Y006503D01*
X013189Y006404D02*
X013350Y006404D01*
X013350Y006306D02*
X013190Y006306D01*
X013190Y006290D02*
X013270Y006290D01*
X013190Y006290D02*
X013190Y006100D01*
X013420Y005870D01*
X013450Y005832D01*
X013443Y005825D01*
X013450Y005832D01*
X013450Y005832D01*
X013557Y005725D01*
X013557Y005725D01*
X013450Y005832D01*
X013450Y005832D01*
X013205Y006077D01*
X013450Y005832D01*
X013450Y005832D01*
X013450Y005830D01*
X013450Y005832D02*
X013454Y005836D01*
X013454Y005836D01*
X013450Y005832D01*
X013450Y005832D01*
X013443Y005825D02*
X013443Y005825D01*
X013469Y005813D02*
X013469Y005813D01*
X013371Y005912D02*
X013371Y005912D01*
X013272Y006010D02*
X013272Y006010D01*
X013236Y006109D02*
X013110Y006109D01*
X013110Y006010D02*
X013144Y006010D01*
X013152Y006207D02*
X013363Y006207D01*
X013190Y006290D02*
X013190Y006780D01*
X012670Y007300D01*
X012639Y007389D02*
X013350Y007389D01*
X013350Y007291D02*
X012541Y007291D01*
X012480Y007192D02*
X013350Y007192D01*
X013350Y007094D02*
X012480Y007094D01*
X012480Y006995D02*
X013350Y006995D01*
X013350Y006897D02*
X012480Y006897D01*
X012480Y006798D02*
X013350Y006798D01*
X013350Y006700D02*
X012480Y006700D01*
X012930Y006350D02*
X012930Y005790D01*
X013160Y005560D01*
X013170Y005560D01*
X013172Y005554D01*
X013130Y005050D02*
X013130Y005008D01*
X013170Y004913D01*
X013243Y004840D01*
X013338Y004800D01*
X013442Y004800D01*
X013537Y004840D01*
X013610Y004913D01*
X013650Y005008D01*
X013650Y005090D01*
X014590Y004150D01*
X014590Y003708D01*
X014562Y003720D01*
X014458Y003720D01*
X014363Y003680D01*
X014290Y003607D01*
X014250Y003512D01*
X014250Y003408D01*
X014290Y003313D01*
X014340Y003262D01*
X014340Y001433D01*
X014299Y001450D01*
X014101Y001450D01*
X013917Y001374D01*
X013776Y001233D01*
X013700Y001049D01*
X013700Y000851D01*
X013700Y001049D01*
X013624Y001233D01*
X013483Y001374D01*
X013299Y001450D01*
X013101Y001450D01*
X012987Y001403D01*
X012480Y001910D01*
X012480Y004873D01*
X012663Y004690D01*
X012770Y004690D01*
X012910Y004829D01*
X013049Y004969D01*
X013130Y005050D01*
X013130Y005025D02*
X013105Y005025D01*
X013164Y004927D02*
X013007Y004927D01*
X012908Y004828D02*
X013271Y004828D01*
X013509Y004828D02*
X013912Y004828D01*
X014010Y004730D02*
X012810Y004730D01*
X012624Y004730D02*
X012480Y004730D01*
X012480Y004828D02*
X012525Y004828D01*
X012480Y004631D02*
X014109Y004631D01*
X014207Y004533D02*
X012480Y004533D01*
X012480Y004434D02*
X014306Y004434D01*
X014404Y004336D02*
X012480Y004336D01*
X012480Y004237D02*
X014503Y004237D01*
X014590Y004139D02*
X012480Y004139D01*
X012480Y004040D02*
X014590Y004040D01*
X014590Y003942D02*
X012480Y003942D01*
X012480Y003843D02*
X014590Y003843D01*
X014590Y003745D02*
X012480Y003745D01*
X012480Y003646D02*
X014328Y003646D01*
X014265Y003548D02*
X012480Y003548D01*
X012480Y003449D02*
X014250Y003449D01*
X014274Y003351D02*
X012480Y003351D01*
X012480Y003252D02*
X014340Y003252D01*
X014340Y003154D02*
X012480Y003154D01*
X012480Y003055D02*
X014340Y003055D01*
X014340Y002957D02*
X012480Y002957D01*
X012480Y002858D02*
X014340Y002858D01*
X014340Y002760D02*
X012480Y002760D01*
X012480Y002661D02*
X014340Y002661D01*
X014340Y002563D02*
X012480Y002563D01*
X012480Y002464D02*
X014340Y002464D01*
X014340Y002366D02*
X012480Y002366D01*
X012480Y002267D02*
X014340Y002267D01*
X014340Y002169D02*
X012480Y002169D01*
X012480Y002070D02*
X014340Y002070D01*
X014340Y001972D02*
X012480Y001972D01*
X012517Y001873D02*
X014340Y001873D01*
X014340Y001775D02*
X012616Y001775D01*
X012714Y001676D02*
X014340Y001676D01*
X014340Y001578D02*
X012813Y001578D01*
X012911Y001479D02*
X014340Y001479D01*
X014680Y001479D02*
X016031Y001479D01*
X015933Y001381D02*
X015467Y001381D01*
X015575Y001282D02*
X015825Y001282D01*
X015756Y001184D02*
X015644Y001184D01*
X015685Y001085D02*
X015715Y001085D01*
X015700Y000987D02*
X015700Y000987D01*
X015700Y000888D02*
X015700Y000888D01*
X015675Y000790D02*
X015725Y000790D01*
X015766Y000691D02*
X015634Y000691D01*
X015550Y000593D02*
X015850Y000593D01*
X015994Y000494D02*
X015406Y000494D01*
X014994Y000494D02*
X014406Y000494D01*
X014550Y000593D02*
X014850Y000593D01*
X014766Y000691D02*
X014634Y000691D01*
X014675Y000790D02*
X014725Y000790D01*
X014700Y000888D02*
X014700Y000888D01*
X014700Y000987D02*
X014700Y000987D01*
X014685Y001085D02*
X014715Y001085D01*
X014674Y001184D02*
X014756Y001184D01*
X014825Y001282D02*
X014680Y001282D01*
X014680Y001381D02*
X014933Y001381D01*
X014680Y001578D02*
X015865Y001578D01*
X015772Y001676D02*
X014680Y001676D01*
X014680Y001775D02*
X015731Y001775D01*
X015700Y001873D02*
X014680Y001873D01*
X014680Y001972D02*
X015700Y001972D01*
X015709Y002070D02*
X014680Y002070D01*
X014680Y002169D02*
X015741Y002169D01*
X015643Y002267D02*
X014680Y002267D01*
X014680Y002366D02*
X015544Y002366D01*
X015446Y002464D02*
X014680Y002464D01*
X014680Y002563D02*
X015347Y002563D01*
X015249Y002661D02*
X014680Y002661D01*
X014680Y002760D02*
X015150Y002760D01*
X015052Y002858D02*
X014680Y002858D01*
X014680Y002957D02*
X014953Y002957D01*
X014855Y003055D02*
X014680Y003055D01*
X014680Y003154D02*
X014756Y003154D01*
X016500Y003150D02*
X016500Y003200D01*
X016895Y003595D01*
X016950Y003540D01*
X016895Y003595D02*
X018120Y004820D01*
X018120Y004890D01*
X018150Y004930D01*
X019130Y004930D01*
X019230Y004830D01*
X019230Y004550D01*
X019235Y004550D01*
X018908Y004533D02*
X018892Y004533D01*
X018892Y004631D02*
X018908Y004631D01*
X018908Y004730D02*
X018892Y004730D01*
X018892Y004434D02*
X018908Y004434D01*
X018908Y004336D02*
X018892Y004336D01*
X018850Y004237D02*
X018950Y004237D01*
X018730Y004139D02*
X019240Y004139D01*
X019142Y004040D02*
X018730Y004040D01*
X018730Y003942D02*
X019091Y003942D01*
X019060Y003843D02*
X018730Y003843D01*
X018730Y003745D02*
X019060Y003745D01*
X019060Y003646D02*
X018730Y003646D01*
X018730Y003548D02*
X019060Y003548D01*
X019060Y003449D02*
X018730Y003449D01*
X018730Y003351D02*
X019060Y003351D01*
X019060Y003252D02*
X018730Y003252D01*
X018730Y003154D02*
X019060Y003154D01*
X019076Y003055D02*
X018730Y003055D01*
X018730Y002957D02*
X019117Y002957D01*
X019204Y002858D02*
X018730Y002858D01*
X018730Y002760D02*
X019382Y002760D01*
X019598Y002760D02*
X019950Y002760D01*
X019950Y002858D02*
X019776Y002858D01*
X019863Y002957D02*
X019950Y002957D01*
X019950Y003055D02*
X019904Y003055D01*
X019920Y003154D02*
X019950Y003154D01*
X019950Y003252D02*
X019920Y003252D01*
X019920Y003351D02*
X019950Y003351D01*
X019950Y003449D02*
X019920Y003449D01*
X019920Y003548D02*
X019950Y003548D01*
X019950Y003646D02*
X019920Y003646D01*
X019920Y003745D02*
X019950Y003745D01*
X019950Y003843D02*
X019920Y003843D01*
X019889Y003942D02*
X019950Y003942D01*
X019950Y004040D02*
X019838Y004040D01*
X019740Y004139D02*
X019950Y004139D01*
X019950Y004237D02*
X019519Y004237D01*
X019561Y004336D02*
X019950Y004336D01*
X019950Y004434D02*
X019561Y004434D01*
X019561Y004533D02*
X019950Y004533D01*
X019950Y004631D02*
X019561Y004631D01*
X019561Y004730D02*
X019950Y004730D01*
X019950Y004828D02*
X019554Y004828D01*
X019388Y004927D02*
X019950Y004927D01*
X019950Y005025D02*
X019290Y005025D01*
X019950Y005124D02*
X018324Y005124D01*
X017976Y005124D02*
X017920Y005124D01*
X017920Y005222D02*
X019950Y005222D01*
X019950Y005321D02*
X017920Y005321D01*
X017920Y005419D02*
X019950Y005419D01*
X019950Y005518D02*
X017920Y005518D01*
X017920Y005616D02*
X019950Y005616D01*
X016780Y005440D02*
X016780Y004430D01*
X016500Y004150D01*
X015190Y004880D02*
X014820Y004880D01*
X014090Y005610D01*
X014090Y005820D01*
X014060Y005860D01*
X014060Y006040D01*
X015045Y006040D01*
X015100Y005985D01*
X014773Y005860D02*
X014773Y005714D01*
X014827Y005661D01*
X014811Y005652D01*
X014783Y005624D01*
X014763Y005590D01*
X014753Y005552D01*
X014753Y005364D01*
X015052Y005364D01*
X015052Y005267D01*
X014753Y005267D01*
X014753Y005201D01*
X014270Y005685D01*
X014270Y005702D01*
X014280Y005713D01*
X014320Y005808D01*
X014320Y005860D01*
X014773Y005860D01*
X014773Y005813D02*
X014320Y005813D01*
X014281Y005715D02*
X014773Y005715D01*
X014779Y005616D02*
X014339Y005616D01*
X014437Y005518D02*
X014753Y005518D01*
X014753Y005419D02*
X014536Y005419D01*
X014634Y005321D02*
X015052Y005321D01*
X015100Y005320D02*
X015100Y005315D01*
X015100Y005320D02*
X014970Y005320D01*
X014480Y005810D01*
X014060Y006040D02*
X014060Y006060D01*
X013870Y006250D01*
X013868Y006250D01*
X014733Y005222D02*
X014753Y005222D01*
X013813Y004927D02*
X013616Y004927D01*
X013650Y005025D02*
X013715Y005025D01*
X012336Y005616D02*
X012332Y005616D01*
X011925Y005025D02*
X011872Y005025D01*
X011773Y004927D02*
X012023Y004927D01*
X012122Y004828D02*
X011675Y004828D01*
X011576Y004730D02*
X012140Y004730D01*
X012140Y004631D02*
X011459Y004631D01*
X011361Y004533D02*
X012140Y004533D01*
X011776Y004434D02*
X011270Y004434D01*
X011244Y004336D02*
X011720Y004336D01*
X011710Y004237D02*
X011165Y004237D01*
X010860Y004139D02*
X011739Y004139D01*
X011800Y004040D02*
X010860Y004040D01*
X010860Y003942D02*
X011800Y003942D01*
X011800Y003843D02*
X010860Y003843D01*
X010860Y003745D02*
X011800Y003745D01*
X011800Y003646D02*
X010860Y003646D01*
X010860Y003548D02*
X011800Y003548D01*
X011800Y003449D02*
X010860Y003449D01*
X010860Y003351D02*
X011800Y003351D01*
X011800Y003252D02*
X010860Y003252D01*
X010860Y003154D02*
X011800Y003154D01*
X011800Y003055D02*
X010860Y003055D01*
X010860Y002957D02*
X011800Y002957D01*
X011800Y002858D02*
X010860Y002858D01*
X010860Y002760D02*
X011800Y002760D01*
X011800Y002661D02*
X010860Y002661D01*
X010860Y002563D02*
X011800Y002563D01*
X011800Y002464D02*
X010860Y002464D01*
X010860Y002366D02*
X011800Y002366D01*
X011800Y002267D02*
X010860Y002267D01*
X010860Y002169D02*
X011800Y002169D01*
X011800Y002070D02*
X010860Y002070D01*
X010860Y001972D02*
X011800Y001972D01*
X011800Y001873D02*
X010860Y001873D01*
X010860Y001775D02*
X011800Y001775D01*
X011800Y001676D02*
X010860Y001676D01*
X010860Y001578D02*
X011800Y001578D01*
X011800Y001479D02*
X010860Y001479D01*
X010860Y001381D02*
X010933Y001381D01*
X011467Y001381D02*
X011800Y001381D01*
X011800Y001282D02*
X011575Y001282D01*
X011644Y001184D02*
X011756Y001184D01*
X011715Y001085D02*
X011685Y001085D01*
X011700Y000987D02*
X011700Y000987D01*
X011700Y000888D02*
X011700Y000888D01*
X011675Y000790D02*
X011725Y000790D01*
X011766Y000691D02*
X011634Y000691D01*
X011550Y000593D02*
X011850Y000593D01*
X011994Y000494D02*
X011406Y000494D01*
X010994Y000494D02*
X010684Y000494D01*
X010586Y000396D02*
X017338Y000396D01*
X017297Y000494D02*
X016406Y000494D01*
X016550Y000593D02*
X017280Y000593D01*
X017280Y000691D02*
X016634Y000691D01*
X016675Y000790D02*
X017130Y000790D01*
X017032Y000888D02*
X016700Y000888D01*
X016700Y000987D02*
X016933Y000987D01*
X016835Y001085D02*
X016685Y001085D01*
X016644Y001184D02*
X016736Y001184D01*
X016638Y001282D02*
X016575Y001282D01*
X016539Y001381D02*
X016467Y001381D01*
X016441Y001479D02*
X016369Y001479D01*
X017425Y000297D02*
X010487Y000297D01*
X010783Y000593D02*
X010850Y000593D01*
X012140Y001450D02*
X012140Y004062D01*
X012140Y004062D01*
X012140Y001770D01*
X012240Y001670D01*
X012747Y001163D01*
X012700Y001049D01*
X012700Y000851D01*
X012700Y001049D01*
X012624Y001233D01*
X012483Y001374D01*
X012299Y001450D01*
X012140Y001450D01*
X012140Y001479D02*
X012431Y001479D01*
X012467Y001381D02*
X012529Y001381D01*
X012575Y001282D02*
X012628Y001282D01*
X012644Y001184D02*
X012726Y001184D01*
X012715Y001085D02*
X012685Y001085D01*
X012700Y000987D02*
X012700Y000987D01*
X012700Y000888D02*
X012700Y000888D01*
X012675Y000790D02*
X012725Y000790D01*
X012766Y000691D02*
X012634Y000691D01*
X012550Y000593D02*
X012850Y000593D01*
X012994Y000494D02*
X012406Y000494D01*
X013406Y000494D02*
X013994Y000494D01*
X013850Y000593D02*
X013550Y000593D01*
X013634Y000691D02*
X013766Y000691D01*
X013725Y000790D02*
X013675Y000790D01*
X013700Y000888D02*
X013700Y000888D01*
X013700Y000987D02*
X013700Y000987D01*
X013685Y001085D02*
X013715Y001085D01*
X013756Y001184D02*
X013644Y001184D01*
X013575Y001282D02*
X013825Y001282D01*
X013933Y001381D02*
X013467Y001381D01*
X012332Y001578D02*
X012140Y001578D01*
X012140Y001676D02*
X012234Y001676D01*
X012140Y001775D02*
X012140Y001775D01*
X012140Y001873D02*
X012140Y001873D01*
X012140Y001972D02*
X012140Y001972D01*
X012140Y002070D02*
X012140Y002070D01*
X012140Y002169D02*
X012140Y002169D01*
X012140Y002267D02*
X012140Y002267D01*
X012140Y002366D02*
X012140Y002366D01*
X012140Y002464D02*
X012140Y002464D01*
X012140Y002563D02*
X012140Y002563D01*
X012140Y002661D02*
X012140Y002661D01*
X012140Y002760D02*
X012140Y002760D01*
X012140Y002858D02*
X012140Y002858D01*
X012140Y002957D02*
X012140Y002957D01*
X012140Y003055D02*
X012140Y003055D01*
X012140Y003154D02*
X012140Y003154D01*
X012140Y003252D02*
X012140Y003252D01*
X012140Y003351D02*
X012140Y003351D01*
X012140Y003449D02*
X012140Y003449D01*
X012140Y003548D02*
X012140Y003548D01*
X012140Y003646D02*
X012140Y003646D01*
X012140Y003745D02*
X012140Y003745D01*
X012140Y003843D02*
X012140Y003843D01*
X012140Y003942D02*
X012140Y003942D01*
X012140Y004040D02*
X012140Y004040D01*
X009949Y005124D02*
X009936Y005124D01*
X009364Y005124D02*
X009297Y005124D01*
X009309Y005025D02*
X009232Y005025D01*
X009303Y004927D02*
X009134Y004927D01*
X009303Y004631D02*
X008859Y004631D01*
X008958Y004533D02*
X009303Y004533D01*
X009124Y004434D02*
X009056Y004434D01*
X009090Y004400D02*
X009090Y004400D01*
X009309Y004139D02*
X009314Y004139D01*
X008750Y003920D02*
X008750Y003510D01*
X008720Y003480D01*
X008040Y003480D01*
X008031Y003484D01*
X008750Y003510D02*
X009440Y002820D01*
X009440Y002020D01*
X009310Y001890D01*
X008690Y001890D01*
X007830Y001030D01*
X007830Y000990D01*
X007800Y000950D01*
X005600Y000950D01*
X004600Y000950D01*
X003600Y000950D01*
X002600Y000950D01*
X001600Y000950D01*
X005920Y002790D02*
X005990Y002720D01*
X006310Y002720D01*
X006368Y002717D01*
X006420Y002720D01*
X006600Y002720D01*
X007150Y003270D01*
X006368Y002717D02*
X006360Y002720D01*
X007970Y004710D02*
X008720Y003960D01*
X008750Y003920D01*
X007970Y004710D02*
X007970Y004740D01*
X012738Y007488D02*
X013350Y007488D01*
X013306Y007586D02*
X012836Y007586D01*
X012935Y007685D02*
X013262Y007685D01*
X013260Y007783D02*
X013033Y007783D01*
X011935Y008965D02*
X010809Y008965D01*
X010904Y008867D02*
X011836Y008867D01*
X012033Y009064D02*
X010908Y009064D01*
X011006Y009162D02*
X012132Y009162D01*
X012230Y009261D02*
X011105Y009261D01*
X011203Y009359D02*
X012320Y009359D01*
X012335Y009458D02*
X011302Y009458D01*
X011400Y009556D02*
X012398Y009556D01*
X012345Y009655D02*
X011527Y009655D01*
X011478Y009753D02*
X011478Y009753D01*
X011616Y009753D02*
X012171Y009753D01*
X012021Y009852D02*
X011696Y009852D01*
X011794Y009950D02*
X011973Y009950D01*
X011380Y009852D02*
X011380Y009852D01*
X010190Y008820D02*
X010193Y008811D01*
X010190Y008820D02*
X010180Y008830D01*
X010170Y008830D01*
X009830Y009170D01*
X009859Y008867D02*
X009859Y008867D01*
X009958Y008768D02*
X009958Y008768D01*
X010054Y008672D02*
X010044Y008662D01*
X010044Y008662D01*
X010054Y008672D01*
X010060Y008670D01*
X010056Y008670D02*
X010056Y008670D01*
X010054Y008672D02*
X010054Y008672D01*
X010052Y008670D02*
X010052Y008670D01*
X010059Y008677D02*
X010059Y008677D01*
X010155Y008571D02*
X010155Y008571D01*
X010415Y008571D02*
X010660Y008571D01*
X010620Y008670D02*
X010514Y008670D01*
X010488Y008643D02*
X010488Y008643D01*
X008460Y011530D02*
X008460Y012310D01*
X008790Y012640D01*
X008505Y012610D02*
X008220Y012610D01*
X008220Y012511D02*
X008406Y012511D01*
X008308Y012413D02*
X008220Y012413D01*
X008220Y012314D02*
X008280Y012314D01*
X008280Y012216D02*
X008220Y012216D01*
X008220Y012117D02*
X008280Y012117D01*
X008280Y012019D02*
X008220Y012019D01*
X008220Y011920D02*
X008280Y011920D01*
X008280Y011822D02*
X008220Y011822D01*
X008220Y011723D02*
X008280Y011723D01*
X013886Y014383D02*
X015446Y014383D01*
X015484Y014481D02*
X013845Y014481D01*
X015900Y014186D02*
X016000Y014186D01*
X016000Y014087D02*
X015900Y014087D01*
X015900Y013989D02*
X016000Y013989D01*
X016000Y013890D02*
X015900Y013890D01*
X015900Y013792D02*
X016000Y013792D01*
X015905Y013693D02*
X016270Y013693D01*
X016270Y013595D02*
X016237Y013595D01*
X016270Y013792D02*
X016196Y013792D01*
X016900Y013595D02*
X017910Y013595D01*
X017896Y013496D02*
X016900Y013496D01*
X016900Y013398D02*
X017881Y013398D01*
X017881Y013299D02*
X016900Y013299D01*
X016900Y013201D02*
X017901Y013201D01*
X017901Y013102D02*
X017027Y013102D01*
X017027Y013004D02*
X017673Y013004D01*
X017575Y012905D02*
X017027Y012905D01*
X017027Y012807D02*
X017476Y012807D01*
X017400Y012708D02*
X017027Y012708D01*
X017027Y012610D02*
X017400Y012610D01*
X017400Y012520D02*
X016997Y012117D01*
X017047Y012216D02*
X017095Y012216D01*
X017047Y012314D02*
X017194Y012314D01*
X017292Y012413D02*
X017044Y012413D01*
X016974Y012511D02*
X017391Y012511D01*
X016390Y012570D02*
X016180Y012570D01*
X016325Y011920D02*
X016356Y011920D01*
X016424Y011822D02*
X016226Y011822D01*
X016307Y011428D02*
X016104Y011428D01*
X016278Y011329D02*
X016280Y011329D01*
X016950Y010950D02*
X016950Y010460D01*
X014650Y013050D02*
X014650Y013055D01*
X016561Y014580D02*
X016572Y014580D01*
X016677Y014678D02*
X016462Y014678D01*
X016364Y014777D02*
X018846Y014777D01*
X018888Y014875D02*
X016265Y014875D01*
X019812Y014875D02*
X019950Y014875D01*
X019950Y014777D02*
X019854Y014777D01*
X019854Y014678D02*
X019950Y014678D01*
X019950Y014580D02*
X019854Y014580D01*
X019854Y014481D02*
X019950Y014481D01*
X019950Y014383D02*
X019854Y014383D01*
X019854Y014284D02*
X019950Y014284D01*
X019950Y014186D02*
X019854Y014186D01*
X019854Y014087D02*
X019950Y014087D01*
X019950Y013989D02*
X019826Y013989D01*
X019950Y002661D02*
X018730Y002661D01*
X018730Y002563D02*
X019950Y002563D01*
X019950Y002464D02*
X018730Y002464D01*
X018730Y002366D02*
X019950Y002366D01*
X019950Y002267D02*
X018730Y002267D01*
X018730Y002169D02*
X019950Y002169D01*
X019950Y002070D02*
X018730Y002070D01*
X018730Y001972D02*
X019950Y001972D01*
X019950Y001873D02*
X018730Y001873D01*
X018730Y001775D02*
X019950Y001775D01*
X019950Y001676D02*
X018706Y001676D01*
X018608Y001578D02*
X019216Y001578D01*
X019122Y001479D02*
X018509Y001479D01*
X018411Y001381D02*
X019069Y001381D01*
X019044Y001282D02*
X018312Y001282D01*
X018214Y001184D02*
X019040Y001184D01*
X019040Y001085D02*
X018140Y001085D01*
X018140Y000987D02*
X019040Y000987D01*
X019040Y000790D02*
X018140Y000790D01*
X018140Y000888D02*
X019440Y000888D01*
X019440Y000987D02*
X019540Y000987D01*
X019540Y000970D02*
X019540Y001668D01*
X019595Y001659D01*
X019663Y001637D01*
X019726Y001605D01*
X019783Y001563D01*
X019833Y001513D01*
X019875Y001456D01*
X019907Y001393D01*
X019929Y001325D01*
X019940Y001255D01*
X019940Y000970D01*
X019540Y000970D01*
X019540Y000888D02*
X019950Y000888D01*
X019940Y000790D02*
X019950Y000790D01*
X019940Y000691D02*
X019950Y000691D01*
X019940Y000593D02*
X019950Y000593D01*
X019950Y000494D02*
X019922Y000494D01*
X019950Y000396D02*
X019881Y000396D01*
X019950Y000297D02*
X019803Y000297D01*
X019177Y000297D02*
X017995Y000297D01*
X018082Y000396D02*
X019099Y000396D01*
X019058Y000494D02*
X018123Y000494D01*
X018140Y000593D02*
X019040Y000593D01*
X019040Y000691D02*
X018140Y000691D01*
X019440Y001085D02*
X019540Y001085D01*
X019540Y001184D02*
X019440Y001184D01*
X019440Y001282D02*
X019540Y001282D01*
X019540Y001381D02*
X019440Y001381D01*
X019440Y001479D02*
X019540Y001479D01*
X019540Y001578D02*
X019440Y001578D01*
X019764Y001578D02*
X019950Y001578D01*
X019950Y001479D02*
X019858Y001479D01*
X019911Y001381D02*
X019950Y001381D01*
X019936Y001282D02*
X019950Y001282D01*
X019940Y001184D02*
X019950Y001184D01*
X019940Y001085D02*
X019950Y001085D01*
X019940Y000987D02*
X019950Y000987D01*
X009213Y000297D02*
X008220Y000297D01*
X009006Y000494D02*
X009016Y000494D01*
D26*
X010470Y001680D03*
X009090Y003900D03*
X008750Y003920D03*
X009490Y004330D03*
X009240Y004810D03*
X010130Y005310D03*
X010390Y004780D03*
X010810Y005060D03*
X011010Y004450D03*
X011970Y004260D03*
X012170Y005410D03*
X012590Y005550D03*
X013390Y005060D03*
X013770Y005570D03*
X014060Y005860D03*
X014480Y005810D03*
X015710Y006290D03*
X015870Y005770D03*
X016810Y005960D03*
X016520Y006460D03*
X017750Y005960D03*
X016780Y005440D03*
X018150Y004930D03*
X016950Y003540D03*
X015600Y003920D03*
X015350Y003680D03*
X015010Y003900D03*
X014510Y003460D03*
X015460Y003050D03*
X015190Y004880D03*
X013270Y006290D03*
X012930Y006350D03*
X013770Y006900D03*
X012670Y007300D03*
X012030Y007610D03*
X011720Y007790D03*
X011620Y008410D03*
X011480Y008750D03*
X010580Y008500D03*
X010190Y009390D03*
X010250Y009730D03*
X009840Y009840D03*
X010470Y010280D03*
X010810Y010140D03*
X012230Y010010D03*
X012480Y010450D03*
X013090Y010590D03*
X013520Y010240D03*
X013520Y009880D03*
X012920Y009280D03*
X012580Y009370D03*
X013810Y008420D03*
X014250Y007940D03*
X014500Y007700D03*
X014840Y007600D03*
X015460Y007600D03*
X015280Y008140D03*
X013520Y007740D03*
X011440Y005800D03*
X009990Y005810D03*
X008570Y006240D03*
X007950Y006730D03*
X007560Y006210D03*
X007580Y005870D03*
X007330Y005360D03*
X006820Y005910D03*
X005920Y005210D03*
X006380Y004780D03*
X006380Y004000D03*
X007150Y003270D03*
X007500Y002740D03*
X005920Y002790D03*
X004600Y003770D03*
X004920Y004700D03*
X004920Y005060D03*
X004060Y005330D03*
X004040Y004810D03*
X003040Y005720D03*
X002580Y006750D03*
X002760Y008660D03*
X002960Y009860D03*
X002990Y010200D03*
X003860Y010060D03*
X004050Y010730D03*
X004870Y011160D03*
X004870Y011560D03*
X004470Y011560D03*
X006210Y011810D03*
X006670Y011280D03*
X006670Y010810D03*
X007430Y010720D03*
X008240Y010410D03*
X008150Y009790D03*
X008070Y009310D03*
X008180Y007990D03*
X007810Y007620D03*
X008590Y007590D03*
X010050Y007110D03*
X010330Y007480D03*
X007040Y007590D03*
X006220Y007990D03*
X004870Y009260D03*
X005970Y009810D03*
X004870Y010100D03*
X002540Y011650D03*
X008720Y012200D03*
X010130Y011520D03*
X010500Y011520D03*
X011100Y012350D03*
X010520Y012640D03*
X009810Y013590D03*
X012480Y012330D03*
X012830Y011980D03*
X012730Y011050D03*
X012230Y010910D03*
X014370Y012050D03*
X014650Y011430D03*
X015160Y011450D03*
X014850Y010730D03*
X015000Y009930D03*
X016160Y009500D03*
X016450Y010620D03*
X018800Y008850D03*
X018800Y007950D03*
X017810Y012370D03*
X016440Y013350D03*
X016280Y012830D03*
X015650Y013630D03*
X015170Y013680D03*
X014330Y013350D03*
X007970Y004740D03*
D27*
X007535Y004600D02*
X007540Y004570D01*
X007540Y004100D01*
X007535Y004100D01*
X007560Y004070D01*
X007560Y003490D01*
X007800Y003250D01*
X008000Y003250D01*
X008031Y003228D01*
X008040Y003220D01*
X008250Y003220D01*
X008800Y002670D01*
X008800Y002550D01*
X008040Y002710D02*
X007530Y002710D01*
X007500Y002740D01*
X007810Y002980D02*
X006890Y003900D01*
X006890Y004070D01*
X006865Y004100D01*
X006860Y004100D01*
X006860Y004550D01*
X006865Y004600D01*
X006860Y004600D01*
X006790Y004530D01*
X005450Y004530D01*
X005450Y004535D01*
X005710Y004190D02*
X005070Y004190D01*
X004710Y004550D01*
X004510Y004550D01*
X004509Y004554D01*
X004509Y004298D02*
X004510Y004290D01*
X004740Y004290D01*
X005165Y003865D01*
X005450Y003865D01*
X005440Y003855D01*
X005440Y003630D01*
X005320Y003510D01*
X004690Y003510D01*
X004580Y003400D01*
X004580Y003240D01*
X004510Y003170D01*
X004470Y003170D01*
X004550Y003135D01*
X004550Y003140D01*
X003720Y003140D01*
X003685Y003200D01*
X003690Y003200D01*
X003690Y002550D01*
X003685Y002550D01*
X004160Y002710D02*
X004160Y002280D01*
X004010Y002130D01*
X002000Y002130D01*
X001770Y002360D01*
X001770Y003100D01*
X001950Y003280D01*
X002195Y003280D01*
X002200Y003285D01*
X002200Y003200D01*
X002200Y002620D02*
X002200Y002615D01*
X002200Y002620D02*
X002990Y002620D01*
X003015Y002550D01*
X003020Y002550D01*
X003020Y003170D01*
X003015Y003200D01*
X003010Y003200D01*
X002220Y003990D01*
X002220Y004040D01*
X002211Y004042D01*
X002210Y004290D02*
X002211Y004298D01*
X002210Y004290D02*
X001440Y004290D01*
X000950Y003800D01*
X000530Y003980D02*
X000530Y003220D01*
X000950Y002800D01*
X000530Y003980D02*
X001100Y004550D01*
X002210Y004550D01*
X002211Y004554D01*
X002211Y005066D02*
X002210Y005070D01*
X001530Y005070D01*
X000950Y005650D01*
X001500Y005540D02*
X001500Y006100D01*
X000950Y006650D01*
X002200Y006415D02*
X002230Y006440D01*
X002270Y006480D01*
X003080Y006480D01*
X003115Y006500D01*
X003120Y006500D01*
X003120Y007150D01*
X003115Y007150D01*
X002580Y006960D02*
X002580Y006750D01*
X002580Y006960D02*
X002470Y007070D01*
X002215Y007070D01*
X002200Y007085D01*
X002210Y007095D01*
X002210Y007370D01*
X002390Y007590D01*
X005450Y007590D01*
X005480Y007560D01*
X005480Y007260D01*
X005450Y007235D01*
X005440Y007245D01*
X005450Y007240D02*
X005450Y007235D01*
X005450Y007590D02*
X007040Y007590D01*
X006870Y007150D02*
X006865Y007150D01*
X006870Y007150D02*
X006870Y006680D01*
X006865Y006650D01*
X006870Y006610D01*
X006870Y006220D01*
X007610Y005480D01*
X008030Y005480D01*
X008031Y005472D01*
X008040Y005720D02*
X008031Y005728D01*
X008040Y005720D02*
X008480Y005720D01*
X008850Y005350D01*
X008040Y005210D02*
X008031Y005217D01*
X008040Y005210D02*
X009090Y004160D01*
X009260Y004330D01*
X009490Y004330D01*
X009090Y004160D02*
X009090Y003900D01*
X008030Y002980D02*
X007810Y002980D01*
X008030Y002980D02*
X008031Y002972D01*
X008031Y002717D02*
X008040Y002710D01*
X006730Y003120D02*
X006730Y003650D01*
X006380Y004000D01*
X006055Y003845D02*
X005350Y003140D01*
X005350Y003135D01*
X005320Y003110D01*
X005020Y002810D01*
X004260Y002810D01*
X004160Y002710D01*
X004550Y002470D02*
X004550Y002465D01*
X004550Y002470D02*
X005350Y002470D01*
X005350Y002465D01*
X005370Y002500D01*
X005670Y002800D01*
X005670Y002900D01*
X005990Y003220D01*
X006360Y003220D01*
X006368Y003228D01*
X006368Y003484D02*
X006360Y003490D01*
X006360Y003540D01*
X006055Y003845D01*
X005710Y004190D01*
X005450Y003870D02*
X005450Y003865D01*
X006370Y002980D02*
X006368Y002972D01*
X006370Y002980D02*
X006590Y002980D01*
X006730Y003120D01*
X007530Y004600D02*
X007535Y004600D01*
X007530Y004600D02*
X007330Y004800D01*
X007330Y005360D01*
X006730Y005320D02*
X006730Y005110D01*
X006400Y004780D01*
X006380Y004780D01*
X006730Y005320D02*
X006580Y005470D01*
X006370Y005470D01*
X006368Y005472D01*
X006360Y005720D02*
X006368Y005728D01*
X006360Y005720D02*
X005870Y005720D01*
X005710Y005560D01*
X005190Y005560D01*
X004700Y006050D01*
X004700Y006565D01*
X004700Y006570D01*
X005450Y006570D01*
X005450Y006565D01*
X004700Y007230D02*
X004700Y007235D01*
X004700Y007230D02*
X003880Y007230D01*
X003820Y007170D01*
X003785Y007150D01*
X003790Y007150D01*
X003790Y006500D02*
X003785Y006500D01*
X003790Y006495D01*
X003790Y006190D01*
X003960Y006020D01*
X004500Y006020D01*
X004830Y005690D01*
X004830Y005320D01*
X004510Y005320D01*
X004509Y005322D01*
X004830Y005320D02*
X005350Y005320D01*
X005450Y005220D01*
X005450Y005215D01*
X004920Y005060D02*
X004510Y005060D01*
X004509Y005066D01*
X005450Y005885D02*
X005450Y005890D01*
X005800Y005890D01*
X006560Y006650D01*
X006865Y006650D01*
X007535Y006650D02*
X007570Y006730D01*
X007950Y006730D01*
X007540Y006650D02*
X007540Y007120D01*
X007535Y007150D01*
X007700Y007150D01*
X008140Y007590D01*
X008590Y007590D01*
X008970Y007390D02*
X007790Y006210D01*
X007560Y006210D01*
X007540Y006650D02*
X007535Y006650D01*
X006820Y005910D02*
X006750Y005980D01*
X006370Y005980D01*
X006368Y005984D01*
X007810Y007620D02*
X007810Y007990D01*
X008180Y007990D01*
X007810Y007990D02*
X007810Y008190D01*
X007880Y008260D01*
X007881Y008267D01*
X007881Y008522D02*
X007880Y008530D01*
X006980Y008530D01*
X006740Y008770D01*
X006740Y009620D01*
X006715Y009650D01*
X006710Y009650D01*
X006710Y010100D01*
X006715Y010150D01*
X006710Y010150D01*
X006650Y010090D01*
X005300Y010090D01*
X005300Y010085D01*
X004870Y010100D02*
X004760Y010210D01*
X004460Y010210D01*
X004459Y010214D01*
X004459Y009958D02*
X004460Y009950D01*
X004710Y009950D01*
X004860Y009800D01*
X004860Y009600D01*
X004760Y009500D01*
X004420Y009500D01*
X004280Y009360D01*
X004280Y008820D01*
X004130Y008670D01*
X003870Y008670D01*
X003835Y008700D01*
X003840Y008700D01*
X003840Y008050D01*
X003835Y008050D01*
X003870Y008070D01*
X004650Y008070D01*
X004650Y008065D01*
X005050Y008170D02*
X005160Y008060D01*
X005445Y008060D01*
X005450Y008065D01*
X005470Y008100D01*
X005740Y008100D01*
X005840Y008200D01*
X005840Y008670D01*
X005940Y008770D01*
X006210Y008770D01*
X006218Y008778D01*
X006210Y008770D01*
X006220Y008530D02*
X006218Y008522D01*
X006220Y008530D02*
X006440Y008530D01*
X006580Y008670D01*
X006580Y009200D01*
X005970Y009810D01*
X005300Y009420D02*
X005300Y009415D01*
X005295Y009410D01*
X005050Y009410D01*
X004860Y009600D01*
X005190Y009420D02*
X005300Y009420D01*
X005060Y009070D02*
X004870Y009260D01*
X005060Y009070D02*
X005060Y008880D01*
X005200Y008740D01*
X005450Y008740D01*
X005450Y008735D01*
X005480Y008760D01*
X005700Y008760D01*
X005980Y009040D01*
X006212Y009040D01*
X006218Y009034D01*
X006210Y009030D01*
X005050Y008640D02*
X005050Y008170D01*
X005050Y008640D02*
X004955Y008735D01*
X004650Y008735D01*
X003170Y008670D02*
X003170Y008050D01*
X003165Y008050D01*
X003155Y008040D01*
X002780Y008040D01*
X002650Y008170D01*
X002250Y008170D01*
X002250Y008165D01*
X002760Y008660D02*
X002590Y008830D01*
X002250Y008830D01*
X002250Y008835D01*
X003160Y008780D02*
X003160Y008700D01*
X003165Y008700D01*
X003160Y008705D01*
X003160Y009120D01*
X002580Y009700D01*
X002170Y009700D01*
X002161Y009702D01*
X002160Y009950D02*
X002161Y009958D01*
X002160Y009950D02*
X001450Y009950D01*
X000950Y009450D01*
X000530Y009630D02*
X000530Y008870D01*
X000950Y008450D01*
X000530Y009630D02*
X001110Y010210D01*
X002160Y010210D01*
X002161Y010214D01*
X002161Y010726D02*
X002160Y010730D01*
X001570Y010730D01*
X000950Y011350D01*
X001520Y011170D02*
X001520Y012120D01*
X001290Y012350D01*
X000950Y012350D01*
X002010Y012200D02*
X002140Y012070D01*
X002345Y012070D01*
X002350Y012065D01*
X002360Y012055D01*
X002360Y011830D01*
X002540Y011650D01*
X002350Y012060D02*
X002350Y012065D01*
X002330Y012100D01*
X002010Y012200D02*
X002010Y012980D01*
X002250Y013220D01*
X005250Y013220D01*
X005390Y013080D01*
X005390Y012745D01*
X005400Y012735D01*
X005400Y012740D01*
X005400Y012070D02*
X004680Y012070D01*
X004650Y012065D01*
X004650Y011780D01*
X004870Y011560D01*
X004470Y011560D02*
X004030Y011560D01*
X003830Y011760D01*
X003830Y012195D01*
X003835Y012040D01*
X003835Y012680D01*
X004595Y012680D01*
X004650Y012735D01*
X003840Y012200D02*
X003835Y012040D01*
X003860Y012170D01*
X003160Y012200D02*
X003160Y011910D01*
X003170Y012035D02*
X003165Y012040D01*
X003165Y012680D01*
X002405Y012680D01*
X002350Y012735D01*
X003140Y012230D02*
X003165Y012040D01*
X003160Y012200D01*
X003170Y012035D02*
X003170Y011550D01*
X002860Y011240D01*
X002170Y011240D01*
X002161Y011238D01*
X002160Y010990D02*
X001700Y010990D01*
X001520Y011170D01*
X002160Y010990D02*
X002161Y010982D01*
X004050Y010730D02*
X004450Y010730D01*
X004459Y010726D01*
X004778Y010982D02*
X004870Y010890D01*
X005000Y010760D01*
X005295Y010760D01*
X005300Y010765D01*
X005300Y010770D01*
X005660Y010850D02*
X005660Y011310D01*
X005530Y011440D01*
X005305Y011440D01*
X005300Y011435D01*
X004870Y011160D02*
X004870Y010890D01*
X004778Y010982D02*
X004459Y010982D01*
X004460Y010980D01*
X005660Y010850D02*
X005950Y010560D01*
X006910Y010560D01*
X007370Y011020D01*
X007350Y011050D01*
X006740Y011660D01*
X006740Y012120D01*
X006715Y012150D01*
X006720Y012150D01*
X006720Y012650D01*
X006715Y012650D01*
X007385Y012650D02*
X007390Y012650D01*
X007390Y012150D01*
X007385Y012150D01*
X007410Y012120D01*
X007410Y011540D01*
X007650Y011300D01*
X007850Y011300D01*
X007881Y011278D01*
X007890Y011270D01*
X008330Y011270D01*
X008700Y010900D01*
X008240Y010630D02*
X008240Y010410D01*
X008240Y010630D02*
X008110Y010760D01*
X007880Y010760D01*
X007470Y010760D01*
X007430Y010720D01*
X007370Y011020D02*
X007880Y011020D01*
X007881Y011022D01*
X007881Y010767D02*
X007880Y010760D01*
X007390Y010150D02*
X007385Y010150D01*
X007390Y010150D02*
X007390Y009650D01*
X007385Y009650D01*
X007380Y009645D01*
X007380Y008880D01*
X007482Y008778D01*
X007881Y008778D01*
X007890Y008770D01*
X007881Y008778D01*
X007890Y008770D02*
X008330Y008770D01*
X008700Y008400D01*
X010190Y009390D02*
X010420Y009390D01*
X010580Y009230D01*
X010610Y009230D01*
X010611Y009229D01*
X010720Y009370D02*
X010360Y009730D01*
X010250Y009730D01*
X010470Y009950D02*
X010470Y010280D01*
X010810Y010140D02*
X011160Y009790D01*
X011167Y009785D01*
X010880Y009540D02*
X010470Y009950D01*
X010880Y009540D02*
X010880Y009510D01*
X010889Y009507D01*
X010750Y009368D02*
X010740Y009370D01*
X010720Y009370D01*
X010471Y009089D02*
X010480Y009080D01*
X010480Y009050D01*
X010830Y008700D01*
X010830Y008390D01*
X009830Y007390D01*
X008970Y007390D01*
X009490Y007080D02*
X009497Y007085D01*
X009490Y007080D02*
X009490Y007050D01*
X009330Y006890D01*
X009330Y006470D01*
X009990Y005810D01*
X010170Y005560D02*
X009770Y005560D01*
X009650Y005440D01*
X009650Y005435D01*
X010170Y005560D02*
X010580Y005970D01*
X010610Y005970D01*
X010611Y005971D01*
X010620Y006010D01*
X011720Y007110D01*
X011720Y007790D01*
X012150Y007370D02*
X013200Y008420D01*
X013810Y008420D01*
X013740Y007990D02*
X014280Y008530D01*
X014285Y008533D01*
X014430Y008400D02*
X014425Y008393D01*
X014430Y008400D02*
X014460Y008400D01*
X014620Y008560D01*
X014860Y008560D01*
X015280Y008140D01*
X015760Y007900D02*
X015460Y007600D01*
X015760Y007900D02*
X016205Y007900D01*
X016205Y007350D02*
X015420Y007350D01*
X014710Y006640D01*
X014590Y006640D01*
X014430Y006800D01*
X014425Y006807D01*
X014560Y006950D02*
X014564Y006946D01*
X014560Y006950D02*
X014400Y007110D01*
X014400Y007240D01*
X014760Y007600D01*
X014840Y007600D01*
X015090Y007590D02*
X015090Y007470D01*
X014710Y007090D01*
X014703Y007085D01*
X015100Y006800D02*
X014780Y006480D01*
X014470Y006480D01*
X014290Y006660D01*
X014285Y006667D01*
X014146Y006528D02*
X014140Y006530D01*
X013770Y006900D01*
X014007Y006389D02*
X014010Y006380D01*
X014040Y006380D01*
X014190Y006230D01*
X014300Y006230D01*
X014390Y006320D01*
X014850Y006320D01*
X015070Y006540D01*
X015980Y006540D01*
X016310Y006210D01*
X017880Y006210D01*
X018550Y006880D01*
X018550Y010930D01*
X018790Y011170D01*
X018790Y012370D01*
X018570Y012590D01*
X018310Y012590D01*
X018307Y012594D01*
X018307Y012850D02*
X017760Y012850D01*
X017570Y012660D01*
X017570Y012450D01*
X016450Y011330D01*
X016450Y010620D01*
X015160Y011450D02*
X014790Y011820D01*
X014788Y011826D01*
X014650Y011430D02*
X014370Y011710D01*
X014370Y012050D01*
X013940Y012150D02*
X013935Y012150D01*
X013940Y012150D02*
X013940Y011600D01*
X013935Y011600D01*
X013940Y011570D01*
X013940Y011030D01*
X013935Y011000D01*
X013930Y011000D01*
X013930Y010240D01*
X013520Y010240D01*
X013310Y010090D02*
X013520Y009880D01*
X013310Y010090D02*
X013090Y010090D01*
X012930Y009930D01*
X012900Y009930D01*
X012893Y009925D01*
X013010Y009780D02*
X012850Y009620D01*
X012620Y009620D01*
X012230Y010010D01*
X012070Y010210D02*
X012310Y010450D01*
X012480Y010450D01*
X012620Y010230D02*
X012730Y010340D01*
X012730Y011050D01*
X012830Y011510D02*
X012230Y010910D01*
X013090Y010590D02*
X013090Y010430D01*
X012760Y010100D01*
X012760Y010070D01*
X012754Y010064D01*
X012615Y010203D02*
X012620Y010210D01*
X012620Y010230D01*
X012070Y010210D02*
X011590Y010210D01*
X011585Y010203D01*
X012580Y009370D02*
X011620Y008410D01*
X012310Y007300D02*
X013000Y007990D01*
X013740Y007990D01*
X013520Y007740D02*
X013520Y006340D01*
X013720Y006140D01*
X013720Y006120D01*
X013729Y006111D01*
X013590Y005970D02*
X013589Y005971D01*
X013590Y005970D02*
X013590Y005940D01*
X013770Y005760D01*
X013770Y005570D01*
X013320Y005660D02*
X014760Y004220D01*
X014760Y003390D01*
X016200Y001950D01*
X016230Y001930D01*
X017220Y000940D01*
X017680Y000940D01*
X017710Y000920D01*
X018560Y001770D01*
X018560Y004550D01*
X018565Y004550D01*
X017750Y004700D02*
X017750Y005960D01*
X016810Y005960D02*
X016010Y005160D01*
X016010Y003970D01*
X015710Y003670D01*
X015490Y003670D01*
X015480Y003680D01*
X015350Y003680D01*
X015600Y003920D02*
X015600Y004980D01*
X015870Y005250D01*
X015870Y005770D01*
X015710Y005970D02*
X015440Y005700D01*
X015440Y004330D01*
X015010Y003900D01*
X014510Y003460D02*
X014510Y001260D01*
X014200Y000950D01*
X013200Y000950D02*
X012310Y001840D01*
X012310Y004880D01*
X011760Y005430D01*
X012310Y005980D01*
X012310Y007300D01*
X012150Y007370D02*
X012150Y006150D01*
X011310Y005310D01*
X011310Y005280D01*
X011307Y005275D01*
X011410Y005130D02*
X011440Y005130D01*
X011446Y005136D01*
X011050Y004740D01*
X010810Y004740D01*
X010690Y004620D01*
X010690Y000740D01*
X010410Y000460D01*
X009290Y000460D01*
X008800Y000950D01*
X010390Y001760D02*
X010470Y001680D01*
X010390Y001760D02*
X010390Y004780D01*
X010810Y005060D02*
X011160Y005410D01*
X011167Y005415D01*
X011060Y005560D02*
X011300Y005800D01*
X011440Y005800D01*
X011060Y005560D02*
X011030Y005560D01*
X011028Y005554D01*
X011585Y004997D02*
X011060Y004472D01*
X011032Y004472D01*
X011010Y004450D01*
X011580Y004990D02*
X011585Y004997D01*
X012170Y005410D02*
X012280Y005300D01*
X012600Y005300D01*
X012760Y005140D01*
X012760Y005130D01*
X012754Y005136D01*
X012760Y005130D02*
X012760Y005100D01*
X012860Y005280D02*
X012590Y005550D01*
X012860Y005280D02*
X012890Y005280D01*
X012893Y005275D01*
X013033Y005415D02*
X013040Y005410D01*
X013390Y005060D01*
X013320Y005660D02*
X013320Y005690D01*
X013311Y005693D01*
X015100Y006800D02*
X016205Y006800D01*
X016795Y006800D02*
X017215Y006800D01*
X017215Y007350D02*
X016795Y007350D01*
X016795Y007900D02*
X017215Y007900D01*
X017215Y008450D02*
X016795Y008450D01*
X016205Y008450D02*
X015950Y008450D01*
X015090Y007590D01*
X014700Y007900D02*
X014500Y007700D01*
X014700Y007900D02*
X014700Y008110D01*
X014703Y008115D01*
X014560Y008250D02*
X014564Y008254D01*
X014560Y008250D02*
X014250Y007940D01*
X013729Y009089D02*
X013730Y009090D01*
X013730Y009120D01*
X013930Y009320D01*
X013930Y010240D01*
X013033Y009785D02*
X013030Y009780D01*
X013010Y009780D01*
X012920Y009280D02*
X012850Y009280D01*
X010800Y007230D01*
X010580Y007230D01*
X010330Y007480D01*
X010050Y007110D02*
X009830Y007110D01*
X009670Y006950D01*
X009640Y006950D01*
X009636Y006946D01*
X011970Y004260D02*
X011970Y001180D01*
X012200Y000950D01*
X015460Y003050D02*
X015700Y003050D01*
X016310Y003660D01*
X016710Y003660D01*
X017750Y004700D01*
X015710Y005970D02*
X015710Y006290D01*
X018800Y007950D02*
X018800Y008850D01*
X012830Y011510D02*
X012830Y011980D01*
X011300Y013250D02*
X010810Y013740D01*
X010090Y013740D01*
X009940Y013590D01*
X009810Y013590D01*
X010300Y014250D02*
X010790Y014740D01*
X016160Y014740D01*
X016440Y014460D01*
X016440Y013350D01*
X015985Y013250D02*
X015980Y013250D01*
X015650Y013580D01*
X015650Y013630D01*
X014650Y013640D02*
X014650Y013645D01*
X014650Y013640D02*
X014620Y013640D01*
X014330Y013350D01*
X009915Y011950D02*
X009480Y011950D01*
X009150Y012280D01*
X009160Y012215D01*
X009120Y012260D01*
X008780Y012260D01*
X008720Y012200D01*
X006670Y011280D02*
X006220Y011280D01*
X006218Y011278D01*
X006218Y011534D02*
X006210Y011540D01*
X006210Y011810D01*
X005400Y012065D02*
X005400Y012070D01*
X004680Y012070D02*
X004650Y012070D01*
X006218Y011022D02*
X006220Y011020D01*
X006430Y011020D01*
X006640Y010810D01*
X006670Y010810D01*
X007385Y009650D02*
X007410Y009620D01*
X003165Y008700D02*
X003170Y008670D01*
X003140Y008170D02*
X003165Y008050D01*
X002350Y006980D02*
X002200Y007085D01*
X002200Y007080D01*
X002200Y006415D02*
X002200Y006410D01*
X002210Y006400D01*
X002210Y005580D01*
X002211Y005578D01*
X002210Y005330D02*
X002211Y005322D01*
X002170Y005330D01*
X001710Y005330D01*
X001500Y005540D01*
M02*
