%
M48
M72
T01C0.0100
T02C0.0400
%
T01
X4600Y3770
X4920Y4700
X4920Y5060
X4060Y5330
X4040Y4810
X3040Y5720
X2580Y6750
X2760Y8660
X2960Y9860
X2990Y10200
X3860Y10060
X4050Y10730
X4870Y11160
X4870Y11560
X4470Y11560
X6210Y11810
X6670Y11280
X6670Y10810
X7430Y10720
X8240Y10410
X8150Y9790
X8070Y9310
X9840Y9840
X10250Y9730
X10810Y10140
X10470Y10280
X10190Y9390
X10580Y8500
X11480Y8750
X11620Y8410
X11720Y7790
X12030Y7610
X12670Y7300
X13520Y7740
X14250Y7940
X14500Y7700
X14840Y7600
X15460Y7600
X15280Y8140
X13810Y8420
X12920Y9280
X12580Y9370
X12230Y10010
X12480Y10450
X13090Y10590
X13520Y10240
X13520Y9880
X14850Y10730
X14650Y11430
X15160Y11450
X14370Y12050
X12830Y11980
X12480Y12330
X11100Y12350
X10520Y12640
X9810Y13590
X8720Y12200
X10130Y11520
X10500Y11520
X12230Y10910
X12730Y11050
X15000Y9930
X16160Y9500
X16450Y10620
X18800Y8850
X18800Y7950
X16520Y6460
X16810Y5960
X16780Y5440
X15870Y5770
X15710Y6290
X14480Y5810
X14060Y5860
X13770Y5570
X13390Y5060
X12590Y5550
X12170Y5410
X11440Y5800
X10810Y5060
X10390Y4780
X10130Y5310
X9990Y5810
X9240Y4810
X9490Y4330
X9090Y3900
X8750Y3920
X7970Y4740
X7330Y5360
X7580Y5870
X7560Y6210
X7950Y6730
X8570Y6240
X10050Y7110
X10330Y7480
X8590Y7590
X8180Y7990
X7810Y7620
X7040Y7590
X6220Y7990
X4870Y9260
X5970Y9810
X4870Y10100
X2540Y11650
X6820Y5910
X5920Y5210
X6380Y4780
X6380Y4000
X7150Y3270
X7500Y2740
X5920Y2790
X10470Y1680
X11970Y4260
X11010Y4450
X12930Y6350
X13270Y6290
X13770Y6900
X15190Y4880
X15010Y3900
X15350Y3680
X15600Y3920
X15460Y3050
X14510Y3460
X16950Y3540
X18150Y4930
X17750Y5960
X17810Y12370
X16440Y13350
X16280Y12830
X15650Y13630
X15170Y13680
X14330Y13350
T02
X1600Y950
X2600Y950
X3600Y950
X4600Y950
X5600Y950
X7800Y950
X8800Y950
X10200Y950
X11200Y950
X12200Y950
X13200Y950
X14200Y950
X15200Y950
X16200Y950
X16200Y1950
X17710Y920
X19490Y920
X16500Y3150
X17710Y3480
X16500Y4150
X19490Y3480
X8800Y2550
X8850Y5350
X8700Y8400
X8700Y10900
X8300Y13250
X9300Y13250
X10300Y13250
X11300Y13250
X12300Y13250
X13400Y13250
X13400Y14250
X12300Y14250
X11300Y14250
X10300Y14250
X9300Y14250
X8300Y14250
X5600Y14250
X4600Y14250
X3600Y14250
X2600Y14250
X1600Y14250
X950Y12350
X950Y11350
X950Y9450
X950Y8450
X950Y6650
X950Y5650
X950Y3800
X950Y2800
X15950Y10950
X16950Y10950
X16950Y14250
X15950Y14250
M30
