G75*
%MOIN*%
%OFA0B0*%
%FSLAX24Y24*%
%IPPOS*%
%LPD*%
%AMOC8*
5,1,8,0,0,1.08239X$1,22.5*
%
%ADD10R,0.0474X0.0186*%
%ADD11R,0.0631X0.0218*%
%ADD12R,0.0828X0.0789*%
%ADD13R,0.0828X0.0828*%
%ADD14R,0.0710X0.0907*%
%ADD15R,0.0552X0.0297*%
%ADD16R,0.0474X0.0513*%
%ADD17R,0.0513X0.0474*%
%ADD18R,0.0395X0.0395*%
%ADD19C,0.0680*%
%ADD20R,0.0470X0.0200*%
%ADD21R,0.0552X0.0198*%
%ADD22OC8,0.0680*%
%ADD23OC8,0.0820*%
%ADD24C,0.0820*%
%ADD25C,0.0400*%
%ADD26C,0.0340*%
D10*
G36*
X010008Y006908D02*
X009674Y006574D01*
X009542Y006706D01*
X009876Y007040D01*
X010008Y006908D01*
G37*
G36*
X010148Y006768D02*
X009814Y006434D01*
X009682Y006566D01*
X010016Y006900D01*
X010148Y006768D01*
G37*
G36*
X010287Y006629D02*
X009953Y006295D01*
X009821Y006427D01*
X010155Y006761D01*
X010287Y006629D01*
G37*
G36*
X010426Y006490D02*
X010092Y006156D01*
X009960Y006288D01*
X010294Y006622D01*
X010426Y006490D01*
G37*
G36*
X010565Y006351D02*
X010231Y006017D01*
X010099Y006149D01*
X010433Y006483D01*
X010565Y006351D01*
G37*
G36*
X010704Y006212D02*
X010370Y005878D01*
X010238Y006010D01*
X010572Y006344D01*
X010704Y006212D01*
G37*
G36*
X010844Y006072D02*
X010510Y005738D01*
X010378Y005870D01*
X010712Y006204D01*
X010844Y006072D01*
G37*
G36*
X010983Y005933D02*
X010649Y005599D01*
X010517Y005731D01*
X010851Y006065D01*
X010983Y005933D01*
G37*
G36*
X011122Y005794D02*
X010788Y005460D01*
X010656Y005592D01*
X010990Y005926D01*
X011122Y005794D01*
G37*
G36*
X011261Y005655D02*
X010927Y005321D01*
X010795Y005453D01*
X011129Y005787D01*
X011261Y005655D01*
G37*
G36*
X011400Y005516D02*
X011066Y005182D01*
X010934Y005314D01*
X011268Y005648D01*
X011400Y005516D01*
G37*
G36*
X011540Y005376D02*
X011206Y005042D01*
X011074Y005174D01*
X011408Y005508D01*
X011540Y005376D01*
G37*
G36*
X011679Y005237D02*
X011345Y004903D01*
X011213Y005035D01*
X011547Y005369D01*
X011679Y005237D01*
G37*
G36*
X011818Y005098D02*
X011484Y004764D01*
X011352Y004896D01*
X011686Y005230D01*
X011818Y005098D01*
G37*
G36*
X012514Y005230D02*
X012848Y004896D01*
X012716Y004764D01*
X012382Y005098D01*
X012514Y005230D01*
G37*
G36*
X012653Y005369D02*
X012987Y005035D01*
X012855Y004903D01*
X012521Y005237D01*
X012653Y005369D01*
G37*
G36*
X012792Y005508D02*
X013126Y005174D01*
X012994Y005042D01*
X012660Y005376D01*
X012792Y005508D01*
G37*
G36*
X012932Y005648D02*
X013266Y005314D01*
X013134Y005182D01*
X012800Y005516D01*
X012932Y005648D01*
G37*
G36*
X013071Y005787D02*
X013405Y005453D01*
X013273Y005321D01*
X012939Y005655D01*
X013071Y005787D01*
G37*
G36*
X013210Y005926D02*
X013544Y005592D01*
X013412Y005460D01*
X013078Y005794D01*
X013210Y005926D01*
G37*
G36*
X013349Y006065D02*
X013683Y005731D01*
X013551Y005599D01*
X013217Y005933D01*
X013349Y006065D01*
G37*
G36*
X013488Y006204D02*
X013822Y005870D01*
X013690Y005738D01*
X013356Y006072D01*
X013488Y006204D01*
G37*
G36*
X013628Y006344D02*
X013962Y006010D01*
X013830Y005878D01*
X013496Y006212D01*
X013628Y006344D01*
G37*
G36*
X013767Y006483D02*
X014101Y006149D01*
X013969Y006017D01*
X013635Y006351D01*
X013767Y006483D01*
G37*
G36*
X013906Y006622D02*
X014240Y006288D01*
X014108Y006156D01*
X013774Y006490D01*
X013906Y006622D01*
G37*
G36*
X014045Y006761D02*
X014379Y006427D01*
X014247Y006295D01*
X013913Y006629D01*
X014045Y006761D01*
G37*
G36*
X014184Y006900D02*
X014518Y006566D01*
X014386Y006434D01*
X014052Y006768D01*
X014184Y006900D01*
G37*
G36*
X014324Y007040D02*
X014658Y006706D01*
X014526Y006574D01*
X014192Y006908D01*
X014324Y007040D01*
G37*
G36*
X014463Y007179D02*
X014797Y006845D01*
X014665Y006713D01*
X014331Y007047D01*
X014463Y007179D01*
G37*
G36*
X014602Y007318D02*
X014936Y006984D01*
X014804Y006852D01*
X014470Y007186D01*
X014602Y007318D01*
G37*
G36*
X014936Y008216D02*
X014602Y007882D01*
X014470Y008014D01*
X014804Y008348D01*
X014936Y008216D01*
G37*
G36*
X014797Y008355D02*
X014463Y008021D01*
X014331Y008153D01*
X014665Y008487D01*
X014797Y008355D01*
G37*
G36*
X014658Y008494D02*
X014324Y008160D01*
X014192Y008292D01*
X014526Y008626D01*
X014658Y008494D01*
G37*
G36*
X014518Y008634D02*
X014184Y008300D01*
X014052Y008432D01*
X014386Y008766D01*
X014518Y008634D01*
G37*
G36*
X014379Y008773D02*
X014045Y008439D01*
X013913Y008571D01*
X014247Y008905D01*
X014379Y008773D01*
G37*
G36*
X014240Y008912D02*
X013906Y008578D01*
X013774Y008710D01*
X014108Y009044D01*
X014240Y008912D01*
G37*
G36*
X014101Y009051D02*
X013767Y008717D01*
X013635Y008849D01*
X013969Y009183D01*
X014101Y009051D01*
G37*
G36*
X013962Y009190D02*
X013628Y008856D01*
X013496Y008988D01*
X013830Y009322D01*
X013962Y009190D01*
G37*
G36*
X013822Y009330D02*
X013488Y008996D01*
X013356Y009128D01*
X013690Y009462D01*
X013822Y009330D01*
G37*
G36*
X013683Y009469D02*
X013349Y009135D01*
X013217Y009267D01*
X013551Y009601D01*
X013683Y009469D01*
G37*
G36*
X013544Y009608D02*
X013210Y009274D01*
X013078Y009406D01*
X013412Y009740D01*
X013544Y009608D01*
G37*
G36*
X013405Y009747D02*
X013071Y009413D01*
X012939Y009545D01*
X013273Y009879D01*
X013405Y009747D01*
G37*
G36*
X013266Y009886D02*
X012932Y009552D01*
X012800Y009684D01*
X013134Y010018D01*
X013266Y009886D01*
G37*
G36*
X013126Y010026D02*
X012792Y009692D01*
X012660Y009824D01*
X012994Y010158D01*
X013126Y010026D01*
G37*
G36*
X012987Y010165D02*
X012653Y009831D01*
X012521Y009963D01*
X012855Y010297D01*
X012987Y010165D01*
G37*
G36*
X012848Y010304D02*
X012514Y009970D01*
X012382Y010102D01*
X012716Y010436D01*
X012848Y010304D01*
G37*
G36*
X011484Y010436D02*
X011818Y010102D01*
X011686Y009970D01*
X011352Y010304D01*
X011484Y010436D01*
G37*
G36*
X011345Y010297D02*
X011679Y009963D01*
X011547Y009831D01*
X011213Y010165D01*
X011345Y010297D01*
G37*
G36*
X011206Y010158D02*
X011540Y009824D01*
X011408Y009692D01*
X011074Y010026D01*
X011206Y010158D01*
G37*
G36*
X011066Y010018D02*
X011400Y009684D01*
X011268Y009552D01*
X010934Y009886D01*
X011066Y010018D01*
G37*
G36*
X010927Y009879D02*
X011261Y009545D01*
X011129Y009413D01*
X010795Y009747D01*
X010927Y009879D01*
G37*
G36*
X010788Y009740D02*
X011122Y009406D01*
X010990Y009274D01*
X010656Y009608D01*
X010788Y009740D01*
G37*
G36*
X010649Y009601D02*
X010983Y009267D01*
X010851Y009135D01*
X010517Y009469D01*
X010649Y009601D01*
G37*
G36*
X010510Y009462D02*
X010844Y009128D01*
X010712Y008996D01*
X010378Y009330D01*
X010510Y009462D01*
G37*
G36*
X010370Y009322D02*
X010704Y008988D01*
X010572Y008856D01*
X010238Y009190D01*
X010370Y009322D01*
G37*
G36*
X010231Y009183D02*
X010565Y008849D01*
X010433Y008717D01*
X010099Y009051D01*
X010231Y009183D01*
G37*
G36*
X010092Y009044D02*
X010426Y008710D01*
X010294Y008578D01*
X009960Y008912D01*
X010092Y009044D01*
G37*
G36*
X009953Y008905D02*
X010287Y008571D01*
X010155Y008439D01*
X009821Y008773D01*
X009953Y008905D01*
G37*
G36*
X009814Y008766D02*
X010148Y008432D01*
X010016Y008300D01*
X009682Y008634D01*
X009814Y008766D01*
G37*
G36*
X009674Y008626D02*
X010008Y008292D01*
X009876Y008160D01*
X009542Y008494D01*
X009674Y008626D01*
G37*
G36*
X009535Y008487D02*
X009869Y008153D01*
X009737Y008021D01*
X009403Y008355D01*
X009535Y008487D01*
G37*
G36*
X009396Y008348D02*
X009730Y008014D01*
X009598Y007882D01*
X009264Y008216D01*
X009396Y008348D01*
G37*
G36*
X009730Y007186D02*
X009396Y006852D01*
X009264Y006984D01*
X009598Y007318D01*
X009730Y007186D01*
G37*
G36*
X009869Y007047D02*
X009535Y006713D01*
X009403Y006845D01*
X009737Y007179D01*
X009869Y007047D01*
G37*
D11*
X018307Y012338D03*
X018307Y012594D03*
X018307Y012850D03*
X018307Y013106D03*
X018307Y013362D03*
D12*
X019350Y014425D03*
X019350Y011275D03*
D13*
X019350Y012350D03*
X019350Y013350D03*
D14*
X018346Y014070D03*
X018346Y011630D03*
D15*
X015812Y011826D03*
X015812Y012200D03*
X015812Y012574D03*
X014788Y012574D03*
X014788Y011826D03*
D16*
X016700Y012165D03*
X016700Y012835D03*
X015985Y013250D03*
X015315Y013250D03*
X010585Y011950D03*
X009915Y011950D03*
X007385Y012150D03*
X006715Y012150D03*
X005400Y012065D03*
X005400Y012735D03*
X003835Y012040D03*
X003165Y012040D03*
X006715Y009650D03*
X007385Y009650D03*
X005450Y008735D03*
X005450Y008065D03*
X005450Y007235D03*
X005450Y006565D03*
X006865Y006650D03*
X007535Y006650D03*
X009650Y005435D03*
X009650Y004765D03*
X007535Y004100D03*
X006865Y004100D03*
X005350Y003135D03*
X005350Y002465D03*
X003685Y003200D03*
X003015Y003200D03*
X003115Y006500D03*
X003785Y006500D03*
X003835Y008700D03*
X003165Y008700D03*
X015100Y005985D03*
X015100Y005315D03*
X017215Y006800D03*
X017885Y006800D03*
X017885Y007350D03*
X017885Y007900D03*
X017215Y007900D03*
X017215Y007350D03*
X017215Y008450D03*
X017885Y008450D03*
X018565Y004550D03*
X019235Y004550D03*
D17*
X015335Y009550D03*
X014665Y009550D03*
X014515Y010350D03*
X015185Y010350D03*
X013935Y011000D03*
X013265Y011000D03*
X013265Y011600D03*
X013265Y012150D03*
X013935Y012150D03*
X013935Y011600D03*
X012085Y011350D03*
X011415Y011350D03*
X011415Y011950D03*
X012085Y011950D03*
X010035Y010300D03*
X009365Y010300D03*
X009160Y011545D03*
X009160Y012215D03*
X007385Y012650D03*
X006715Y012650D03*
X005300Y011435D03*
X004650Y012065D03*
X004650Y012735D03*
X003835Y012680D03*
X003165Y012680D03*
X002350Y012735D03*
X002350Y012065D03*
X005300Y010765D03*
X005300Y010085D03*
X005300Y009415D03*
X004650Y008735D03*
X004650Y008065D03*
X003835Y008050D03*
X003165Y008050D03*
X002250Y008165D03*
X002250Y008835D03*
X003115Y007150D03*
X003785Y007150D03*
X004700Y007235D03*
X004700Y006565D03*
X005450Y005885D03*
X005450Y005215D03*
X005450Y004535D03*
X005450Y003865D03*
X004550Y003135D03*
X004550Y002465D03*
X003685Y002550D03*
X003015Y002550D03*
X002200Y002615D03*
X002200Y003285D03*
X002200Y006415D03*
X002200Y007085D03*
X006865Y007150D03*
X007535Y007150D03*
X007535Y004600D03*
X006865Y004600D03*
X006715Y010150D03*
X007385Y010150D03*
D18*
X014650Y013055D03*
X014650Y013645D03*
X016205Y008450D03*
X016795Y008450D03*
X016795Y007900D03*
X016795Y007350D03*
X016205Y007350D03*
X016205Y007900D03*
X016205Y006800D03*
X016795Y006800D03*
D19*
X017710Y003780D02*
X017710Y003180D01*
X019490Y003180D02*
X019490Y003780D01*
X019490Y001220D02*
X019490Y000620D01*
X017710Y000620D02*
X017710Y001220D01*
D20*
X004509Y004042D03*
X004509Y004298D03*
X004509Y004554D03*
X004509Y004810D03*
X004509Y005066D03*
X004509Y005322D03*
X004509Y005578D03*
X002211Y005578D03*
X002211Y005322D03*
X002211Y005066D03*
X002211Y004810D03*
X002211Y004554D03*
X002211Y004298D03*
X002211Y004042D03*
X002161Y009702D03*
X002161Y009958D03*
X002161Y010214D03*
X002161Y010470D03*
X002161Y010726D03*
X002161Y010982D03*
X002161Y011238D03*
X004459Y011238D03*
X004459Y010982D03*
X004459Y010726D03*
X004459Y010470D03*
X004459Y010214D03*
X004459Y009958D03*
X004459Y009702D03*
D21*
X006218Y009034D03*
X006218Y008778D03*
X006218Y008522D03*
X006218Y008267D03*
X007881Y008267D03*
X007881Y008522D03*
X007881Y008778D03*
X007881Y009034D03*
X007881Y010767D03*
X007881Y011022D03*
X007881Y011278D03*
X007881Y011534D03*
X006218Y011534D03*
X006218Y011278D03*
X006218Y011022D03*
X006218Y010767D03*
X006368Y005984D03*
X006368Y005728D03*
X006368Y005472D03*
X006368Y005217D03*
X008031Y005217D03*
X008031Y005472D03*
X008031Y005728D03*
X008031Y005984D03*
X008031Y003484D03*
X008031Y003228D03*
X008031Y002972D03*
X008031Y002717D03*
X006368Y002717D03*
X006368Y002972D03*
X006368Y003228D03*
X006368Y003484D03*
D22*
X000950Y003800D03*
X000950Y002800D03*
X000950Y005650D03*
X000950Y006650D03*
X000950Y008450D03*
X000950Y009450D03*
X000950Y011350D03*
X000950Y012350D03*
D23*
X008300Y013250D03*
X009300Y013250D03*
X010300Y013250D03*
X011300Y013250D03*
X012300Y013250D03*
X012300Y014250D03*
X011300Y014250D03*
X010300Y014250D03*
X009300Y014250D03*
X008300Y014250D03*
D24*
X001600Y000950D03*
X002600Y000950D03*
X003600Y000950D03*
X004600Y000950D03*
X005600Y000950D03*
X007800Y000950D03*
X008800Y000950D03*
X010200Y000950D03*
X011200Y000950D03*
X012200Y000950D03*
X013200Y000950D03*
X014200Y000950D03*
X015200Y000950D03*
X016200Y000950D03*
X016200Y001950D03*
X016500Y003150D03*
X016500Y004150D03*
X016950Y010950D03*
X015950Y010950D03*
X013400Y013250D03*
X013400Y014250D03*
X015950Y014250D03*
X016950Y014250D03*
X005600Y014250D03*
X004600Y014250D03*
X003600Y014250D03*
X002600Y014250D03*
X001600Y014250D03*
D25*
X008700Y010900D03*
X008700Y008400D03*
X008850Y005350D03*
X008800Y002550D03*
D26*
X007500Y002740D03*
X007150Y003270D03*
X006380Y004000D03*
X006380Y004780D03*
X005920Y005210D03*
X004920Y005060D03*
X004920Y004700D03*
X004040Y004810D03*
X004060Y005330D03*
X003040Y005720D03*
X002580Y006750D03*
X002760Y008660D03*
X002960Y009860D03*
X002990Y010200D03*
X003860Y010060D03*
X004050Y010730D03*
X004870Y011160D03*
X004870Y011560D03*
X004470Y011560D03*
X006210Y011810D03*
X006670Y011280D03*
X006670Y010810D03*
X007430Y010720D03*
X008240Y010410D03*
X008150Y009790D03*
X008070Y009310D03*
X009840Y009840D03*
X010250Y009730D03*
X010810Y010140D03*
X010470Y010280D03*
X010190Y009390D03*
X010580Y008500D03*
X011480Y008750D03*
X011620Y008410D03*
X011720Y007790D03*
X012030Y007610D03*
X012670Y007300D03*
X013520Y007740D03*
X014250Y007940D03*
X014500Y007700D03*
X014840Y007600D03*
X015460Y007600D03*
X015280Y008140D03*
X013810Y008420D03*
X012920Y009280D03*
X012580Y009370D03*
X012230Y010010D03*
X012480Y010450D03*
X013090Y010590D03*
X013520Y010240D03*
X013520Y009880D03*
X014850Y010730D03*
X014650Y011430D03*
X015160Y011450D03*
X014370Y012050D03*
X012830Y011980D03*
X012480Y012330D03*
X011100Y012350D03*
X010520Y012640D03*
X009810Y013590D03*
X008720Y012200D03*
X010130Y011520D03*
X010500Y011520D03*
X012230Y010910D03*
X012730Y011050D03*
X015000Y009930D03*
X016160Y009500D03*
X016450Y010620D03*
X018800Y008850D03*
X018800Y007950D03*
X016520Y006460D03*
X016810Y005960D03*
X016780Y005440D03*
X015870Y005770D03*
X015710Y006290D03*
X014480Y005810D03*
X014060Y005860D03*
X013770Y005570D03*
X013390Y005060D03*
X012590Y005550D03*
X012170Y005410D03*
X011440Y005800D03*
X010810Y005060D03*
X010390Y004780D03*
X010130Y005310D03*
X009990Y005810D03*
X008570Y006240D03*
X007950Y006730D03*
X007560Y006210D03*
X007580Y005870D03*
X007330Y005360D03*
X006820Y005910D03*
X007970Y004740D03*
X008750Y003920D03*
X009090Y003900D03*
X009490Y004330D03*
X009240Y004810D03*
X011010Y004450D03*
X011970Y004260D03*
X014510Y003460D03*
X015010Y003900D03*
X015350Y003680D03*
X015600Y003920D03*
X015460Y003050D03*
X016950Y003540D03*
X018150Y004930D03*
X017750Y005960D03*
X015190Y004880D03*
X013270Y006290D03*
X012930Y006350D03*
X013770Y006900D03*
X010330Y007480D03*
X010050Y007110D03*
X008590Y007590D03*
X008180Y007990D03*
X007810Y007620D03*
X007040Y007590D03*
X006220Y007990D03*
X004870Y009260D03*
X005970Y009810D03*
X004870Y010100D03*
X002540Y011650D03*
X004600Y003770D03*
X005920Y002790D03*
X010470Y001680D03*
X017810Y012370D03*
X016440Y013350D03*
X016280Y012830D03*
X015650Y013630D03*
X015170Y013680D03*
X014330Y013350D03*
M02*
