G75*
%MOIN*%
%OFA0B0*%
%FSLAX24Y24*%
%IPPOS*%
%LPD*%
%AMOC8*
5,1,8,0,0,1.08239X$1,22.5*
%
%ADD10C,0.0000*%
%ADD11C,0.0020*%
%ADD12C,0.0030*%
%ADD13C,0.0039*%
%ADD14R,0.0059X0.0118*%
%ADD15R,0.0118X0.0118*%
%ADD16C,0.0060*%
%ADD17C,0.0040*%
%ADD18R,0.0118X0.0059*%
%ADD19C,0.0080*%
%ADD20R,0.0200X0.0200*%
%ADD21R,0.0012X0.0006*%
%ADD22R,0.0012X0.0006*%
%ADD23R,0.0006X0.0006*%
%ADD24R,0.0013X0.0006*%
%ADD25R,0.0013X0.0006*%
%ADD26R,0.0019X0.0006*%
%ADD27R,0.0057X0.0006*%
%ADD28R,0.0063X0.0006*%
%ADD29R,0.0044X0.0006*%
%ADD30R,0.0006X0.0006*%
%ADD31R,0.0050X0.0006*%
%ADD32R,0.0094X0.0006*%
%ADD33R,0.0044X0.0006*%
%ADD34R,0.0025X0.0006*%
%ADD35R,0.0043X0.0006*%
%ADD36R,0.0019X0.0006*%
%ADD37R,0.0062X0.0006*%
%ADD38R,0.0094X0.0006*%
%ADD39R,0.0037X0.0006*%
%ADD40R,0.0031X0.0006*%
%ADD41R,0.0007X0.0006*%
%ADD42R,0.0038X0.0006*%
%ADD43R,0.0093X0.0006*%
%ADD44R,0.0031X0.0006*%
%ADD45R,0.0025X0.0006*%
%ADD46R,0.0018X0.0006*%
%ADD47R,0.0019X0.0006*%
%ADD48R,0.0019X0.0006*%
%ADD49R,0.0031X0.0006*%
%ADD50R,0.0056X0.0006*%
%ADD51R,0.0056X0.0006*%
%ADD52R,0.0018X0.0006*%
%ADD53R,0.0050X0.0006*%
%ADD54R,0.0006X0.0006*%
%ADD55R,0.0006X0.0006*%
%ADD56R,0.0007X0.0006*%
%ADD57R,0.0031X0.0006*%
%ADD58R,0.0032X0.0006*%
%ADD59R,0.0044X0.0006*%
%ADD60R,0.0044X0.0006*%
%ADD61R,0.0038X0.0006*%
%ADD62R,0.0069X0.0006*%
%ADD63R,0.0069X0.0006*%
%ADD64R,0.0032X0.0006*%
%ADD65R,0.0082X0.0006*%
%ADD66R,0.0075X0.0006*%
%ADD67R,0.0075X0.0006*%
%ADD68R,0.0069X0.0006*%
%ADD69R,0.0106X0.0006*%
%ADD70R,0.0037X0.0006*%
%ADD71R,0.0063X0.0006*%
%ADD72R,0.0087X0.0006*%
%ADD73R,0.0125X0.0006*%
%ADD74R,0.0100X0.0006*%
%ADD75R,0.0081X0.0006*%
%ADD76R,0.0200X0.0006*%
%ADD77R,0.0113X0.0006*%
%ADD78R,0.0094X0.0006*%
%ADD79R,0.0244X0.0006*%
%ADD80R,0.0125X0.0006*%
%ADD81R,0.0106X0.0006*%
%ADD82R,0.0288X0.0006*%
%ADD83R,0.0131X0.0006*%
%ADD84R,0.0119X0.0006*%
%ADD85R,0.0450X0.0006*%
%ADD86R,0.0325X0.0006*%
%ADD87R,0.0407X0.0006*%
%ADD88R,0.0812X0.0006*%
%ADD89R,0.0406X0.0006*%
%ADD90R,0.0143X0.0006*%
%ADD91R,0.0450X0.0006*%
%ADD92R,0.0350X0.0006*%
%ADD93R,0.0407X0.0006*%
%ADD94R,0.0812X0.0006*%
%ADD95R,0.0406X0.0006*%
%ADD96R,0.0157X0.0006*%
%ADD97R,0.0138X0.0006*%
%ADD98R,0.0375X0.0006*%
%ADD99R,0.0169X0.0006*%
%ADD100R,0.0150X0.0006*%
%ADD101R,0.0400X0.0006*%
%ADD102R,0.0181X0.0006*%
%ADD103R,0.0162X0.0006*%
%ADD104R,0.0418X0.0006*%
%ADD105R,0.0193X0.0006*%
%ADD106R,0.0175X0.0006*%
%ADD107R,0.0256X0.0006*%
%ADD108R,0.0138X0.0006*%
%ADD109R,0.0331X0.0006*%
%ADD110R,0.0331X0.0006*%
%ADD111R,0.0207X0.0006*%
%ADD112R,0.0188X0.0006*%
%ADD113R,0.0231X0.0006*%
%ADD114R,0.0106X0.0006*%
%ADD115R,0.0263X0.0006*%
%ADD116R,0.0262X0.0006*%
%ADD117R,0.0213X0.0006*%
%ADD118R,0.0300X0.0006*%
%ADD119R,0.0219X0.0006*%
%ADD120R,0.0087X0.0006*%
%ADD121R,0.0225X0.0006*%
%ADD122R,0.0238X0.0006*%
%ADD123R,0.0225X0.0006*%
%ADD124R,0.0212X0.0006*%
%ADD125R,0.0275X0.0006*%
%ADD126R,0.0206X0.0006*%
%ADD127R,0.0088X0.0006*%
%ADD128R,0.0237X0.0006*%
%ADD129R,0.0262X0.0006*%
%ADD130R,0.0206X0.0006*%
%ADD131R,0.0081X0.0006*%
%ADD132R,0.0194X0.0006*%
%ADD133R,0.0250X0.0006*%
%ADD134R,0.0232X0.0006*%
%ADD135R,0.0200X0.0006*%
%ADD136R,0.0181X0.0006*%
%ADD137R,0.0244X0.0006*%
%ADD138R,0.0194X0.0006*%
%ADD139R,0.0181X0.0006*%
%ADD140R,0.0181X0.0006*%
%ADD141R,0.0269X0.0006*%
%ADD142R,0.0256X0.0006*%
%ADD143R,0.0187X0.0006*%
%ADD144R,0.0169X0.0006*%
%ADD145R,0.0169X0.0006*%
%ADD146R,0.0168X0.0006*%
%ADD147R,0.0281X0.0006*%
%ADD148R,0.0268X0.0006*%
%ADD149R,0.0212X0.0006*%
%ADD150R,0.0187X0.0006*%
%ADD151R,0.0162X0.0006*%
%ADD152R,0.0169X0.0006*%
%ADD153R,0.0294X0.0006*%
%ADD154R,0.0282X0.0006*%
%ADD155R,0.0194X0.0006*%
%ADD156R,0.0062X0.0006*%
%ADD157R,0.0163X0.0006*%
%ADD158R,0.0163X0.0006*%
%ADD159R,0.0312X0.0006*%
%ADD160R,0.0300X0.0006*%
%ADD161R,0.0150X0.0006*%
%ADD162R,0.0156X0.0006*%
%ADD163R,0.0325X0.0006*%
%ADD164R,0.0312X0.0006*%
%ADD165R,0.0157X0.0006*%
%ADD166R,0.0156X0.0006*%
%ADD167R,0.0332X0.0006*%
%ADD168R,0.0319X0.0006*%
%ADD169R,0.0182X0.0006*%
%ADD170R,0.0056X0.0006*%
%ADD171R,0.0344X0.0006*%
%ADD172R,0.0188X0.0006*%
%ADD173R,0.0350X0.0006*%
%ADD174R,0.0344X0.0006*%
%ADD175R,0.0362X0.0006*%
%ADD176R,0.0356X0.0006*%
%ADD177R,0.0175X0.0006*%
%ADD178R,0.0381X0.0006*%
%ADD179R,0.0369X0.0006*%
%ADD180R,0.0394X0.0006*%
%ADD181R,0.0381X0.0006*%
%ADD182R,0.0144X0.0006*%
%ADD183R,0.0144X0.0006*%
%ADD184R,0.0118X0.0006*%
%ADD185R,0.0231X0.0006*%
%ADD186R,0.0144X0.0006*%
%ADD187R,0.0144X0.0006*%
%ADD188R,0.0213X0.0006*%
%ADD189R,0.0107X0.0006*%
%ADD190R,0.0219X0.0006*%
%ADD191R,0.0206X0.0006*%
%ADD192R,0.0207X0.0006*%
%ADD193R,0.0194X0.0006*%
%ADD194R,0.0100X0.0006*%
%ADD195R,0.0143X0.0006*%
%ADD196R,0.0093X0.0006*%
%ADD197R,0.0168X0.0006*%
%ADD198R,0.0081X0.0006*%
%ADD199R,0.0156X0.0006*%
%ADD200R,0.0112X0.0006*%
%ADD201R,0.0119X0.0006*%
%ADD202R,0.0131X0.0006*%
%ADD203R,0.0106X0.0006*%
%ADD204R,0.0137X0.0006*%
%ADD205R,0.0131X0.0006*%
%ADD206R,0.0119X0.0006*%
%ADD207R,0.0118X0.0006*%
%ADD208R,0.0113X0.0006*%
%ADD209R,0.0112X0.0006*%
%ADD210R,0.0137X0.0006*%
%ADD211R,0.0094X0.0006*%
%ADD212R,0.0088X0.0006*%
%ADD213R,0.0068X0.0006*%
%ADD214R,0.0081X0.0006*%
%ADD215R,0.0069X0.0006*%
%ADD216R,0.0469X0.0006*%
%ADD217R,0.0082X0.0006*%
%ADD218R,0.0156X0.0006*%
%ADD219R,0.0481X0.0006*%
%ADD220R,0.0494X0.0006*%
%ADD221R,0.0506X0.0006*%
%ADD222R,0.0531X0.0006*%
%ADD223R,0.0556X0.0006*%
%ADD224R,0.0631X0.0006*%
%ADD225R,0.0869X0.0006*%
%ADD226R,0.0857X0.0006*%
%ADD227R,0.0837X0.0006*%
%ADD228R,0.0825X0.0006*%
%ADD229R,0.0813X0.0006*%
%ADD230R,0.0800X0.0006*%
%ADD231R,0.0787X0.0006*%
%ADD232R,0.0769X0.0006*%
%ADD233R,0.0357X0.0006*%
%ADD234R,0.0331X0.0006*%
%ADD235R,0.0306X0.0006*%
%ADD236R,0.0294X0.0006*%
%ADD237R,0.0288X0.0006*%
%ADD238R,0.0282X0.0006*%
%ADD239R,0.0275X0.0006*%
%ADD240R,0.0268X0.0006*%
%ADD241R,0.0256X0.0006*%
%ADD242R,0.0250X0.0006*%
%ADD243R,0.0713X0.0006*%
%ADD244R,0.0244X0.0006*%
%ADD245R,0.0238X0.0006*%
%ADD246R,0.0713X0.0006*%
%ADD247R,0.0232X0.0006*%
%ADD248R,0.0218X0.0006*%
%ADD249R,0.0707X0.0006*%
%ADD250R,0.0707X0.0006*%
%ADD251R,0.0700X0.0006*%
%ADD252R,0.0119X0.0006*%
%ADD253R,0.0512X0.0006*%
%ADD254R,0.0544X0.0006*%
%ADD255R,0.0132X0.0006*%
%ADD256R,0.0562X0.0006*%
%ADD257R,0.0132X0.0006*%
%ADD258R,0.0587X0.0006*%
%ADD259R,0.0600X0.0006*%
%ADD260R,0.0107X0.0006*%
%ADD261R,0.0182X0.0006*%
%ADD262R,0.0619X0.0006*%
%ADD263R,0.0131X0.0006*%
%ADD264R,0.0287X0.0006*%
%ADD265R,0.0068X0.0006*%
%ADD266R,0.0263X0.0006*%
%ADD267R,0.0219X0.0006*%
%ADD268R,0.0382X0.0006*%
%ADD269R,0.0363X0.0006*%
%ADD270R,0.0337X0.0006*%
%ADD271R,0.0338X0.0006*%
%ADD272R,0.0319X0.0006*%
%ADD273R,0.0293X0.0006*%
%ADD274R,0.0294X0.0006*%
%ADD275R,0.0318X0.0006*%
%ADD276R,0.0281X0.0006*%
%ADD277R,0.0281X0.0006*%
%ADD278R,0.0294X0.0006*%
%ADD279R,0.0257X0.0006*%
%ADD280R,0.0231X0.0006*%
%ADD281R,0.0218X0.0006*%
%ADD282R,0.1387X0.0006*%
%ADD283R,0.1387X0.0006*%
%ADD284R,0.0825X0.0006*%
%ADD285R,0.0431X0.0006*%
%ADD286R,0.0331X0.0006*%
%ADD287R,0.0462X0.0006*%
%ADD288R,0.0425X0.0006*%
%ADD289R,0.0443X0.0006*%
%ADD290R,0.0425X0.0006*%
%ADD291R,0.0437X0.0006*%
%ADD292R,0.0462X0.0006*%
%ADD293R,0.0412X0.0006*%
%ADD294R,0.0412X0.0006*%
%ADD295R,0.0400X0.0006*%
%ADD296R,0.0057X0.0006*%
%ADD297R,0.0056X0.0006*%
%ADD298R,0.0043X0.0006*%
%ADD299R,0.0337X0.0006*%
%ADD300R,0.0343X0.0006*%
%ADD301R,0.0456X0.0006*%
%ADD302R,0.0231X0.0006*%
%ADD303R,0.0469X0.0006*%
%ADD304R,0.0562X0.0006*%
%ADD305R,0.0750X0.0006*%
%ADD306R,0.0193X0.0006*%
%ADD307R,0.0650X0.0006*%
%ADD308R,0.0663X0.0006*%
%ADD309R,0.0675X0.0006*%
%ADD310R,0.0656X0.0006*%
%ADD311R,0.0556X0.0006*%
D10*
X000100Y000100D02*
X000100Y015100D01*
X020100Y015100D01*
X020100Y000100D01*
X000100Y000100D01*
D11*
X000590Y000640D02*
X000710Y000640D01*
X000710Y000760D02*
X000590Y000760D01*
X000530Y000700D01*
X000590Y000640D01*
X000590Y000824D02*
X000560Y000824D01*
X000530Y000854D01*
X000530Y000914D01*
X000560Y000944D01*
X000560Y001006D02*
X000530Y001006D01*
X000530Y001036D01*
X000560Y001036D01*
X000560Y001006D01*
X000560Y001100D02*
X000530Y001130D01*
X000530Y001190D01*
X000560Y001220D01*
X000620Y001160D02*
X000620Y001130D01*
X000590Y001100D01*
X000560Y001100D01*
X000620Y001130D02*
X000650Y001100D01*
X000680Y001100D01*
X000710Y001130D01*
X000710Y001190D01*
X000680Y001220D01*
X000680Y000944D02*
X000710Y000914D01*
X000710Y000854D01*
X000680Y000824D01*
X000650Y000824D01*
X000620Y000854D01*
X000590Y000824D01*
X000620Y000854D02*
X000620Y000884D01*
X001600Y002519D02*
X001780Y002519D01*
X001690Y002609D01*
X001690Y002489D01*
X001690Y002673D02*
X001690Y002733D01*
X001690Y002673D02*
X001630Y002673D01*
X001600Y002703D01*
X001600Y002763D01*
X001630Y002793D01*
X001750Y002793D01*
X001780Y002763D01*
X001780Y002703D01*
X001750Y002673D01*
X001780Y002856D02*
X001780Y002916D01*
X001780Y002886D02*
X001600Y002886D01*
X001600Y002916D02*
X001600Y002856D01*
X001630Y002980D02*
X001600Y003010D01*
X001600Y003070D01*
X001630Y003100D01*
X001690Y003070D02*
X001690Y003010D01*
X001660Y002980D01*
X001630Y002980D01*
X001690Y003070D02*
X001720Y003100D01*
X001750Y003100D01*
X001780Y003070D01*
X001780Y003010D01*
X001750Y002980D01*
X001680Y003417D02*
X001680Y003538D01*
X001770Y003447D01*
X001590Y003447D01*
X001770Y003602D02*
X001770Y003722D01*
X001590Y003722D01*
X001590Y003786D02*
X001590Y003906D01*
X001770Y003906D01*
X001770Y003786D01*
X001680Y003846D02*
X001680Y003906D01*
X001680Y003970D02*
X001650Y004000D01*
X001650Y004090D01*
X001590Y004090D02*
X001770Y004090D01*
X001770Y004000D01*
X001740Y003970D01*
X001680Y003970D01*
X001650Y004030D02*
X001590Y003970D01*
X001680Y003722D02*
X001680Y003662D01*
X003100Y004650D02*
X003160Y004650D01*
X003130Y004650D02*
X003130Y004830D01*
X003100Y004830D02*
X003160Y004830D01*
X003223Y004800D02*
X003223Y004680D01*
X003253Y004650D01*
X003313Y004650D01*
X003343Y004680D01*
X003407Y004680D02*
X003437Y004650D01*
X003497Y004650D01*
X003527Y004680D01*
X003527Y004710D01*
X003497Y004740D01*
X003407Y004740D01*
X003407Y004680D01*
X003407Y004740D02*
X003467Y004800D01*
X003527Y004830D01*
X003343Y004800D02*
X003313Y004830D01*
X003253Y004830D01*
X003223Y004800D01*
X001760Y005349D02*
X001730Y005319D01*
X001700Y005319D01*
X001670Y005349D01*
X001640Y005319D01*
X001610Y005319D01*
X001580Y005349D01*
X001580Y005409D01*
X001610Y005439D01*
X001610Y005503D02*
X001670Y005503D01*
X001670Y005563D01*
X001610Y005503D02*
X001580Y005533D01*
X001580Y005593D01*
X001610Y005623D01*
X001730Y005623D01*
X001760Y005593D01*
X001760Y005533D01*
X001730Y005503D01*
X001730Y005439D02*
X001760Y005409D01*
X001760Y005349D01*
X001670Y005349D02*
X001670Y005379D01*
X001580Y005686D02*
X001580Y005746D01*
X001580Y005716D02*
X001760Y005716D01*
X001760Y005746D02*
X001760Y005686D01*
X001730Y005810D02*
X001760Y005840D01*
X001760Y005900D01*
X001730Y005930D01*
X001700Y005930D01*
X001670Y005900D01*
X001670Y005840D01*
X001640Y005810D01*
X001610Y005810D01*
X001580Y005840D01*
X001580Y005900D01*
X001610Y005930D01*
X001610Y006287D02*
X001580Y006317D01*
X001580Y006378D01*
X001610Y006408D01*
X001670Y006347D02*
X001670Y006317D01*
X001640Y006287D01*
X001610Y006287D01*
X001670Y006317D02*
X001700Y006287D01*
X001730Y006287D01*
X001760Y006317D01*
X001760Y006378D01*
X001730Y006408D01*
X001760Y006472D02*
X001760Y006592D01*
X001580Y006592D01*
X001580Y006656D02*
X001580Y006776D01*
X001760Y006776D01*
X001760Y006656D01*
X001670Y006716D02*
X001670Y006776D01*
X001670Y006840D02*
X001640Y006870D01*
X001640Y006960D01*
X001580Y006960D02*
X001760Y006960D01*
X001760Y006870D01*
X001730Y006840D01*
X001670Y006840D01*
X001640Y006900D02*
X001580Y006840D01*
X001670Y006592D02*
X001670Y006532D01*
X001990Y007410D02*
X001990Y007590D01*
X002080Y007590D01*
X002110Y007560D01*
X002110Y007500D01*
X002080Y007470D01*
X001990Y007470D01*
X002050Y007470D02*
X002110Y007410D01*
X002174Y007410D02*
X002294Y007410D01*
X002234Y007410D02*
X002234Y007590D01*
X002174Y007530D01*
X002202Y007690D02*
X002142Y007750D01*
X002172Y007750D02*
X002082Y007750D01*
X002082Y007690D02*
X002082Y007870D01*
X002172Y007870D01*
X002202Y007840D01*
X002202Y007780D01*
X002172Y007750D01*
X002266Y007780D02*
X002266Y007720D01*
X002296Y007690D01*
X002356Y007690D01*
X002386Y007720D01*
X002386Y007750D01*
X002356Y007780D01*
X002266Y007780D01*
X002326Y007840D01*
X002386Y007870D01*
X002388Y007590D02*
X002448Y007590D01*
X002478Y007560D01*
X002358Y007440D01*
X002388Y007410D01*
X002448Y007410D01*
X002478Y007440D01*
X002478Y007560D01*
X002388Y007590D02*
X002358Y007560D01*
X002358Y007440D01*
X002710Y007778D02*
X002830Y007778D01*
X002860Y007808D01*
X002860Y007868D01*
X002830Y007898D01*
X002860Y007962D02*
X002740Y008082D01*
X002710Y008082D01*
X002680Y008052D01*
X002680Y007992D01*
X002710Y007962D01*
X002710Y007898D02*
X002680Y007868D01*
X002680Y007808D01*
X002710Y007778D01*
X002860Y007962D02*
X002860Y008082D01*
X002830Y008146D02*
X002710Y008266D01*
X002830Y008266D01*
X002860Y008236D01*
X002860Y008176D01*
X002830Y008146D01*
X002710Y008146D01*
X002680Y008176D01*
X002680Y008236D01*
X002710Y008266D01*
X003230Y007580D02*
X003200Y007550D01*
X003200Y007430D01*
X003230Y007400D01*
X003290Y007400D01*
X003320Y007430D01*
X003384Y007400D02*
X003504Y007520D01*
X003504Y007550D01*
X003474Y007580D01*
X003414Y007580D01*
X003384Y007550D01*
X003320Y007550D02*
X003290Y007580D01*
X003230Y007580D01*
X003384Y007400D02*
X003504Y007400D01*
X003568Y007430D02*
X003568Y007490D01*
X003658Y007490D01*
X003688Y007460D01*
X003688Y007430D01*
X003658Y007400D01*
X003598Y007400D01*
X003568Y007430D01*
X003568Y007490D02*
X003628Y007550D01*
X003688Y007580D01*
X004190Y008240D02*
X004190Y008330D01*
X004220Y008360D01*
X004280Y008360D01*
X004310Y008330D01*
X004310Y008240D01*
X004370Y008240D02*
X004190Y008240D01*
X004310Y008300D02*
X004370Y008360D01*
X004340Y008424D02*
X004370Y008454D01*
X004370Y008514D01*
X004340Y008544D01*
X004220Y008544D01*
X004190Y008514D01*
X004190Y008454D01*
X004220Y008424D01*
X004250Y008424D01*
X004280Y008454D01*
X004280Y008544D01*
X005010Y008536D02*
X005040Y008506D01*
X005010Y008536D02*
X005010Y008596D01*
X005040Y008626D01*
X005070Y008626D01*
X005190Y008506D01*
X005190Y008626D01*
X005190Y008442D02*
X005190Y008322D01*
X005070Y008442D01*
X005040Y008442D01*
X005010Y008412D01*
X005010Y008352D01*
X005040Y008322D01*
X005040Y008258D02*
X005010Y008228D01*
X005010Y008168D01*
X005040Y008138D01*
X005160Y008138D01*
X005190Y008168D01*
X005190Y008228D01*
X005160Y008258D01*
X006390Y007476D02*
X006480Y007386D01*
X006480Y007506D01*
X006570Y007476D02*
X006390Y007476D01*
X006420Y007322D02*
X006450Y007322D01*
X006480Y007292D01*
X006510Y007322D01*
X006540Y007322D01*
X006570Y007292D01*
X006570Y007232D01*
X006540Y007202D01*
X006540Y007138D02*
X006570Y007108D01*
X006570Y007048D01*
X006540Y007018D01*
X006420Y007018D01*
X006390Y007048D01*
X006390Y007108D01*
X006420Y007138D01*
X006420Y007202D02*
X006390Y007232D01*
X006390Y007292D01*
X006420Y007322D01*
X006480Y007292D02*
X006480Y007262D01*
X006500Y006846D02*
X006500Y006756D01*
X006470Y006726D01*
X006440Y006726D01*
X006410Y006756D01*
X006410Y006816D01*
X006440Y006846D01*
X006560Y006846D01*
X006590Y006816D01*
X006590Y006756D01*
X006560Y006726D01*
X006590Y006662D02*
X006590Y006542D01*
X006470Y006662D01*
X006440Y006662D01*
X006410Y006632D01*
X006410Y006572D01*
X006440Y006542D01*
X006440Y006478D02*
X006410Y006448D01*
X006410Y006358D01*
X006590Y006358D01*
X006530Y006358D02*
X006530Y006448D01*
X006500Y006478D01*
X006440Y006478D01*
X006530Y006418D02*
X006590Y006478D01*
X006692Y005972D02*
X006694Y005999D01*
X006700Y006026D01*
X006709Y006052D01*
X006722Y006076D01*
X006738Y006099D01*
X006757Y006118D01*
X006779Y006135D01*
X006803Y006149D01*
X006828Y006159D01*
X006855Y006166D01*
X006882Y006169D01*
X006910Y006168D01*
X006937Y006163D01*
X006963Y006155D01*
X006987Y006143D01*
X007010Y006127D01*
X007031Y006109D01*
X007048Y006088D01*
X007063Y006064D01*
X007074Y006039D01*
X007082Y006013D01*
X007086Y005986D01*
X007086Y005958D01*
X007082Y005931D01*
X007074Y005905D01*
X007063Y005880D01*
X007048Y005856D01*
X007031Y005835D01*
X007010Y005817D01*
X006988Y005801D01*
X006963Y005789D01*
X006937Y005781D01*
X006910Y005776D01*
X006882Y005775D01*
X006855Y005778D01*
X006828Y005785D01*
X006803Y005795D01*
X006779Y005809D01*
X006757Y005826D01*
X006738Y005845D01*
X006722Y005868D01*
X006709Y005892D01*
X006700Y005918D01*
X006694Y005945D01*
X006692Y005972D01*
X006780Y005660D02*
X006840Y005660D01*
X006810Y005660D02*
X006810Y005480D01*
X006780Y005480D02*
X006840Y005480D01*
X006903Y005510D02*
X006903Y005630D01*
X006933Y005660D01*
X006993Y005660D01*
X007023Y005630D01*
X007087Y005660D02*
X007207Y005660D01*
X007207Y005630D01*
X007087Y005510D01*
X007087Y005480D01*
X007023Y005510D02*
X006993Y005480D01*
X006933Y005480D01*
X006903Y005510D01*
X007908Y004510D02*
X007878Y004480D01*
X007878Y004360D01*
X007908Y004330D01*
X007968Y004330D01*
X007998Y004360D01*
X008062Y004360D02*
X008092Y004330D01*
X008152Y004330D01*
X008182Y004360D01*
X008182Y004390D01*
X008152Y004420D01*
X008122Y004420D01*
X008152Y004420D02*
X008182Y004450D01*
X008182Y004480D01*
X008152Y004510D01*
X008092Y004510D01*
X008062Y004480D01*
X007998Y004480D02*
X007968Y004510D01*
X007908Y004510D01*
X008246Y004510D02*
X008246Y004420D01*
X008306Y004450D01*
X008336Y004450D01*
X008366Y004420D01*
X008366Y004360D01*
X008336Y004330D01*
X008276Y004330D01*
X008246Y004360D01*
X008246Y004510D02*
X008366Y004510D01*
X008276Y004110D02*
X008306Y004080D01*
X008306Y004050D01*
X008276Y004020D01*
X008306Y003990D01*
X008306Y003960D01*
X008276Y003930D01*
X008216Y003930D01*
X008186Y003960D01*
X008122Y003960D02*
X008092Y003930D01*
X008032Y003930D01*
X008002Y003960D01*
X007938Y003930D02*
X007878Y003990D01*
X007908Y003990D02*
X007818Y003990D01*
X007818Y003930D02*
X007818Y004110D01*
X007908Y004110D01*
X007938Y004080D01*
X007938Y004020D01*
X007908Y003990D01*
X008002Y004080D02*
X008032Y004110D01*
X008092Y004110D01*
X008122Y004080D01*
X008122Y004050D01*
X008092Y004020D01*
X008122Y003990D01*
X008122Y003960D01*
X008092Y004020D02*
X008062Y004020D01*
X008186Y004080D02*
X008216Y004110D01*
X008276Y004110D01*
X008276Y004020D02*
X008246Y004020D01*
X006692Y003472D02*
X006694Y003499D01*
X006700Y003526D01*
X006709Y003552D01*
X006722Y003576D01*
X006738Y003599D01*
X006757Y003618D01*
X006779Y003635D01*
X006803Y003649D01*
X006828Y003659D01*
X006855Y003666D01*
X006882Y003669D01*
X006910Y003668D01*
X006937Y003663D01*
X006963Y003655D01*
X006987Y003643D01*
X007010Y003627D01*
X007031Y003609D01*
X007048Y003588D01*
X007063Y003564D01*
X007074Y003539D01*
X007082Y003513D01*
X007086Y003486D01*
X007086Y003458D01*
X007082Y003431D01*
X007074Y003405D01*
X007063Y003380D01*
X007048Y003356D01*
X007031Y003335D01*
X007010Y003317D01*
X006988Y003301D01*
X006963Y003289D01*
X006937Y003281D01*
X006910Y003276D01*
X006882Y003275D01*
X006855Y003278D01*
X006828Y003285D01*
X006803Y003295D01*
X006779Y003309D01*
X006757Y003326D01*
X006738Y003345D01*
X006722Y003368D01*
X006709Y003392D01*
X006700Y003418D01*
X006694Y003445D01*
X006692Y003472D01*
X006770Y002840D02*
X006830Y002840D01*
X006800Y002840D02*
X006800Y002660D01*
X006770Y002660D02*
X006830Y002660D01*
X006893Y002690D02*
X006893Y002810D01*
X006923Y002840D01*
X006983Y002840D01*
X007013Y002810D01*
X007077Y002810D02*
X007077Y002780D01*
X007107Y002750D01*
X007167Y002750D01*
X007197Y002720D01*
X007197Y002690D01*
X007167Y002660D01*
X007107Y002660D01*
X007077Y002690D01*
X007077Y002720D01*
X007107Y002750D01*
X007167Y002750D02*
X007197Y002780D01*
X007197Y002810D01*
X007167Y002840D01*
X007107Y002840D01*
X007077Y002810D01*
X007013Y002690D02*
X006983Y002660D01*
X006923Y002660D01*
X006893Y002690D01*
X007980Y001860D02*
X008070Y001860D01*
X008100Y001830D01*
X008100Y001800D01*
X008070Y001770D01*
X007980Y001770D01*
X007980Y001680D02*
X008070Y001680D01*
X008100Y001710D01*
X008100Y001740D01*
X008070Y001770D01*
X008164Y001710D02*
X008194Y001680D01*
X008254Y001680D01*
X008284Y001710D01*
X008284Y001830D01*
X008254Y001860D01*
X008194Y001860D01*
X008164Y001830D01*
X008164Y001710D01*
X008348Y001710D02*
X008348Y001830D01*
X008378Y001860D01*
X008438Y001860D01*
X008468Y001830D01*
X008468Y001710D01*
X008438Y001680D01*
X008378Y001680D01*
X008348Y001710D01*
X008532Y001860D02*
X008653Y001860D01*
X008593Y001860D02*
X008593Y001680D01*
X007980Y001680D02*
X007980Y001860D01*
X009200Y001907D02*
X009246Y001860D01*
X009433Y001860D01*
X009480Y001907D01*
X009480Y002000D01*
X009433Y002047D01*
X009480Y002136D02*
X009200Y002136D01*
X009246Y002047D02*
X009200Y002000D01*
X009200Y001907D01*
X009340Y002136D02*
X009340Y002323D01*
X009340Y002412D02*
X009340Y002599D01*
X009480Y002553D02*
X009200Y002553D01*
X009340Y002412D01*
X009200Y002323D02*
X009480Y002323D01*
X010010Y002068D02*
X010010Y001978D01*
X010190Y001978D01*
X010190Y002068D01*
X010160Y002098D01*
X010040Y002098D01*
X010010Y002068D01*
X010010Y001914D02*
X010190Y001914D01*
X010010Y001794D01*
X010190Y001794D01*
X010160Y001730D02*
X010100Y001730D01*
X010100Y001670D01*
X010160Y001610D02*
X010190Y001640D01*
X010190Y001700D01*
X010160Y001730D01*
X010160Y001610D02*
X010040Y001610D01*
X010010Y001640D01*
X010010Y001700D01*
X010040Y001730D01*
X011090Y001720D02*
X011090Y001600D01*
X011090Y001660D02*
X011270Y001660D01*
X011270Y001784D02*
X011090Y001904D01*
X011090Y001968D02*
X011090Y002058D01*
X011120Y002088D01*
X011240Y002088D01*
X011270Y002058D01*
X011270Y001968D01*
X011090Y001968D01*
X011090Y001784D02*
X011270Y001904D01*
X012070Y001914D02*
X012250Y001794D01*
X012250Y001730D02*
X012190Y001670D01*
X012190Y001700D02*
X012190Y001610D01*
X012250Y001610D02*
X012070Y001610D01*
X012070Y001700D01*
X012100Y001730D01*
X012160Y001730D01*
X012190Y001700D01*
X012070Y001794D02*
X012250Y001914D01*
X012250Y001978D02*
X012070Y001978D01*
X012070Y002068D01*
X012100Y002098D01*
X012220Y002098D01*
X012250Y002068D01*
X012250Y001978D01*
X013050Y001988D02*
X013230Y001988D01*
X013170Y001988D02*
X013050Y002108D01*
X013140Y002018D02*
X013230Y002108D01*
X013200Y001924D02*
X013230Y001894D01*
X013230Y001834D01*
X013200Y001804D01*
X013080Y001804D01*
X013050Y001834D01*
X013050Y001894D01*
X013080Y001924D01*
X013050Y001740D02*
X013050Y001620D01*
X013050Y001680D02*
X013230Y001680D01*
X014060Y001690D02*
X014240Y001690D01*
X014240Y001814D02*
X014060Y001814D01*
X014120Y001874D01*
X014060Y001934D01*
X014240Y001934D01*
X014210Y001998D02*
X014240Y002028D01*
X014240Y002088D01*
X014210Y002118D01*
X014180Y002118D01*
X014150Y002088D01*
X014150Y002028D01*
X014120Y001998D01*
X014090Y001998D01*
X014060Y002028D01*
X014060Y002088D01*
X014090Y002118D01*
X014060Y001750D02*
X014060Y001630D01*
X015010Y001670D02*
X015010Y001790D01*
X015010Y001730D02*
X015190Y001730D01*
X015190Y001854D02*
X015010Y001854D01*
X015010Y001944D01*
X015040Y001974D01*
X015160Y001974D01*
X015190Y001944D01*
X015190Y001854D01*
X015190Y002038D02*
X015190Y002098D01*
X015190Y002068D02*
X015010Y002068D01*
X015010Y002038D02*
X015010Y002098D01*
X016850Y001138D02*
X016880Y001168D01*
X017000Y001168D01*
X017030Y001138D01*
X017030Y001078D01*
X017000Y001048D01*
X016880Y001048D01*
X016850Y001078D01*
X016850Y001138D01*
X016880Y000984D02*
X016850Y000954D01*
X016850Y000864D01*
X017030Y000864D01*
X017030Y000954D01*
X017000Y000984D01*
X016880Y000984D01*
X016850Y000800D02*
X016850Y000680D01*
X016850Y000740D02*
X017030Y000740D01*
X017040Y001570D02*
X017040Y001660D01*
X017010Y001690D01*
X016950Y001690D01*
X016920Y001660D01*
X016920Y001570D01*
X017100Y001570D01*
X017040Y001630D02*
X017100Y001690D01*
X017100Y001754D02*
X017100Y001874D01*
X017070Y001938D02*
X017100Y001968D01*
X017100Y002028D01*
X017070Y002058D01*
X017040Y002058D01*
X017010Y002028D01*
X017010Y001968D01*
X016980Y001938D01*
X016950Y001938D01*
X016920Y001968D01*
X016920Y002028D01*
X016950Y002058D01*
X016920Y002122D02*
X017100Y002122D01*
X017100Y002243D01*
X017010Y002183D02*
X017010Y002122D01*
X016920Y002122D02*
X016920Y002243D01*
X016920Y002307D02*
X016920Y002427D01*
X016920Y002367D02*
X017100Y002367D01*
X017400Y002700D02*
X017500Y002700D01*
X017500Y001700D01*
X017400Y001700D01*
X017100Y001754D02*
X016920Y001754D01*
X016920Y001874D01*
X017010Y001814D02*
X017010Y001754D01*
X018480Y001850D02*
X018510Y001820D01*
X018570Y001820D01*
X018600Y001850D01*
X018600Y001880D01*
X018570Y001910D01*
X018510Y001910D01*
X018480Y001940D01*
X018480Y001970D01*
X018510Y002000D01*
X018570Y002000D01*
X018600Y001970D01*
X018664Y001940D02*
X018724Y002000D01*
X018724Y001820D01*
X018664Y001820D02*
X018784Y001820D01*
X019700Y001700D02*
X019800Y001700D01*
X019700Y001700D02*
X019700Y002650D01*
X019800Y002650D01*
X018986Y005030D02*
X018926Y005030D01*
X018896Y005060D01*
X018832Y005030D02*
X018772Y005090D01*
X018802Y005090D02*
X018712Y005090D01*
X018712Y005030D02*
X018712Y005210D01*
X018802Y005210D01*
X018832Y005180D01*
X018832Y005120D01*
X018802Y005090D01*
X018896Y005180D02*
X018926Y005210D01*
X018986Y005210D01*
X019016Y005180D01*
X019016Y005150D01*
X018986Y005120D01*
X019016Y005090D01*
X019016Y005060D01*
X018986Y005030D01*
X018986Y005120D02*
X018956Y005120D01*
X017696Y006290D02*
X017696Y006470D01*
X017606Y006380D01*
X017726Y006380D01*
X017542Y006350D02*
X017542Y006320D01*
X017512Y006290D01*
X017452Y006290D01*
X017422Y006320D01*
X017358Y006290D02*
X017298Y006350D01*
X017328Y006350D02*
X017238Y006350D01*
X017238Y006290D02*
X017238Y006470D01*
X017328Y006470D01*
X017358Y006440D01*
X017358Y006380D01*
X017328Y006350D01*
X017422Y006440D02*
X017452Y006470D01*
X017512Y006470D01*
X017542Y006440D01*
X017542Y006410D01*
X017512Y006380D01*
X017542Y006350D01*
X017512Y006380D02*
X017482Y006380D01*
X018250Y007028D02*
X018250Y007118D01*
X018280Y007148D01*
X018340Y007148D01*
X018370Y007118D01*
X018370Y007028D01*
X018370Y007088D02*
X018430Y007148D01*
X018400Y007212D02*
X018430Y007242D01*
X018430Y007302D01*
X018400Y007332D01*
X018370Y007332D01*
X018340Y007302D01*
X018340Y007272D01*
X018340Y007302D02*
X018310Y007332D01*
X018280Y007332D01*
X018250Y007302D01*
X018250Y007242D01*
X018280Y007212D01*
X018250Y007396D02*
X018340Y007396D01*
X018310Y007456D01*
X018310Y007486D01*
X018340Y007516D01*
X018400Y007516D01*
X018430Y007486D01*
X018430Y007426D01*
X018400Y007396D01*
X018250Y007396D02*
X018250Y007516D01*
X018230Y007718D02*
X018230Y007808D01*
X018260Y007838D01*
X018320Y007838D01*
X018350Y007808D01*
X018350Y007718D01*
X018350Y007778D02*
X018410Y007838D01*
X018380Y007902D02*
X018410Y007932D01*
X018410Y007992D01*
X018380Y008022D01*
X018350Y008022D01*
X018320Y007992D01*
X018320Y007962D01*
X018320Y007992D02*
X018290Y008022D01*
X018260Y008022D01*
X018230Y007992D01*
X018230Y007932D01*
X018260Y007902D01*
X018230Y007718D02*
X018410Y007718D01*
X018380Y008086D02*
X018410Y008116D01*
X018410Y008176D01*
X018380Y008206D01*
X018350Y008206D01*
X018320Y008176D01*
X018320Y008086D01*
X018380Y008086D01*
X018320Y008086D02*
X018260Y008146D01*
X018230Y008206D01*
X017666Y008790D02*
X017666Y008820D01*
X017786Y008940D01*
X017786Y008970D01*
X017666Y008970D01*
X017602Y008940D02*
X017572Y008970D01*
X017512Y008970D01*
X017482Y008940D01*
X017418Y008940D02*
X017418Y008880D01*
X017388Y008850D01*
X017298Y008850D01*
X017358Y008850D02*
X017418Y008790D01*
X017482Y008820D02*
X017512Y008790D01*
X017572Y008790D01*
X017602Y008820D01*
X017602Y008850D01*
X017572Y008880D01*
X017542Y008880D01*
X017572Y008880D02*
X017602Y008910D01*
X017602Y008940D01*
X017418Y008940D02*
X017388Y008970D01*
X017298Y008970D01*
X017298Y008790D01*
X015916Y008510D02*
X015916Y008480D01*
X015886Y008450D01*
X015916Y008420D01*
X015916Y008390D01*
X015886Y008360D01*
X015826Y008360D01*
X015796Y008390D01*
X015732Y008390D02*
X015732Y008510D01*
X015702Y008540D01*
X015612Y008540D01*
X015612Y008360D01*
X015702Y008360D01*
X015732Y008390D01*
X015796Y008510D02*
X015826Y008540D01*
X015886Y008540D01*
X015916Y008510D01*
X015886Y008450D02*
X015856Y008450D01*
X015548Y008360D02*
X015428Y008360D01*
X015428Y008540D01*
X015548Y008540D01*
X015488Y008450D02*
X015428Y008450D01*
X015363Y008360D02*
X015243Y008360D01*
X015243Y008540D01*
X015066Y009060D02*
X015096Y009090D01*
X015096Y009120D01*
X015066Y009150D01*
X014976Y009150D01*
X014976Y009090D01*
X015006Y009060D01*
X015066Y009060D01*
X014976Y009150D02*
X015036Y009210D01*
X015096Y009240D01*
X014912Y009210D02*
X014882Y009240D01*
X014822Y009240D01*
X014792Y009210D01*
X014792Y009090D01*
X014822Y009060D01*
X014882Y009060D01*
X014912Y009090D01*
X014130Y010240D02*
X014160Y010270D01*
X014160Y010330D01*
X014130Y010360D01*
X014160Y010424D02*
X014040Y010544D01*
X014010Y010544D01*
X013980Y010514D01*
X013980Y010454D01*
X014010Y010424D01*
X014010Y010360D02*
X013980Y010330D01*
X013980Y010270D01*
X014010Y010240D01*
X014130Y010240D01*
X014160Y010424D02*
X014160Y010544D01*
X013686Y010570D02*
X013686Y010690D01*
X013656Y010720D01*
X013596Y010720D01*
X013566Y010690D01*
X013566Y010660D01*
X013596Y010630D01*
X013686Y010630D01*
X013686Y010570D02*
X013656Y010540D01*
X013596Y010540D01*
X013566Y010570D01*
X013502Y010570D02*
X013472Y010540D01*
X013412Y010540D01*
X013382Y010570D01*
X013382Y010690D01*
X013412Y010720D01*
X013472Y010720D01*
X013502Y010690D01*
X012930Y011288D02*
X012930Y011348D01*
X012900Y011378D01*
X012930Y011442D02*
X012930Y011562D01*
X012930Y011502D02*
X012750Y011502D01*
X012810Y011442D01*
X012780Y011378D02*
X012750Y011348D01*
X012750Y011288D01*
X012780Y011258D01*
X012900Y011258D01*
X012930Y011288D01*
X012900Y011626D02*
X012780Y011626D01*
X012750Y011656D01*
X012750Y011716D01*
X012780Y011746D01*
X012900Y011626D01*
X012930Y011656D01*
X012930Y011716D01*
X012900Y011746D01*
X012780Y011746D01*
X011876Y012240D02*
X011846Y012210D01*
X011786Y012210D01*
X011756Y012240D01*
X011756Y012270D01*
X011786Y012300D01*
X011846Y012300D01*
X011876Y012270D01*
X011876Y012240D01*
X011846Y012300D02*
X011876Y012330D01*
X011876Y012360D01*
X011846Y012390D01*
X011786Y012390D01*
X011756Y012360D01*
X011756Y012330D01*
X011786Y012300D01*
X011692Y012240D02*
X011662Y012210D01*
X011602Y012210D01*
X011572Y012240D01*
X011572Y012360D01*
X011602Y012390D01*
X011662Y012390D01*
X011692Y012360D01*
X010468Y012400D02*
X010348Y012280D01*
X010348Y012250D01*
X010284Y012250D02*
X010164Y012250D01*
X010224Y012250D02*
X010224Y012430D01*
X010164Y012370D01*
X010100Y012340D02*
X010070Y012310D01*
X009980Y012310D01*
X009980Y012250D02*
X009980Y012430D01*
X010070Y012430D01*
X010100Y012400D01*
X010100Y012340D01*
X010040Y012310D02*
X010100Y012250D01*
X010348Y012430D02*
X010468Y012430D01*
X010468Y012400D01*
X009600Y012046D02*
X009600Y011986D01*
X009570Y011956D01*
X009510Y011956D01*
X009510Y012046D01*
X009540Y012076D01*
X009570Y012076D01*
X009600Y012046D01*
X009510Y011956D02*
X009450Y012016D01*
X009420Y012076D01*
X009600Y011892D02*
X009600Y011772D01*
X009600Y011832D02*
X009420Y011832D01*
X009480Y011772D01*
X009510Y011708D02*
X009540Y011678D01*
X009540Y011588D01*
X009540Y011648D02*
X009600Y011708D01*
X009510Y011708D02*
X009450Y011708D01*
X009420Y011678D01*
X009420Y011588D01*
X009600Y011588D01*
X009673Y011220D02*
X009673Y010940D01*
X009762Y010940D02*
X009949Y010940D01*
X009856Y010940D02*
X009856Y011220D01*
X009762Y011127D01*
X009673Y011080D02*
X009486Y011080D01*
X009397Y010987D02*
X009350Y010940D01*
X009257Y010940D01*
X009210Y010987D01*
X009210Y011174D01*
X009257Y011220D01*
X009350Y011220D01*
X009397Y011174D01*
X009486Y011220D02*
X009486Y010940D01*
X009466Y009970D02*
X009466Y009940D01*
X009346Y009820D01*
X009346Y009790D01*
X009282Y009820D02*
X009252Y009790D01*
X009192Y009790D01*
X009162Y009820D01*
X009162Y009940D01*
X009192Y009970D01*
X009252Y009970D01*
X009282Y009940D01*
X009346Y009970D02*
X009466Y009970D01*
X009433Y009210D02*
X009339Y009210D01*
X009292Y009164D01*
X009203Y009210D02*
X009203Y008930D01*
X009292Y008930D02*
X009479Y009117D01*
X009479Y009164D01*
X009433Y009210D01*
X009203Y009070D02*
X009016Y009070D01*
X008927Y008977D02*
X008880Y008930D01*
X008787Y008930D01*
X008740Y008977D01*
X008740Y009164D01*
X008787Y009210D01*
X008880Y009210D01*
X008927Y009164D01*
X009016Y009210D02*
X009016Y008930D01*
X009292Y008930D02*
X009479Y008930D01*
X007830Y009388D02*
X007650Y009388D01*
X007650Y009478D01*
X007680Y009508D01*
X007740Y009508D01*
X007770Y009478D01*
X007770Y009388D01*
X007770Y009448D02*
X007830Y009508D01*
X007830Y009572D02*
X007710Y009692D01*
X007680Y009692D01*
X007650Y009662D01*
X007650Y009602D01*
X007680Y009572D01*
X007830Y009572D02*
X007830Y009692D01*
X007800Y009756D02*
X007830Y009786D01*
X007830Y009846D01*
X007800Y009876D01*
X007740Y009876D01*
X007710Y009846D01*
X007710Y009816D01*
X007740Y009756D01*
X007650Y009756D01*
X007650Y009876D01*
X007086Y010430D02*
X007056Y010400D01*
X006996Y010400D01*
X006966Y010430D01*
X006902Y010430D02*
X006872Y010400D01*
X006812Y010400D01*
X006782Y010430D01*
X006718Y010430D02*
X006688Y010400D01*
X006628Y010400D01*
X006598Y010430D01*
X006598Y010550D01*
X006628Y010580D01*
X006688Y010580D01*
X006718Y010550D01*
X006782Y010550D02*
X006812Y010580D01*
X006872Y010580D01*
X006902Y010550D01*
X006902Y010520D01*
X006872Y010490D01*
X006902Y010460D01*
X006902Y010430D01*
X006872Y010490D02*
X006842Y010490D01*
X006966Y010550D02*
X006996Y010580D01*
X007056Y010580D01*
X007086Y010550D01*
X007086Y010520D01*
X007056Y010490D01*
X007086Y010460D01*
X007086Y010430D01*
X007056Y010490D02*
X007026Y010490D01*
X007033Y011050D02*
X007093Y011050D01*
X007123Y011080D01*
X007187Y011140D02*
X007307Y011140D01*
X007277Y011050D02*
X007277Y011230D01*
X007187Y011140D01*
X007123Y011200D02*
X007093Y011230D01*
X007033Y011230D01*
X007003Y011200D01*
X007003Y011080D01*
X007033Y011050D01*
X006940Y011050D02*
X006880Y011050D01*
X006910Y011050D02*
X006910Y011230D01*
X006880Y011230D02*
X006940Y011230D01*
X006542Y011522D02*
X006544Y011549D01*
X006550Y011576D01*
X006559Y011602D01*
X006572Y011626D01*
X006588Y011649D01*
X006607Y011668D01*
X006629Y011685D01*
X006653Y011699D01*
X006678Y011709D01*
X006705Y011716D01*
X006732Y011719D01*
X006760Y011718D01*
X006787Y011713D01*
X006813Y011705D01*
X006837Y011693D01*
X006860Y011677D01*
X006881Y011659D01*
X006898Y011638D01*
X006913Y011614D01*
X006924Y011589D01*
X006932Y011563D01*
X006936Y011536D01*
X006936Y011508D01*
X006932Y011481D01*
X006924Y011455D01*
X006913Y011430D01*
X006898Y011406D01*
X006881Y011385D01*
X006860Y011367D01*
X006838Y011351D01*
X006813Y011339D01*
X006787Y011331D01*
X006760Y011326D01*
X006732Y011325D01*
X006705Y011328D01*
X006678Y011335D01*
X006653Y011345D01*
X006629Y011359D01*
X006607Y011376D01*
X006588Y011395D01*
X006572Y011418D01*
X006559Y011442D01*
X006550Y011468D01*
X006544Y011495D01*
X006542Y011522D01*
X005750Y011296D02*
X005750Y011236D01*
X005720Y011206D01*
X005600Y011326D01*
X005720Y011326D01*
X005750Y011296D01*
X005720Y011206D02*
X005600Y011206D01*
X005570Y011236D01*
X005570Y011296D01*
X005600Y011326D01*
X005600Y011142D02*
X005570Y011112D01*
X005570Y011052D01*
X005600Y011022D01*
X005600Y010958D02*
X005660Y010958D01*
X005690Y010928D01*
X005690Y010838D01*
X005690Y010898D02*
X005750Y010958D01*
X005750Y011022D02*
X005630Y011142D01*
X005600Y011142D01*
X005750Y011142D02*
X005750Y011022D01*
X005600Y010958D02*
X005570Y010928D01*
X005570Y010838D01*
X005750Y010838D01*
X005650Y009996D02*
X005650Y009876D01*
X005560Y009966D01*
X005740Y009966D01*
X005740Y009812D02*
X005740Y009692D01*
X005620Y009812D01*
X005590Y009812D01*
X005560Y009782D01*
X005560Y009722D01*
X005590Y009692D01*
X005590Y009628D02*
X005650Y009628D01*
X005680Y009598D01*
X005680Y009508D01*
X005680Y009568D02*
X005740Y009628D01*
X005740Y009508D02*
X005560Y009508D01*
X005560Y009598D01*
X005590Y009628D01*
X006542Y009022D02*
X006544Y009049D01*
X006550Y009076D01*
X006559Y009102D01*
X006572Y009126D01*
X006588Y009149D01*
X006607Y009168D01*
X006629Y009185D01*
X006653Y009199D01*
X006678Y009209D01*
X006705Y009216D01*
X006732Y009219D01*
X006760Y009218D01*
X006787Y009213D01*
X006813Y009205D01*
X006837Y009193D01*
X006860Y009177D01*
X006881Y009159D01*
X006898Y009138D01*
X006913Y009114D01*
X006924Y009089D01*
X006932Y009063D01*
X006936Y009036D01*
X006936Y009008D01*
X006932Y008981D01*
X006924Y008955D01*
X006913Y008930D01*
X006898Y008906D01*
X006881Y008885D01*
X006860Y008867D01*
X006838Y008851D01*
X006813Y008839D01*
X006787Y008831D01*
X006760Y008826D01*
X006732Y008825D01*
X006705Y008828D01*
X006678Y008835D01*
X006653Y008845D01*
X006629Y008859D01*
X006607Y008876D01*
X006588Y008895D01*
X006572Y008918D01*
X006559Y008942D01*
X006550Y008968D01*
X006544Y008995D01*
X006542Y009022D01*
X006830Y008730D02*
X006890Y008730D01*
X006860Y008730D02*
X006860Y008550D01*
X006830Y008550D02*
X006890Y008550D01*
X006953Y008580D02*
X006983Y008550D01*
X007043Y008550D01*
X007073Y008580D01*
X007137Y008580D02*
X007167Y008550D01*
X007227Y008550D01*
X007257Y008580D01*
X007257Y008640D01*
X007227Y008670D01*
X007197Y008670D01*
X007137Y008640D01*
X007137Y008730D01*
X007257Y008730D01*
X007073Y008700D02*
X007043Y008730D01*
X006983Y008730D01*
X006953Y008700D01*
X006953Y008580D01*
X005870Y007148D02*
X005900Y007118D01*
X005900Y007058D01*
X005870Y007028D01*
X005840Y007028D01*
X005810Y007058D01*
X005810Y007118D01*
X005840Y007148D01*
X005870Y007148D01*
X005810Y007118D02*
X005780Y007148D01*
X005750Y007148D01*
X005720Y007118D01*
X005720Y007058D01*
X005750Y007028D01*
X005780Y007028D01*
X005810Y007058D01*
X005780Y006964D02*
X005750Y006964D01*
X005720Y006934D01*
X005720Y006874D01*
X005750Y006844D01*
X005750Y006780D02*
X005720Y006750D01*
X005720Y006690D01*
X005750Y006660D01*
X005870Y006660D01*
X005900Y006690D01*
X005900Y006750D01*
X005870Y006780D01*
X005900Y006844D02*
X005780Y006964D01*
X005900Y006964D02*
X005900Y006844D01*
X005140Y006852D02*
X004960Y006852D01*
X005020Y006792D01*
X005050Y006728D02*
X005080Y006698D01*
X005080Y006608D01*
X005080Y006668D02*
X005140Y006728D01*
X005140Y006792D02*
X005140Y006912D01*
X005050Y006976D02*
X005050Y007096D01*
X005140Y007066D02*
X004960Y007066D01*
X005050Y006976D01*
X005050Y006728D02*
X004990Y006728D01*
X004960Y006698D01*
X004960Y006608D01*
X005140Y006608D01*
X005120Y005896D02*
X005090Y005896D01*
X005060Y005866D01*
X005060Y005806D01*
X005030Y005776D01*
X005000Y005776D01*
X004970Y005806D01*
X004970Y005866D01*
X005000Y005896D01*
X005030Y005896D01*
X005060Y005866D01*
X005060Y005806D02*
X005090Y005776D01*
X005120Y005776D01*
X005150Y005806D01*
X005150Y005866D01*
X005120Y005896D01*
X005150Y005712D02*
X005150Y005592D01*
X005030Y005712D01*
X005000Y005712D01*
X004970Y005682D01*
X004970Y005622D01*
X005000Y005592D01*
X005000Y005528D02*
X005060Y005528D01*
X005090Y005498D01*
X005090Y005408D01*
X005090Y005468D02*
X005150Y005528D01*
X005150Y005408D02*
X004970Y005408D01*
X004970Y005498D01*
X005000Y005528D01*
X003758Y006040D02*
X003638Y006040D01*
X003698Y006040D02*
X003698Y006220D01*
X003638Y006160D01*
X003574Y006040D02*
X003454Y006040D01*
X003514Y006040D02*
X003514Y006220D01*
X003454Y006160D01*
X003390Y006130D02*
X003360Y006100D01*
X003270Y006100D01*
X003270Y006040D02*
X003270Y006220D01*
X003360Y006220D01*
X003390Y006190D01*
X003390Y006130D01*
X003330Y006100D02*
X003390Y006040D01*
X005770Y004376D02*
X005770Y004316D01*
X005800Y004286D01*
X005800Y004222D02*
X005770Y004192D01*
X005770Y004132D01*
X005800Y004102D01*
X005800Y004038D02*
X005860Y004038D01*
X005890Y004008D01*
X005890Y003918D01*
X005890Y003978D02*
X005950Y004038D01*
X005920Y004102D02*
X005950Y004132D01*
X005950Y004192D01*
X005920Y004222D01*
X005890Y004222D01*
X005860Y004192D01*
X005860Y004162D01*
X005860Y004192D02*
X005830Y004222D01*
X005800Y004222D01*
X005770Y004376D02*
X005800Y004406D01*
X005830Y004406D01*
X005950Y004286D01*
X005950Y004406D01*
X005800Y004038D02*
X005770Y004008D01*
X005770Y003918D01*
X005950Y003918D01*
X005040Y003036D02*
X004920Y003036D01*
X004890Y003006D01*
X004890Y002946D01*
X004920Y002916D01*
X004950Y002916D01*
X004980Y002946D01*
X004980Y003036D01*
X005040Y003036D02*
X005070Y003006D01*
X005070Y002946D01*
X005040Y002916D01*
X005070Y002852D02*
X005070Y002732D01*
X004950Y002852D01*
X004920Y002852D01*
X004890Y002822D01*
X004890Y002762D01*
X004920Y002732D01*
X004920Y002668D02*
X004890Y002638D01*
X004890Y002578D01*
X004920Y002548D01*
X005040Y002548D01*
X005070Y002578D01*
X005070Y002638D01*
X005040Y002668D01*
X004260Y002658D02*
X004200Y002598D01*
X004200Y002628D02*
X004200Y002538D01*
X004260Y002538D02*
X004080Y002538D01*
X004080Y002628D01*
X004110Y002658D01*
X004170Y002658D01*
X004200Y002628D01*
X004260Y002722D02*
X004260Y002842D01*
X004260Y002782D02*
X004080Y002782D01*
X004140Y002722D01*
X004170Y002906D02*
X004140Y002966D01*
X004140Y002996D01*
X004170Y003026D01*
X004230Y003026D01*
X004260Y002996D01*
X004260Y002936D01*
X004230Y002906D01*
X004170Y002906D02*
X004080Y002906D01*
X004080Y003026D01*
X003598Y003490D02*
X003568Y003460D01*
X003508Y003460D01*
X003478Y003490D01*
X003414Y003460D02*
X003294Y003460D01*
X003354Y003460D02*
X003354Y003640D01*
X003294Y003580D01*
X003230Y003550D02*
X003200Y003520D01*
X003110Y003520D01*
X003110Y003460D02*
X003110Y003640D01*
X003200Y003640D01*
X003230Y003610D01*
X003230Y003550D01*
X003170Y003520D02*
X003230Y003460D01*
X003478Y003610D02*
X003508Y003640D01*
X003568Y003640D01*
X003598Y003610D01*
X003598Y003580D01*
X003568Y003550D01*
X003598Y003520D01*
X003598Y003490D01*
X003568Y003550D02*
X003538Y003550D01*
X003546Y002290D02*
X003546Y002260D01*
X003426Y002140D01*
X003426Y002110D01*
X003362Y002110D02*
X003242Y002110D01*
X003362Y002230D01*
X003362Y002260D01*
X003332Y002290D01*
X003272Y002290D01*
X003242Y002260D01*
X003178Y002260D02*
X003148Y002290D01*
X003088Y002290D01*
X003058Y002260D01*
X003058Y002140D01*
X003088Y002110D01*
X003148Y002110D01*
X003178Y002140D01*
X003426Y002290D02*
X003546Y002290D01*
X006350Y001200D02*
X006380Y001230D01*
X006350Y001200D02*
X006350Y001140D01*
X006380Y001110D01*
X006410Y001110D01*
X006440Y001140D01*
X006440Y001170D01*
X006440Y001140D02*
X006470Y001110D01*
X006500Y001110D01*
X006530Y001140D01*
X006530Y001200D01*
X006500Y001230D01*
X006380Y001046D02*
X006380Y001016D01*
X006350Y001016D01*
X006350Y001046D01*
X006380Y001046D01*
X006380Y000954D02*
X006350Y000924D01*
X006350Y000864D01*
X006380Y000834D01*
X006410Y000834D01*
X006440Y000864D01*
X006440Y000894D01*
X006440Y000864D02*
X006470Y000834D01*
X006500Y000834D01*
X006530Y000864D01*
X006530Y000924D01*
X006500Y000954D01*
X006530Y000770D02*
X006410Y000770D01*
X006350Y000710D01*
X006410Y000650D01*
X006530Y000650D01*
X008896Y005850D02*
X008850Y005897D01*
X008850Y005990D01*
X008896Y006037D01*
X008850Y006126D02*
X009130Y006126D01*
X009083Y006037D02*
X009130Y005990D01*
X009130Y005897D01*
X009083Y005850D01*
X008896Y005850D01*
X008990Y006126D02*
X008990Y006313D01*
X009083Y006402D02*
X009130Y006449D01*
X009130Y006543D01*
X009083Y006589D01*
X009037Y006589D01*
X008990Y006543D01*
X008990Y006496D01*
X008990Y006543D02*
X008943Y006589D01*
X008896Y006589D01*
X008850Y006543D01*
X008850Y006449D01*
X008896Y006402D01*
X008850Y006313D02*
X009130Y006313D01*
X009450Y006286D02*
X009450Y006226D01*
X009480Y006196D01*
X009450Y006286D02*
X009480Y006316D01*
X009510Y006316D01*
X009630Y006196D01*
X009630Y006316D01*
X009630Y006132D02*
X009630Y006012D01*
X009630Y006072D02*
X009450Y006072D01*
X009510Y006012D01*
X009480Y005948D02*
X009450Y005918D01*
X009450Y005858D01*
X009480Y005828D01*
X009600Y005828D01*
X009630Y005858D01*
X009630Y005918D01*
X009600Y005948D01*
X012252Y008179D02*
X012312Y008179D01*
X012282Y008179D02*
X012282Y008359D01*
X012252Y008359D02*
X012312Y008359D01*
X012374Y008329D02*
X012374Y008209D01*
X012404Y008179D01*
X012464Y008179D01*
X012494Y008209D01*
X012559Y008179D02*
X012679Y008179D01*
X012619Y008179D02*
X012619Y008359D01*
X012559Y008299D01*
X012494Y008329D02*
X012464Y008359D01*
X012404Y008359D01*
X012374Y008329D01*
X015223Y006890D02*
X015223Y006710D01*
X015343Y006710D01*
X015408Y006710D02*
X015528Y006710D01*
X015592Y006710D02*
X015592Y006890D01*
X015682Y006890D01*
X015712Y006860D01*
X015712Y006740D01*
X015682Y006710D01*
X015592Y006710D01*
X015468Y006800D02*
X015408Y006800D01*
X015408Y006890D02*
X015408Y006710D01*
X015408Y006890D02*
X015528Y006890D01*
X015776Y006860D02*
X015776Y006740D01*
X015896Y006860D01*
X015896Y006740D01*
X015866Y006710D01*
X015806Y006710D01*
X015776Y006740D01*
X015776Y006860D02*
X015806Y006890D01*
X015866Y006890D01*
X015896Y006860D01*
X015530Y005806D02*
X015560Y005776D01*
X015560Y005716D01*
X015530Y005686D01*
X015470Y005686D02*
X015440Y005746D01*
X015440Y005776D01*
X015470Y005806D01*
X015530Y005806D01*
X015470Y005686D02*
X015380Y005686D01*
X015380Y005806D01*
X015410Y005622D02*
X015380Y005592D01*
X015380Y005532D01*
X015410Y005502D01*
X015530Y005502D01*
X015560Y005532D01*
X015560Y005592D01*
X015530Y005622D01*
X018250Y007028D02*
X018430Y007028D01*
X017748Y011490D02*
X017568Y011610D01*
X017628Y011674D02*
X017568Y011734D01*
X017748Y011734D01*
X017748Y011674D02*
X017748Y011794D01*
X017748Y011610D02*
X017568Y011490D01*
X017180Y012362D02*
X017060Y012362D01*
X017030Y012392D01*
X017030Y012452D01*
X017060Y012482D01*
X017090Y012546D02*
X017030Y012606D01*
X017210Y012606D01*
X017210Y012546D02*
X017210Y012666D01*
X017180Y012482D02*
X017210Y012452D01*
X017210Y012392D01*
X017180Y012362D01*
X016254Y013510D02*
X016134Y013510D01*
X016194Y013510D02*
X016194Y013690D01*
X016134Y013630D01*
X016070Y013600D02*
X016040Y013570D01*
X015950Y013570D01*
X015950Y013510D02*
X015950Y013690D01*
X016040Y013690D01*
X016070Y013660D01*
X016070Y013600D01*
X016010Y013570D02*
X016070Y013510D01*
X014760Y013878D02*
X014580Y013878D01*
X014580Y013968D01*
X014610Y013998D01*
X014670Y013998D01*
X014700Y013968D01*
X014700Y013878D01*
X014760Y014062D02*
X014580Y014062D01*
X014580Y014182D02*
X014760Y014182D01*
X014700Y014122D01*
X014760Y014062D01*
X014760Y014246D02*
X014580Y014246D01*
X014580Y014336D01*
X014610Y014366D01*
X014670Y014366D01*
X014700Y014336D01*
X014700Y014246D01*
X014700Y014306D02*
X014760Y014366D01*
X013786Y012660D02*
X013786Y012480D01*
X013726Y012480D02*
X013846Y012480D01*
X013726Y012600D02*
X013786Y012660D01*
X013602Y012660D02*
X013602Y012480D01*
X013542Y012480D02*
X013662Y012480D01*
X013542Y012600D02*
X013602Y012660D01*
X013478Y012630D02*
X013448Y012660D01*
X013388Y012660D01*
X013358Y012630D01*
X013358Y012510D01*
X013388Y012480D01*
X013448Y012480D01*
X013478Y012510D01*
X015200Y012417D02*
X015200Y012357D01*
X015230Y012327D01*
X015230Y012263D02*
X015200Y012233D01*
X015200Y012173D01*
X015230Y012143D01*
X015350Y012143D01*
X015380Y012173D01*
X015380Y012233D01*
X015350Y012263D01*
X015380Y012327D02*
X015260Y012447D01*
X015230Y012447D01*
X015200Y012417D01*
X015380Y012447D02*
X015380Y012327D01*
X015380Y012080D02*
X015380Y012020D01*
X015380Y012050D02*
X015200Y012050D01*
X015200Y012020D02*
X015200Y012080D01*
X011060Y011456D02*
X011060Y011396D01*
X011030Y011366D01*
X011030Y011302D02*
X011060Y011272D01*
X011060Y011212D01*
X011030Y011182D01*
X010910Y011182D01*
X010880Y011212D01*
X010880Y011272D01*
X010910Y011302D01*
X010910Y011366D02*
X010880Y011396D01*
X010880Y011456D01*
X010910Y011486D01*
X010940Y011486D01*
X010970Y011456D01*
X011000Y011486D01*
X011030Y011486D01*
X011060Y011456D01*
X010970Y011456D02*
X010970Y011426D01*
X007810Y011928D02*
X007630Y011928D01*
X007630Y012018D01*
X007660Y012048D01*
X007720Y012048D01*
X007750Y012018D01*
X007750Y011928D01*
X007750Y011988D02*
X007810Y012048D01*
X007810Y012112D02*
X007690Y012232D01*
X007660Y012232D01*
X007630Y012202D01*
X007630Y012142D01*
X007660Y012112D01*
X007810Y012112D02*
X007810Y012232D01*
X007810Y012296D02*
X007810Y012416D01*
X007810Y012356D02*
X007630Y012356D01*
X007690Y012296D01*
X007246Y012890D02*
X007126Y012890D01*
X007246Y013010D01*
X007246Y013040D01*
X007216Y013070D01*
X007156Y013070D01*
X007126Y013040D01*
X007062Y013040D02*
X007062Y013010D01*
X007032Y012980D01*
X007062Y012950D01*
X007062Y012920D01*
X007032Y012890D01*
X006972Y012890D01*
X006942Y012920D01*
X006878Y012920D02*
X006848Y012890D01*
X006788Y012890D01*
X006758Y012920D01*
X006758Y013040D01*
X006788Y013070D01*
X006848Y013070D01*
X006878Y013040D01*
X006942Y013040D02*
X006972Y013070D01*
X007032Y013070D01*
X007062Y013040D01*
X007032Y012980D02*
X007002Y012980D01*
X005810Y012678D02*
X005810Y012558D01*
X005810Y012618D02*
X005630Y012618D01*
X005690Y012558D01*
X005690Y012494D02*
X005660Y012494D01*
X005630Y012464D01*
X005630Y012404D01*
X005660Y012374D01*
X005660Y012310D02*
X005630Y012280D01*
X005630Y012220D01*
X005660Y012190D01*
X005780Y012190D01*
X005810Y012220D01*
X005810Y012280D01*
X005780Y012310D01*
X005810Y012374D02*
X005690Y012494D01*
X005810Y012494D02*
X005810Y012374D01*
X004370Y012372D02*
X004310Y012312D01*
X004310Y012342D02*
X004310Y012252D01*
X004370Y012252D02*
X004190Y012252D01*
X004190Y012342D01*
X004220Y012372D01*
X004280Y012372D01*
X004310Y012342D01*
X004310Y012436D02*
X004280Y012466D01*
X004280Y012526D01*
X004310Y012556D01*
X004340Y012556D01*
X004370Y012526D01*
X004370Y012466D01*
X004340Y012436D01*
X004310Y012436D01*
X004280Y012466D02*
X004250Y012436D01*
X004220Y012436D01*
X004190Y012466D01*
X004190Y012526D01*
X004220Y012556D01*
X004250Y012556D01*
X004280Y012526D01*
X003738Y012950D02*
X003738Y013070D01*
X003708Y013100D01*
X003648Y013100D01*
X003618Y013070D01*
X003618Y013040D01*
X003648Y013010D01*
X003738Y013010D01*
X003738Y012950D02*
X003708Y012920D01*
X003648Y012920D01*
X003618Y012950D01*
X003554Y012920D02*
X003434Y012920D01*
X003494Y012920D02*
X003494Y013100D01*
X003434Y013040D01*
X003370Y013070D02*
X003340Y013100D01*
X003280Y013100D01*
X003250Y013070D01*
X003250Y012950D01*
X003280Y012920D01*
X003340Y012920D01*
X003370Y012950D01*
X002790Y012526D02*
X002610Y012526D01*
X002700Y012436D01*
X002700Y012556D01*
X002700Y012372D02*
X002640Y012372D01*
X002610Y012342D01*
X002610Y012252D01*
X002790Y012252D01*
X002730Y012252D02*
X002730Y012342D01*
X002700Y012372D01*
X002730Y012312D02*
X002790Y012372D01*
X003350Y011780D02*
X003440Y011780D01*
X003470Y011750D01*
X003470Y011690D01*
X003440Y011660D01*
X003350Y011660D01*
X003350Y011600D02*
X003350Y011780D01*
X003410Y011660D02*
X003470Y011600D01*
X003534Y011630D02*
X003564Y011600D01*
X003624Y011600D01*
X003654Y011630D01*
X003654Y011690D01*
X003624Y011720D01*
X003594Y011720D01*
X003534Y011690D01*
X003534Y011780D01*
X003654Y011780D01*
X003527Y010560D02*
X003557Y010530D01*
X003557Y010500D01*
X003527Y010470D01*
X003557Y010440D01*
X003557Y010410D01*
X003527Y010380D01*
X003467Y010380D01*
X003437Y010410D01*
X003373Y010410D02*
X003343Y010380D01*
X003283Y010380D01*
X003253Y010410D01*
X003253Y010530D01*
X003283Y010560D01*
X003343Y010560D01*
X003373Y010530D01*
X003437Y010530D02*
X003467Y010560D01*
X003527Y010560D01*
X003527Y010470D02*
X003497Y010470D01*
X003190Y010380D02*
X003130Y010380D01*
X003160Y010380D02*
X003160Y010560D01*
X003130Y010560D02*
X003190Y010560D01*
X001770Y011059D02*
X001590Y011059D01*
X001590Y011119D02*
X001590Y010999D01*
X001710Y011119D02*
X001770Y011059D01*
X001740Y011183D02*
X001770Y011213D01*
X001770Y011273D01*
X001740Y011303D01*
X001620Y011303D01*
X001590Y011273D01*
X001590Y011213D01*
X001620Y011183D01*
X001680Y011183D01*
X001680Y011243D01*
X001590Y011366D02*
X001590Y011426D01*
X001590Y011396D02*
X001770Y011396D01*
X001770Y011426D02*
X001770Y011366D01*
X001740Y011490D02*
X001770Y011520D01*
X001770Y011580D01*
X001740Y011610D01*
X001710Y011610D01*
X001680Y011580D01*
X001680Y011520D01*
X001650Y011490D01*
X001620Y011490D01*
X001590Y011520D01*
X001590Y011580D01*
X001620Y011610D01*
X001600Y011897D02*
X001600Y012018D01*
X001600Y011957D02*
X001780Y011957D01*
X001720Y012018D01*
X001780Y012082D02*
X001780Y012202D01*
X001600Y012202D01*
X001600Y012266D02*
X001600Y012386D01*
X001780Y012386D01*
X001780Y012266D01*
X001690Y012326D02*
X001690Y012386D01*
X001690Y012450D02*
X001660Y012480D01*
X001660Y012570D01*
X001600Y012570D02*
X001780Y012570D01*
X001780Y012480D01*
X001750Y012450D01*
X001690Y012450D01*
X001660Y012510D02*
X001600Y012450D01*
X001690Y012202D02*
X001690Y012142D01*
X000700Y014022D02*
X000580Y014022D01*
X000550Y014052D01*
X000550Y014142D01*
X000730Y014142D01*
X000730Y014052D01*
X000700Y014022D01*
X000730Y014206D02*
X000550Y014206D01*
X000730Y014326D01*
X000550Y014326D01*
X000580Y014390D02*
X000640Y014390D01*
X000640Y014450D01*
X000580Y014510D02*
X000550Y014480D01*
X000550Y014420D01*
X000580Y014390D01*
X000580Y014510D02*
X000700Y014510D01*
X000730Y014480D01*
X000730Y014420D01*
X000700Y014390D01*
X006340Y014430D02*
X006370Y014400D01*
X006430Y014400D01*
X006430Y014460D01*
X006370Y014520D02*
X006340Y014490D01*
X006340Y014430D01*
X006340Y014336D02*
X006520Y014336D01*
X006340Y014216D01*
X006520Y014216D01*
X006520Y014152D02*
X006520Y014062D01*
X006490Y014032D01*
X006370Y014032D01*
X006340Y014062D01*
X006340Y014152D01*
X006520Y014152D01*
X006490Y014400D02*
X006520Y014430D01*
X006520Y014490D01*
X006490Y014520D01*
X006370Y014520D01*
X001750Y009780D02*
X001750Y009690D01*
X001720Y009660D01*
X001660Y009660D01*
X001630Y009690D01*
X001630Y009780D01*
X001570Y009780D02*
X001750Y009780D01*
X001630Y009720D02*
X001570Y009660D01*
X001570Y009596D02*
X001570Y009476D01*
X001570Y009412D02*
X001750Y009412D01*
X001750Y009292D01*
X001720Y009228D02*
X001750Y009198D01*
X001750Y009137D01*
X001720Y009107D01*
X001690Y009107D01*
X001570Y009228D01*
X001570Y009107D01*
X001660Y009352D02*
X001660Y009412D01*
X001750Y009476D02*
X001750Y009596D01*
X001570Y009596D01*
X001660Y009596D02*
X001660Y009536D01*
X001690Y008760D02*
X001660Y008730D01*
X001660Y008670D01*
X001630Y008640D01*
X001600Y008640D01*
X001570Y008670D01*
X001570Y008730D01*
X001600Y008760D01*
X001690Y008760D02*
X001720Y008760D01*
X001750Y008730D01*
X001750Y008670D01*
X001720Y008640D01*
X001750Y008576D02*
X001750Y008516D01*
X001750Y008546D02*
X001570Y008546D01*
X001570Y008576D02*
X001570Y008516D01*
X001600Y008453D02*
X001570Y008423D01*
X001570Y008363D01*
X001600Y008333D01*
X001660Y008333D01*
X001660Y008393D01*
X001720Y008453D02*
X001600Y008453D01*
X001720Y008453D02*
X001750Y008423D01*
X001750Y008363D01*
X001720Y008333D01*
X001720Y008269D02*
X001750Y008239D01*
X001750Y008179D01*
X001720Y008149D01*
X001690Y008149D01*
X001570Y008269D01*
X001570Y008149D01*
X003350Y008980D02*
X003350Y009160D01*
X003440Y009160D01*
X003470Y009130D01*
X003470Y009070D01*
X003440Y009040D01*
X003350Y009040D01*
X003410Y009040D02*
X003470Y008980D01*
X003534Y008980D02*
X003534Y009010D01*
X003654Y009130D01*
X003654Y009160D01*
X003534Y009160D01*
D12*
X017565Y014260D02*
X017812Y014260D01*
X017688Y014137D02*
X017688Y014384D01*
D13*
X018720Y014189D02*
X018897Y014189D01*
X018779Y013716D02*
X018720Y013716D01*
X018779Y013716D02*
X018779Y011984D01*
X018720Y011984D01*
X018720Y011511D02*
X018897Y011511D01*
X019921Y011511D02*
X019921Y014189D01*
X015619Y012760D02*
X015619Y011640D01*
X014981Y011640D01*
X014981Y012760D01*
X015619Y012760D01*
X012239Y010245D02*
X014745Y007739D01*
X014745Y007461D01*
X012211Y004927D01*
X011989Y004927D01*
X009427Y007489D01*
X009427Y007711D01*
X011961Y010245D01*
X012239Y010245D01*
X011958Y009771D02*
X011960Y009794D01*
X011966Y009817D01*
X011975Y009839D01*
X011988Y009858D01*
X012004Y009875D01*
X012022Y009890D01*
X012043Y009901D01*
X012065Y009909D01*
X012088Y009913D01*
X012112Y009913D01*
X012135Y009909D01*
X012157Y009901D01*
X012178Y009890D01*
X012196Y009875D01*
X012212Y009858D01*
X012225Y009839D01*
X012234Y009817D01*
X012240Y009794D01*
X012242Y009771D01*
X012240Y009748D01*
X012234Y009725D01*
X012225Y009703D01*
X012212Y009684D01*
X012196Y009667D01*
X012178Y009652D01*
X012157Y009641D01*
X012135Y009633D01*
X012112Y009629D01*
X012088Y009629D01*
X012065Y009633D01*
X012043Y009641D01*
X012022Y009652D01*
X012004Y009667D01*
X011988Y009684D01*
X011975Y009703D01*
X011966Y009725D01*
X011960Y009748D01*
X011958Y009771D01*
D14*
X014502Y013291D03*
X014798Y013291D03*
D15*
X014650Y013291D03*
X016441Y008450D03*
X016441Y007900D03*
X016441Y007350D03*
X016441Y006800D03*
D16*
X018300Y003500D02*
X018300Y003400D01*
X018200Y003400D01*
X018300Y003500D02*
X018900Y003500D01*
X018900Y003400D01*
X019000Y003400D01*
X019800Y003050D02*
X019800Y002650D01*
X019800Y001700D01*
X019800Y001350D01*
X019000Y001000D02*
X018900Y001000D01*
X018900Y000900D01*
X018300Y000900D01*
X018300Y001000D01*
X018200Y001000D01*
X017400Y001350D02*
X017400Y001700D01*
X017400Y002700D01*
X017400Y003050D01*
X018500Y002200D02*
X018502Y002220D01*
X018508Y002238D01*
X018517Y002256D01*
X018529Y002271D01*
X018544Y002283D01*
X018562Y002292D01*
X018580Y002298D01*
X018600Y002300D01*
X018620Y002298D01*
X018638Y002292D01*
X018656Y002283D01*
X018671Y002271D01*
X018683Y002256D01*
X018692Y002238D01*
X018698Y002220D01*
X018700Y002200D01*
X018698Y002180D01*
X018692Y002162D01*
X018683Y002144D01*
X018671Y002129D01*
X018656Y002117D01*
X018638Y002108D01*
X018620Y002102D01*
X018600Y002100D01*
X018580Y002102D01*
X018562Y002108D01*
X018544Y002117D01*
X018529Y002129D01*
X018517Y002144D01*
X018508Y002162D01*
X018502Y002180D01*
X018500Y002200D01*
X017900Y002200D02*
X017902Y002252D01*
X017908Y002304D01*
X017918Y002356D01*
X017931Y002406D01*
X017948Y002456D01*
X017969Y002504D01*
X017994Y002550D01*
X018022Y002594D01*
X018053Y002636D01*
X018087Y002676D01*
X018124Y002713D01*
X018164Y002747D01*
X018206Y002778D01*
X018250Y002806D01*
X018296Y002831D01*
X018344Y002852D01*
X018394Y002869D01*
X018444Y002882D01*
X018496Y002892D01*
X018548Y002898D01*
X018600Y002900D01*
X018652Y002898D01*
X018704Y002892D01*
X018756Y002882D01*
X018806Y002869D01*
X018856Y002852D01*
X018904Y002831D01*
X018950Y002806D01*
X018994Y002778D01*
X019036Y002747D01*
X019076Y002713D01*
X019113Y002676D01*
X019147Y002636D01*
X019178Y002594D01*
X019206Y002550D01*
X019231Y002504D01*
X019252Y002456D01*
X019269Y002406D01*
X019282Y002356D01*
X019292Y002304D01*
X019298Y002252D01*
X019300Y002200D01*
X019298Y002148D01*
X019292Y002096D01*
X019282Y002044D01*
X019269Y001994D01*
X019252Y001944D01*
X019231Y001896D01*
X019206Y001850D01*
X019178Y001806D01*
X019147Y001764D01*
X019113Y001724D01*
X019076Y001687D01*
X019036Y001653D01*
X018994Y001622D01*
X018950Y001594D01*
X018904Y001569D01*
X018856Y001548D01*
X018806Y001531D01*
X018756Y001518D01*
X018704Y001508D01*
X018652Y001502D01*
X018600Y001500D01*
X018548Y001502D01*
X018496Y001508D01*
X018444Y001518D01*
X018394Y001531D01*
X018344Y001548D01*
X018296Y001569D01*
X018250Y001594D01*
X018206Y001622D01*
X018164Y001653D01*
X018124Y001687D01*
X018087Y001724D01*
X018053Y001764D01*
X018022Y001806D01*
X017994Y001850D01*
X017969Y001896D01*
X017948Y001944D01*
X017931Y001994D01*
X017918Y002044D01*
X017908Y002096D01*
X017902Y002148D01*
X017900Y002200D01*
X007839Y002589D02*
X007839Y002626D01*
X007839Y002589D02*
X007837Y002569D01*
X007833Y002549D01*
X007825Y002531D01*
X007815Y002514D01*
X007802Y002498D01*
X007786Y002485D01*
X007769Y002475D01*
X007751Y002467D01*
X007731Y002463D01*
X007711Y002461D01*
X006688Y002461D01*
X006668Y002463D01*
X006648Y002467D01*
X006630Y002475D01*
X006613Y002485D01*
X006597Y002498D01*
X006584Y002514D01*
X006574Y002531D01*
X006566Y002549D01*
X006562Y002569D01*
X006560Y002589D01*
X006560Y002626D01*
X006560Y002806D02*
X006560Y002882D01*
X006560Y003062D02*
X006560Y003138D01*
X006560Y003318D02*
X006560Y003394D01*
X006560Y003574D02*
X006560Y003628D01*
X006560Y003612D02*
X006562Y003632D01*
X006566Y003652D01*
X006574Y003670D01*
X006584Y003687D01*
X006597Y003703D01*
X006613Y003716D01*
X006630Y003726D01*
X006648Y003734D01*
X006668Y003738D01*
X006688Y003740D01*
X007711Y003740D01*
X007731Y003738D01*
X007751Y003734D01*
X007769Y003726D01*
X007786Y003716D01*
X007802Y003703D01*
X007815Y003687D01*
X007825Y003670D01*
X007833Y003652D01*
X007837Y003632D01*
X007839Y003612D01*
X007839Y003574D01*
X007839Y003394D02*
X007839Y003318D01*
X007839Y003138D02*
X007839Y003062D01*
X007839Y002882D02*
X007839Y002806D01*
X007711Y004961D02*
X006688Y004961D01*
X006668Y004963D01*
X006648Y004967D01*
X006630Y004975D01*
X006613Y004985D01*
X006597Y004998D01*
X006584Y005014D01*
X006574Y005031D01*
X006566Y005049D01*
X006562Y005069D01*
X006560Y005089D01*
X006560Y005126D01*
X006560Y005306D02*
X006560Y005382D01*
X006560Y005562D02*
X006560Y005638D01*
X006560Y005818D02*
X006560Y005894D01*
X006560Y006074D02*
X006560Y006128D01*
X006560Y006112D02*
X006562Y006132D01*
X006566Y006152D01*
X006574Y006170D01*
X006584Y006187D01*
X006597Y006203D01*
X006613Y006216D01*
X006630Y006226D01*
X006648Y006234D01*
X006668Y006238D01*
X006688Y006240D01*
X007711Y006240D01*
X007731Y006238D01*
X007751Y006234D01*
X007769Y006226D01*
X007786Y006216D01*
X007802Y006203D01*
X007815Y006187D01*
X007825Y006170D01*
X007833Y006152D01*
X007837Y006132D01*
X007839Y006112D01*
X007839Y006074D01*
X007839Y005894D02*
X007839Y005818D01*
X007839Y005638D02*
X007839Y005562D01*
X007839Y005382D02*
X007839Y005306D01*
X007839Y005126D02*
X007839Y005089D01*
X007837Y005069D01*
X007833Y005049D01*
X007825Y005031D01*
X007815Y005014D01*
X007802Y004998D01*
X007786Y004985D01*
X007769Y004975D01*
X007751Y004967D01*
X007731Y004963D01*
X007711Y004961D01*
X004259Y005800D02*
X002461Y005800D01*
X002700Y005450D02*
X002702Y005476D01*
X002708Y005502D01*
X002717Y005526D01*
X002730Y005549D01*
X002746Y005570D01*
X002765Y005588D01*
X002786Y005604D01*
X002810Y005616D01*
X002834Y005624D01*
X002860Y005629D01*
X002887Y005630D01*
X002913Y005627D01*
X002938Y005620D01*
X002962Y005610D01*
X002985Y005596D01*
X003005Y005580D01*
X003022Y005560D01*
X003037Y005538D01*
X003048Y005514D01*
X003056Y005489D01*
X003060Y005463D01*
X003060Y005437D01*
X003056Y005411D01*
X003048Y005386D01*
X003037Y005362D01*
X003022Y005340D01*
X003005Y005320D01*
X002985Y005304D01*
X002962Y005290D01*
X002938Y005280D01*
X002913Y005273D01*
X002887Y005270D01*
X002860Y005271D01*
X002834Y005276D01*
X002810Y005284D01*
X002786Y005296D01*
X002765Y005312D01*
X002746Y005330D01*
X002730Y005351D01*
X002717Y005374D01*
X002708Y005398D01*
X002702Y005424D01*
X002700Y005450D01*
X001450Y005400D02*
X001200Y005150D01*
X000700Y005150D01*
X000450Y005400D01*
X000450Y005900D01*
X000700Y006150D01*
X001200Y006150D01*
X001450Y005900D01*
X001450Y005400D01*
X001200Y006150D02*
X000700Y006150D01*
X000450Y006400D01*
X000450Y006900D01*
X000700Y007150D01*
X001200Y007150D01*
X001450Y006900D01*
X001450Y006400D01*
X001200Y006150D01*
X001200Y007950D02*
X000700Y007950D01*
X000450Y008200D01*
X000450Y008700D01*
X000700Y008950D01*
X001200Y008950D01*
X001450Y009200D01*
X001450Y009700D01*
X001200Y009950D01*
X000700Y009950D01*
X000450Y009700D01*
X000450Y009200D01*
X000700Y008950D01*
X001200Y008950D01*
X001450Y008700D01*
X001450Y008200D01*
X001200Y007950D01*
X002411Y009480D02*
X004209Y009480D01*
X006410Y009178D02*
X006410Y009124D01*
X006410Y009162D02*
X006412Y009182D01*
X006416Y009202D01*
X006424Y009220D01*
X006434Y009237D01*
X006447Y009253D01*
X006463Y009266D01*
X006480Y009276D01*
X006498Y009284D01*
X006518Y009288D01*
X006538Y009290D01*
X007561Y009290D01*
X007581Y009288D01*
X007601Y009284D01*
X007619Y009276D01*
X007636Y009266D01*
X007652Y009253D01*
X007665Y009237D01*
X007675Y009220D01*
X007683Y009202D01*
X007687Y009182D01*
X007689Y009162D01*
X007689Y009124D01*
X007689Y008944D02*
X007689Y008868D01*
X007689Y008688D02*
X007689Y008612D01*
X007689Y008432D02*
X007689Y008356D01*
X007689Y008176D02*
X007689Y008139D01*
X007687Y008119D01*
X007683Y008099D01*
X007675Y008081D01*
X007665Y008064D01*
X007652Y008048D01*
X007636Y008035D01*
X007619Y008025D01*
X007601Y008017D01*
X007581Y008013D01*
X007561Y008011D01*
X006538Y008011D01*
X006518Y008013D01*
X006498Y008017D01*
X006480Y008025D01*
X006463Y008035D01*
X006447Y008048D01*
X006434Y008064D01*
X006424Y008081D01*
X006416Y008099D01*
X006412Y008119D01*
X006410Y008139D01*
X006410Y008176D01*
X006410Y008356D02*
X006410Y008432D01*
X006410Y008612D02*
X006410Y008688D01*
X006410Y008868D02*
X006410Y008944D01*
X006538Y010511D02*
X007561Y010511D01*
X007581Y010513D01*
X007601Y010517D01*
X007619Y010525D01*
X007636Y010535D01*
X007652Y010548D01*
X007665Y010564D01*
X007675Y010581D01*
X007683Y010599D01*
X007687Y010619D01*
X007689Y010639D01*
X007689Y010676D01*
X007689Y010856D02*
X007689Y010932D01*
X007689Y011112D02*
X007689Y011188D01*
X007689Y011368D02*
X007689Y011444D01*
X007689Y011624D02*
X007689Y011662D01*
X007687Y011682D01*
X007683Y011702D01*
X007675Y011720D01*
X007665Y011737D01*
X007652Y011753D01*
X007636Y011766D01*
X007619Y011776D01*
X007601Y011784D01*
X007581Y011788D01*
X007561Y011790D01*
X006538Y011790D01*
X006518Y011788D01*
X006498Y011784D01*
X006480Y011776D01*
X006463Y011766D01*
X006447Y011753D01*
X006434Y011737D01*
X006424Y011720D01*
X006416Y011702D01*
X006412Y011682D01*
X006410Y011662D01*
X006410Y011678D02*
X006410Y011624D01*
X006410Y011444D02*
X006410Y011368D01*
X006410Y011188D02*
X006410Y011112D01*
X006410Y010932D02*
X006410Y010856D01*
X006410Y010676D02*
X006410Y010639D01*
X006412Y010619D01*
X006416Y010599D01*
X006424Y010581D01*
X006434Y010564D01*
X006447Y010548D01*
X006463Y010535D01*
X006480Y010525D01*
X006498Y010517D01*
X006518Y010513D01*
X006538Y010511D01*
X004209Y011460D02*
X002411Y011460D01*
X002650Y011110D02*
X002652Y011136D01*
X002658Y011162D01*
X002667Y011186D01*
X002680Y011209D01*
X002696Y011230D01*
X002715Y011248D01*
X002736Y011264D01*
X002760Y011276D01*
X002784Y011284D01*
X002810Y011289D01*
X002837Y011290D01*
X002863Y011287D01*
X002888Y011280D01*
X002912Y011270D01*
X002935Y011256D01*
X002955Y011240D01*
X002972Y011220D01*
X002987Y011198D01*
X002998Y011174D01*
X003006Y011149D01*
X003010Y011123D01*
X003010Y011097D01*
X003006Y011071D01*
X002998Y011046D01*
X002987Y011022D01*
X002972Y011000D01*
X002955Y010980D01*
X002935Y010964D01*
X002912Y010950D01*
X002888Y010940D01*
X002863Y010933D01*
X002837Y010930D01*
X002810Y010931D01*
X002784Y010936D01*
X002760Y010944D01*
X002736Y010956D01*
X002715Y010972D01*
X002696Y010990D01*
X002680Y011011D01*
X002667Y011034D01*
X002658Y011058D01*
X002652Y011084D01*
X002650Y011110D01*
X001450Y011100D02*
X001200Y010850D01*
X000700Y010850D01*
X000450Y011100D01*
X000450Y011600D01*
X000700Y011850D01*
X001200Y011850D01*
X001450Y011600D01*
X001450Y011100D01*
X001200Y011850D02*
X000700Y011850D01*
X000450Y012100D01*
X000450Y012600D01*
X000700Y012850D01*
X001200Y012850D01*
X001450Y012600D01*
X001450Y012100D01*
X001200Y011850D01*
X007800Y013000D02*
X007800Y014500D01*
X008050Y014750D01*
X008550Y014750D01*
X008800Y014500D01*
X008800Y013000D01*
X008550Y012750D01*
X008050Y012750D01*
X007800Y013000D01*
X008800Y013000D02*
X009050Y012750D01*
X009550Y012750D01*
X009800Y013000D01*
X009800Y014500D01*
X009550Y014750D01*
X009050Y014750D01*
X008800Y014500D01*
X009800Y014500D02*
X010050Y014750D01*
X010550Y014750D01*
X010800Y014500D01*
X010800Y013000D01*
X010550Y012750D01*
X010050Y012750D01*
X009800Y013000D01*
X010800Y013000D02*
X011050Y012750D01*
X011550Y012750D01*
X011800Y013000D01*
X011800Y014500D01*
X011550Y014750D01*
X011050Y014750D01*
X010800Y014500D01*
X011800Y014500D02*
X012050Y014750D01*
X012550Y014750D01*
X012800Y014500D01*
X012800Y013000D01*
X012550Y012750D01*
X012050Y012750D01*
X011800Y013000D01*
X001450Y004050D02*
X001200Y004300D01*
X000700Y004300D01*
X000450Y004050D01*
X000450Y003550D01*
X000700Y003300D01*
X001200Y003300D01*
X001450Y003550D01*
X001450Y004050D01*
X001200Y003300D02*
X000700Y003300D01*
X000450Y003050D01*
X000450Y002550D01*
X000700Y002300D01*
X001200Y002300D01*
X001450Y002550D01*
X001450Y003050D01*
X001200Y003300D01*
X002461Y003820D02*
X004259Y003820D01*
D17*
X002430Y003908D02*
X002430Y003601D01*
X002123Y003908D01*
X002046Y003908D01*
X001970Y003831D01*
X001970Y003678D01*
X002046Y003601D01*
X002430Y003447D02*
X002430Y003140D01*
X002430Y002987D02*
X002277Y002833D01*
X002277Y002910D02*
X002200Y002987D01*
X002046Y002987D01*
X001970Y002910D01*
X001970Y002680D01*
X002430Y002680D01*
X002277Y002680D02*
X002277Y002910D01*
X002123Y003140D02*
X001970Y003294D01*
X002430Y003294D01*
D18*
X016441Y006652D03*
X016441Y006948D03*
X016441Y007202D03*
X016441Y007498D03*
X016441Y007752D03*
X016441Y008048D03*
X016441Y008302D03*
X016441Y008598D03*
D19*
X016200Y013750D02*
X015700Y013750D01*
X015450Y014000D01*
X015450Y014500D01*
X015700Y014750D01*
X016200Y014750D01*
X016450Y014500D01*
X016700Y014750D01*
X017200Y014750D01*
X017450Y014500D01*
X017450Y014000D01*
X017200Y013750D01*
X016700Y013750D01*
X016450Y014000D01*
X016200Y013750D01*
X012550Y015000D02*
X012050Y015000D01*
X006100Y014500D02*
X006100Y014000D01*
X005850Y013750D01*
X005350Y013750D01*
X005100Y014000D01*
X004850Y013750D01*
X004350Y013750D01*
X004100Y014000D01*
X003850Y013750D01*
X003350Y013750D01*
X003100Y014000D01*
X002850Y013750D01*
X002350Y013750D01*
X002100Y014000D01*
X001850Y013750D01*
X001350Y013750D01*
X001100Y014000D01*
X001100Y014500D01*
X001350Y014750D01*
X001850Y014750D01*
X002100Y014500D01*
X002350Y014750D01*
X002850Y014750D01*
X003100Y014500D01*
X003350Y014750D01*
X003850Y014750D01*
X004100Y014500D01*
X004350Y014750D01*
X004850Y014750D01*
X005100Y014500D01*
X005350Y014750D01*
X005850Y014750D01*
X006100Y014500D01*
X015950Y002450D02*
X015700Y002200D01*
X015700Y001700D01*
X015950Y001450D01*
X016450Y001450D01*
X016700Y001700D01*
X016700Y002200D01*
X016450Y002450D01*
X015950Y002450D01*
X015950Y001450D02*
X015700Y001200D01*
X015450Y001450D01*
X014950Y001450D01*
X014700Y001200D01*
X014450Y001450D01*
X013950Y001450D01*
X013700Y001200D01*
X013450Y001450D01*
X012950Y001450D01*
X012700Y001200D01*
X012450Y001450D01*
X011950Y001450D01*
X011700Y001200D01*
X011450Y001450D01*
X010950Y001450D01*
X010700Y001200D01*
X010450Y001450D01*
X009950Y001450D01*
X009700Y001200D01*
X009700Y000700D01*
X009950Y000450D01*
X010450Y000450D01*
X010700Y000700D01*
X010950Y000450D01*
X011450Y000450D01*
X011700Y000700D01*
X011950Y000450D01*
X012450Y000450D01*
X012700Y000700D01*
X012950Y000450D01*
X013450Y000450D01*
X013700Y000700D01*
X013950Y000450D01*
X014450Y000450D01*
X014700Y000700D01*
X014950Y000450D01*
X015450Y000450D01*
X015700Y000700D01*
X015950Y000450D01*
X016450Y000450D01*
X016700Y000700D01*
X016700Y001200D01*
X016450Y001450D01*
X015950Y001450D01*
X009300Y001200D02*
X009300Y000700D01*
X009050Y000450D01*
X008550Y000450D01*
X008300Y000700D01*
X008050Y000450D01*
X007550Y000450D01*
X007300Y000700D01*
X007300Y001200D01*
X007550Y001450D01*
X008050Y001450D01*
X008300Y001200D01*
X008550Y001450D01*
X009050Y001450D01*
X009300Y001200D01*
X006100Y001200D02*
X006100Y000700D01*
X005850Y000450D01*
X005350Y000450D01*
X005100Y000700D01*
X004850Y000450D01*
X004350Y000450D01*
X004100Y000700D01*
X003850Y000450D01*
X003350Y000450D01*
X003100Y000700D01*
X002850Y000450D01*
X002350Y000450D01*
X002100Y000700D01*
X001850Y000450D01*
X001350Y000450D01*
X001100Y000700D01*
X001100Y001200D01*
X001350Y001450D01*
X001850Y001450D01*
X002100Y001200D01*
X002350Y001450D01*
X002850Y001450D01*
X003100Y001200D01*
X003350Y001450D01*
X003850Y001450D01*
X004100Y001200D01*
X004350Y001450D01*
X004850Y001450D01*
X005100Y001200D01*
X005350Y001450D01*
X005850Y001450D01*
X006100Y001200D01*
D20*
X010300Y014250D03*
D21*
X010658Y003740D03*
X010658Y003728D03*
X010658Y003715D03*
X010658Y003703D03*
X010658Y003690D03*
X010658Y003678D03*
X010658Y003665D03*
X010658Y003653D03*
X010658Y003640D03*
X010658Y003628D03*
X010658Y003615D03*
X010658Y003603D03*
X010658Y003590D03*
X010658Y003578D03*
X010258Y003603D03*
X010233Y003565D03*
X010208Y003565D03*
X010202Y003590D03*
X010227Y003640D03*
X010202Y003665D03*
X010177Y003690D03*
X010077Y003728D03*
X009952Y003715D03*
X010058Y003590D03*
X010058Y003578D03*
X009977Y003515D03*
X009683Y003740D03*
X009502Y003003D03*
X009533Y002890D03*
X009552Y002840D03*
X010827Y002965D03*
X010833Y002990D03*
X010852Y003103D03*
X011183Y002453D03*
X011183Y002440D03*
X011183Y002428D03*
X011183Y002415D03*
X011183Y002403D03*
X011183Y002390D03*
X011183Y002378D03*
X011183Y002365D03*
X011183Y002353D03*
X011177Y002340D03*
X011527Y002403D03*
X011602Y002403D03*
X011683Y002403D03*
X011683Y002415D03*
X011683Y002390D03*
X011683Y002378D03*
X011683Y002353D03*
X011683Y002340D03*
X011683Y002328D03*
X011683Y002315D03*
X011558Y002303D03*
X011552Y002328D03*
X011852Y002353D03*
X011852Y002365D03*
X011858Y002340D03*
X011933Y002315D03*
X011977Y002303D03*
X012127Y002415D03*
X012508Y002415D03*
X012552Y002415D03*
X012627Y002315D03*
X012608Y002240D03*
X013027Y002365D03*
X013458Y002415D03*
X013508Y002315D03*
X013727Y002328D03*
X013727Y002340D03*
X013727Y002353D03*
X013727Y002365D03*
X013727Y002378D03*
X013727Y002390D03*
X013727Y002403D03*
X013727Y002415D03*
X013852Y002390D03*
X013902Y002353D03*
X013877Y002303D03*
X013927Y002415D03*
X014027Y002378D03*
X014427Y002403D03*
X012577Y002778D03*
D22*
X012683Y002471D03*
X012658Y002446D03*
X012502Y002409D03*
X012358Y002421D03*
X012352Y002409D03*
X012302Y002384D03*
X012308Y002371D03*
X012227Y002421D03*
X012608Y002246D03*
X013027Y002371D03*
X013052Y002309D03*
X013383Y002309D03*
X013452Y002309D03*
X013458Y002421D03*
X013508Y002421D03*
X013583Y002409D03*
X013602Y002371D03*
X013633Y002384D03*
X013652Y002421D03*
X013727Y002409D03*
X013727Y002396D03*
X013727Y002384D03*
X013727Y002371D03*
X013727Y002359D03*
X013727Y002346D03*
X013727Y002334D03*
X013727Y002321D03*
X013858Y002371D03*
X013927Y002421D03*
X014033Y002359D03*
X014433Y002384D03*
X011858Y002371D03*
X011683Y002359D03*
X011683Y002346D03*
X011683Y002334D03*
X011683Y002321D03*
X011683Y002384D03*
X011683Y002396D03*
X011683Y002409D03*
X011608Y002421D03*
X011533Y002384D03*
X011558Y002309D03*
X011352Y002309D03*
X011352Y002421D03*
X011183Y002421D03*
X011183Y002409D03*
X011183Y002396D03*
X011183Y002384D03*
X011183Y002371D03*
X011183Y002359D03*
X011177Y002334D03*
X011183Y002434D03*
X011183Y002446D03*
X010808Y002909D03*
X010852Y003096D03*
X010658Y003584D03*
X010658Y003596D03*
X010658Y003609D03*
X010658Y003621D03*
X010658Y003634D03*
X010658Y003646D03*
X010658Y003659D03*
X010658Y003671D03*
X010658Y003684D03*
X010658Y003696D03*
X010658Y003709D03*
X010658Y003721D03*
X010658Y003734D03*
X010233Y003634D03*
X010208Y003659D03*
X010183Y003684D03*
X010158Y003621D03*
X010052Y003596D03*
X010033Y003621D03*
X009977Y003646D03*
X009958Y003696D03*
X009952Y003709D03*
X010027Y003559D03*
X010258Y003521D03*
X009502Y002996D03*
X009508Y002971D03*
D23*
X009686Y003578D03*
X009686Y003590D03*
X009686Y003603D03*
X009686Y003615D03*
X009686Y003628D03*
X009686Y003640D03*
X009686Y003653D03*
X009686Y003665D03*
X009686Y003678D03*
X009686Y003690D03*
X009686Y003703D03*
X009686Y003715D03*
X009686Y003728D03*
X009799Y003728D03*
X009799Y003715D03*
X009799Y003703D03*
X009799Y003690D03*
X009799Y003678D03*
X009799Y003665D03*
X009799Y003653D03*
X009799Y003640D03*
X009799Y003628D03*
X009799Y003615D03*
X009799Y003603D03*
X009799Y003590D03*
X009799Y003578D03*
X009799Y003565D03*
X009974Y003640D03*
X009974Y003653D03*
X009974Y003665D03*
X009961Y003690D03*
X009999Y003640D03*
X010036Y003615D03*
X010099Y003628D03*
X010161Y003615D03*
X010249Y003615D03*
X010136Y003740D03*
X010774Y003728D03*
X010774Y003715D03*
X010774Y003703D03*
X010774Y003690D03*
X010774Y003678D03*
X010774Y003665D03*
X010774Y003653D03*
X010774Y003640D03*
X010774Y003628D03*
X010774Y003615D03*
X010774Y003603D03*
X010774Y003590D03*
X010774Y003578D03*
X010774Y003565D03*
X011599Y002390D03*
X011586Y002365D03*
X011574Y002340D03*
X011574Y002328D03*
X011724Y002378D03*
X011736Y002415D03*
X011749Y002315D03*
X012336Y002378D03*
X012349Y002403D03*
X012611Y002253D03*
X013286Y002315D03*
X013286Y002328D03*
X013286Y002340D03*
X013286Y002353D03*
X013286Y002365D03*
X013286Y002378D03*
X013286Y002390D03*
X013286Y002403D03*
X013386Y002403D03*
X013386Y002415D03*
X013386Y002390D03*
X013386Y002378D03*
X013386Y002365D03*
X013386Y002353D03*
X013386Y002340D03*
X013386Y002303D03*
X013449Y002315D03*
X013511Y002415D03*
X013624Y002365D03*
X013636Y002390D03*
X013649Y002415D03*
X013799Y002328D03*
X013899Y002340D03*
X013911Y002378D03*
X013924Y002403D03*
X013986Y002378D03*
X013986Y002365D03*
X013974Y002340D03*
X013999Y002403D03*
X014124Y002403D03*
X014124Y002390D03*
X014124Y002378D03*
X014124Y002365D03*
X014124Y002353D03*
X014124Y002340D03*
X014124Y002328D03*
X014374Y002315D03*
X014386Y002353D03*
X014399Y002378D03*
X014399Y002390D03*
D24*
X014370Y002309D03*
X014214Y002309D03*
X014120Y002309D03*
X014045Y002321D03*
X014020Y002396D03*
X013964Y002309D03*
X013914Y002384D03*
X013870Y002334D03*
X013789Y002309D03*
X013639Y002396D03*
X013645Y002409D03*
X013595Y002384D03*
X013589Y002396D03*
X013389Y002421D03*
X013289Y002309D03*
X013214Y002309D03*
X013214Y002421D03*
X012989Y002409D03*
X012989Y002396D03*
X012989Y002384D03*
X012989Y002359D03*
X012989Y002346D03*
X012989Y002334D03*
X012989Y002321D03*
X012664Y002459D03*
X012620Y002296D03*
X012620Y002284D03*
X012614Y002271D03*
X012614Y002259D03*
X012345Y002396D03*
X012295Y002396D03*
X012289Y002409D03*
X011995Y002321D03*
X011939Y002409D03*
X011945Y002421D03*
X011870Y002396D03*
X011720Y002371D03*
X011745Y002309D03*
X011589Y002371D03*
X011545Y002346D03*
X011439Y002346D03*
X011439Y002334D03*
X011439Y002321D03*
X011439Y002359D03*
X011439Y002371D03*
X011439Y002384D03*
X011439Y002396D03*
X011439Y002409D03*
X011170Y002321D03*
X010820Y002946D03*
X010845Y003046D03*
X010170Y003384D03*
X010195Y003596D03*
X010220Y003646D03*
X010195Y003671D03*
X010164Y003696D03*
X010145Y003634D03*
X010245Y003621D03*
X010264Y003596D03*
X009989Y003521D03*
X009970Y003509D03*
X009970Y003671D03*
X009489Y003096D03*
X009489Y003084D03*
X009495Y003034D03*
X009514Y002946D03*
X009539Y002871D03*
X014220Y002421D03*
D25*
X014220Y002415D03*
X014120Y002315D03*
X014039Y002340D03*
X013964Y002315D03*
X013864Y002353D03*
X013470Y002428D03*
X013214Y002303D03*
X012989Y002328D03*
X012989Y002340D03*
X012989Y002353D03*
X012989Y002365D03*
X012989Y002378D03*
X012989Y002390D03*
X012989Y002403D03*
X012720Y002465D03*
X012670Y002465D03*
X012620Y002290D03*
X012614Y002265D03*
X012545Y002328D03*
X012495Y002403D03*
X011939Y002403D03*
X011939Y002415D03*
X011870Y002403D03*
X011864Y002378D03*
X011720Y002365D03*
X011539Y002365D03*
X011439Y002365D03*
X011439Y002378D03*
X011439Y002390D03*
X011439Y002403D03*
X011439Y002353D03*
X011439Y002340D03*
X011439Y002328D03*
X011170Y002328D03*
X010795Y002878D03*
X010814Y002928D03*
X010839Y003015D03*
X010845Y003053D03*
X010264Y003515D03*
X010239Y003553D03*
X010270Y003590D03*
X010239Y003628D03*
X010214Y003653D03*
X010189Y003678D03*
X010045Y003603D03*
X009489Y003090D03*
X009495Y003040D03*
X009520Y002928D03*
X014420Y002428D03*
D26*
X014443Y002353D03*
X014193Y002340D03*
X014143Y002403D03*
X014018Y002403D03*
X014043Y002328D03*
X013868Y002340D03*
X013843Y002415D03*
X013593Y002390D03*
X013493Y002303D03*
X013168Y002365D03*
X012643Y002378D03*
X012643Y002390D03*
X012618Y002278D03*
X012518Y002303D03*
X012493Y002303D03*
X012318Y002315D03*
X012318Y002328D03*
X012318Y002340D03*
X012318Y002353D03*
X012293Y002403D03*
X012068Y002403D03*
X012068Y002415D03*
X012068Y002390D03*
X012068Y002378D03*
X012068Y002365D03*
X012068Y002353D03*
X012068Y002340D03*
X012068Y002328D03*
X012068Y002315D03*
X011993Y002315D03*
X011868Y002328D03*
X011868Y002390D03*
X011868Y002415D03*
X011543Y002353D03*
X011443Y002315D03*
X011443Y002415D03*
X011318Y002353D03*
X011068Y002353D03*
X011068Y002365D03*
X011068Y002378D03*
X011068Y002390D03*
X011068Y002403D03*
X011068Y002415D03*
X011068Y002428D03*
X011068Y002440D03*
X011068Y002453D03*
X010793Y002865D03*
X010818Y002940D03*
X010843Y003028D03*
X010843Y003040D03*
X009543Y002865D03*
X009518Y002940D03*
X009493Y003053D03*
X009493Y003065D03*
X009493Y003078D03*
D27*
X010318Y003578D03*
X010318Y003590D03*
X010493Y003540D03*
X010493Y003528D03*
X010143Y002303D03*
D28*
X011120Y002303D03*
X012514Y002690D03*
X012920Y003253D03*
X013864Y003253D03*
X010489Y003515D03*
X010314Y003603D03*
D29*
X009855Y003578D03*
X011255Y002303D03*
X012180Y002303D03*
D30*
X012230Y002415D03*
X012330Y002365D03*
X012355Y002415D03*
X011930Y002328D03*
X011605Y002415D03*
X011580Y002353D03*
X011355Y002353D03*
X011355Y002365D03*
X011355Y002378D03*
X011355Y002390D03*
X011355Y002403D03*
X011355Y002415D03*
X011355Y002340D03*
X011355Y002303D03*
X011255Y002315D03*
X011255Y002328D03*
X011255Y002340D03*
X011255Y002353D03*
X011255Y002365D03*
X011255Y002378D03*
X011255Y002390D03*
X011255Y002403D03*
X010280Y003578D03*
X010205Y003578D03*
X010155Y003628D03*
X013030Y002378D03*
X013055Y002315D03*
X013630Y002378D03*
X013905Y002365D03*
X013980Y002353D03*
X014380Y002340D03*
X014380Y002328D03*
X014405Y002403D03*
D31*
X012552Y002728D03*
X012539Y002715D03*
X011439Y002303D03*
X011183Y002465D03*
X011064Y002465D03*
X010171Y003365D03*
X010389Y003578D03*
X010489Y003590D03*
X010489Y003603D03*
X010489Y003615D03*
X010477Y003678D03*
X010483Y003703D03*
X010839Y003678D03*
X010839Y003565D03*
X009864Y003565D03*
X009502Y003678D03*
X009502Y003690D03*
X009764Y002553D03*
D32*
X009980Y002790D03*
X010655Y003565D03*
X011705Y002303D03*
X012855Y002465D03*
D33*
X012561Y002740D03*
X011811Y002303D03*
X013386Y002428D03*
X013611Y002303D03*
X014049Y002303D03*
X014124Y002303D03*
X014299Y002303D03*
X014299Y002428D03*
X010474Y003690D03*
X010061Y003640D03*
X009949Y003565D03*
X010074Y002328D03*
D34*
X009884Y002440D03*
X009865Y002453D03*
X009851Y002465D03*
X009834Y002478D03*
X009820Y002490D03*
X009790Y002515D03*
X009776Y002528D03*
X009765Y002540D03*
X010401Y002428D03*
X010420Y002440D03*
X010440Y002453D03*
X010470Y002478D03*
X010490Y002490D03*
X010501Y002503D03*
X010520Y002515D03*
X010534Y002528D03*
X010545Y002540D03*
X010559Y002553D03*
X011070Y002340D03*
X011084Y002315D03*
X011265Y002415D03*
X011276Y002403D03*
X011295Y002378D03*
X011309Y002365D03*
X011884Y002303D03*
X011945Y002303D03*
X011995Y002340D03*
X011990Y002353D03*
X011945Y002390D03*
X012559Y002365D03*
X012645Y002403D03*
X012651Y002428D03*
X012876Y002378D03*
X012915Y002415D03*
X012915Y002428D03*
X012915Y002440D03*
X012909Y002453D03*
X013126Y002415D03*
X013140Y002403D03*
X013159Y002378D03*
X013190Y002340D03*
X013295Y002415D03*
X013309Y002403D03*
X013320Y002390D03*
X013340Y002365D03*
X013459Y002390D03*
X013490Y002365D03*
X013501Y002353D03*
X013501Y002428D03*
X014151Y002390D03*
X014184Y002353D03*
X014209Y002328D03*
X014370Y002303D03*
X014420Y002415D03*
X012570Y002765D03*
X010170Y003378D03*
X010034Y003628D03*
X009965Y003703D03*
X010070Y003753D03*
X010126Y003715D03*
X009945Y003578D03*
D35*
X010368Y003515D03*
X010493Y003553D03*
X010218Y002328D03*
X011443Y002428D03*
X011518Y002428D03*
X012068Y002428D03*
X012068Y002303D03*
X012318Y002303D03*
X013118Y002303D03*
X013843Y002428D03*
D36*
X013848Y002403D03*
X013861Y002365D03*
X013873Y002328D03*
X014023Y002390D03*
X014011Y002415D03*
X014011Y002428D03*
X014036Y002353D03*
X014048Y002315D03*
X014161Y002378D03*
X014173Y002365D03*
X014211Y002315D03*
X014298Y002315D03*
X014298Y002328D03*
X014298Y002340D03*
X014298Y002353D03*
X014298Y002365D03*
X014298Y002378D03*
X014298Y002390D03*
X014298Y002403D03*
X014298Y002415D03*
X014436Y002378D03*
X014436Y002365D03*
X014448Y002340D03*
X014448Y002328D03*
X013611Y002328D03*
X013611Y002340D03*
X013611Y002353D03*
X013598Y002378D03*
X013586Y002403D03*
X013611Y002315D03*
X013511Y002328D03*
X013511Y002340D03*
X013361Y002340D03*
X013348Y002353D03*
X013211Y002315D03*
X013148Y002390D03*
X012986Y002415D03*
X012911Y002403D03*
X012836Y002403D03*
X012836Y002415D03*
X012836Y002428D03*
X012836Y002440D03*
X012836Y002453D03*
X012836Y002390D03*
X012836Y002378D03*
X012836Y002365D03*
X012836Y002353D03*
X012836Y002340D03*
X012836Y002328D03*
X012836Y002315D03*
X012986Y002315D03*
X012661Y002453D03*
X012636Y002365D03*
X012636Y002353D03*
X012623Y002303D03*
X012548Y002340D03*
X012536Y002315D03*
X012473Y002328D03*
X012473Y002340D03*
X012473Y002353D03*
X012486Y002390D03*
X012561Y002390D03*
X012561Y002403D03*
X012561Y002378D03*
X012311Y002365D03*
X012298Y002390D03*
X012286Y002415D03*
X011986Y002428D03*
X011998Y002328D03*
X011873Y002315D03*
X011811Y002315D03*
X011811Y002328D03*
X011811Y002340D03*
X011811Y002353D03*
X011811Y002365D03*
X011811Y002378D03*
X011811Y002390D03*
X011811Y002403D03*
X011811Y002415D03*
X011686Y002365D03*
X011561Y002315D03*
X011548Y002340D03*
X011536Y002378D03*
X011523Y002415D03*
X011348Y002315D03*
X011286Y002390D03*
X011161Y002315D03*
X011073Y002328D03*
X010773Y002828D03*
X010786Y002853D03*
X010798Y002890D03*
X010811Y002915D03*
X010823Y002953D03*
X010836Y003003D03*
X010848Y003065D03*
X010848Y003078D03*
X010848Y003090D03*
X010248Y003528D03*
X010036Y003565D03*
X009973Y003628D03*
X009961Y003615D03*
X009936Y003540D03*
X009961Y003503D03*
X009486Y003415D03*
X009486Y003403D03*
X009486Y003390D03*
X009486Y003378D03*
X009486Y003365D03*
X009486Y003353D03*
X009486Y003340D03*
X009486Y003328D03*
X009486Y003315D03*
X009486Y003303D03*
X009486Y003290D03*
X009486Y003278D03*
X009486Y003265D03*
X009486Y003253D03*
X009486Y003240D03*
X009486Y003228D03*
X009486Y003215D03*
X009486Y003203D03*
X009486Y003190D03*
X009486Y003178D03*
X009486Y003165D03*
X009486Y003153D03*
X009486Y003140D03*
X009486Y003128D03*
X009486Y003115D03*
X009486Y003103D03*
X009498Y003028D03*
X009498Y003015D03*
X009511Y002965D03*
X009511Y002953D03*
X009523Y002915D03*
X009536Y002878D03*
X009548Y002853D03*
D37*
X009508Y003553D03*
X009508Y003665D03*
X009508Y003703D03*
X009508Y003715D03*
X009508Y003728D03*
X009852Y003615D03*
X009852Y003603D03*
X009852Y003528D03*
X010483Y003665D03*
X010833Y003665D03*
X010833Y003703D03*
X010833Y003715D03*
X010833Y003728D03*
X010833Y003553D03*
X012502Y002678D03*
X012527Y002703D03*
X012833Y002303D03*
X012908Y003240D03*
X013852Y003240D03*
D38*
X013761Y003378D03*
X013749Y002303D03*
X013011Y002303D03*
X012049Y003303D03*
X012011Y003265D03*
X011999Y003253D03*
X010324Y003628D03*
X010324Y002828D03*
D39*
X010320Y002378D03*
X010295Y002365D03*
X010270Y002353D03*
X010245Y002340D03*
X010045Y002340D03*
X010020Y002353D03*
X009945Y003553D03*
X010489Y003565D03*
X010489Y003578D03*
X013214Y002428D03*
X013289Y002303D03*
X014114Y002428D03*
X014220Y002428D03*
D40*
X013961Y002303D03*
X013648Y002428D03*
X013473Y002378D03*
X013461Y002303D03*
X013373Y002328D03*
X013111Y002428D03*
X011973Y002365D03*
X011248Y002428D03*
X010361Y002403D03*
X009998Y002365D03*
X009936Y002403D03*
X009898Y002428D03*
X010023Y003553D03*
X010011Y003753D03*
X009686Y003540D03*
D41*
X009568Y003565D03*
X009568Y003578D03*
X009568Y003590D03*
X009568Y003603D03*
X009568Y003615D03*
X009568Y003628D03*
X009568Y003640D03*
X009568Y003653D03*
X009568Y003665D03*
X009568Y003678D03*
X009568Y003690D03*
X009568Y003703D03*
X009568Y003715D03*
X009568Y003728D03*
X009968Y003678D03*
X009993Y003528D03*
X010243Y003540D03*
X010268Y003503D03*
X010543Y003565D03*
X010543Y003578D03*
X010543Y003590D03*
X010543Y003603D03*
X010543Y003615D03*
X010543Y003628D03*
X010543Y003640D03*
X010543Y003653D03*
X010543Y003665D03*
X010543Y003678D03*
X010543Y003690D03*
X010543Y003703D03*
X010543Y003715D03*
X010543Y003728D03*
X011593Y002378D03*
X011993Y002415D03*
X012343Y002390D03*
X013043Y002415D03*
X013118Y002403D03*
X013118Y002390D03*
X013118Y002378D03*
X013118Y002365D03*
X013118Y002353D03*
X013118Y002340D03*
X013118Y002328D03*
X013118Y002315D03*
X013218Y002340D03*
X013218Y002353D03*
X013218Y002365D03*
X013218Y002378D03*
X013218Y002390D03*
X013218Y002403D03*
X013218Y002415D03*
X013643Y002403D03*
X013793Y002315D03*
X013893Y002328D03*
X013918Y002390D03*
X013993Y002390D03*
X013968Y002328D03*
X014218Y002340D03*
X014218Y002353D03*
X014218Y002365D03*
X014218Y002378D03*
X014218Y002390D03*
X014218Y002403D03*
X014218Y002303D03*
X014393Y002365D03*
D42*
X014458Y002303D03*
X013927Y002428D03*
X013727Y002428D03*
X013577Y002428D03*
X013283Y002428D03*
X012283Y002428D03*
X011608Y002428D03*
X011352Y002428D03*
X009977Y002378D03*
X010083Y003553D03*
X010177Y003603D03*
D43*
X010168Y003346D03*
X010318Y002834D03*
X010143Y002309D03*
X012018Y003271D03*
X012043Y003296D03*
D44*
X011968Y002371D03*
X011268Y002409D03*
X011093Y002309D03*
X010393Y002421D03*
X009968Y002384D03*
X009893Y002434D03*
X009843Y002471D03*
X009943Y003496D03*
D45*
X009940Y003546D03*
X009684Y003534D03*
X010215Y003571D03*
X010390Y003584D03*
X010659Y003534D03*
X010551Y002546D03*
X010540Y002534D03*
X010526Y002521D03*
X010495Y002496D03*
X010465Y002471D03*
X010445Y002459D03*
X011065Y002459D03*
X011184Y002459D03*
X011259Y002421D03*
X011301Y002371D03*
X011334Y002334D03*
X011345Y002321D03*
X011151Y002309D03*
X011076Y002321D03*
X011070Y002334D03*
X011520Y002421D03*
X011559Y002321D03*
X011684Y002309D03*
X012284Y002421D03*
X012476Y002359D03*
X012559Y002359D03*
X012715Y002471D03*
X012834Y002459D03*
X012901Y002459D03*
X012915Y002434D03*
X012915Y002421D03*
X012915Y002409D03*
X012909Y002396D03*
X012990Y002309D03*
X013120Y002421D03*
X013165Y002371D03*
X013195Y002334D03*
X013209Y002321D03*
X013290Y002421D03*
X013315Y002396D03*
X013345Y002359D03*
X013376Y002321D03*
X013465Y002384D03*
X013495Y002359D03*
X013509Y002346D03*
X013576Y002421D03*
X013840Y002421D03*
X013876Y002321D03*
X014134Y002409D03*
X014159Y002384D03*
X014190Y002346D03*
X014459Y002309D03*
X012570Y002759D03*
X009926Y002409D03*
X009909Y002421D03*
X009859Y002459D03*
X009826Y002484D03*
X009815Y002496D03*
X009795Y002509D03*
X009784Y002521D03*
X009770Y002534D03*
D46*
X009555Y002834D03*
X009530Y002896D03*
X009505Y002984D03*
X009955Y003609D03*
X009980Y003709D03*
X010855Y003409D03*
X010855Y003396D03*
X010855Y003384D03*
X010855Y003371D03*
X010855Y003359D03*
X010855Y003346D03*
X010855Y003334D03*
X010855Y003321D03*
X010855Y003309D03*
X010855Y003296D03*
X010855Y003284D03*
X010855Y003271D03*
X010855Y003259D03*
X010855Y003246D03*
X010855Y003234D03*
X010855Y003221D03*
X010855Y003209D03*
X010855Y003196D03*
X010855Y003184D03*
X010855Y003171D03*
X010855Y003159D03*
X010855Y003146D03*
X010855Y003134D03*
X010855Y003121D03*
X010855Y003109D03*
X010830Y002984D03*
X010830Y002971D03*
X010805Y002896D03*
X010780Y002846D03*
X011280Y002396D03*
X011255Y002309D03*
X011530Y002396D03*
X011680Y002421D03*
X011855Y002346D03*
X011880Y002309D03*
X012180Y002309D03*
X012180Y002321D03*
X012180Y002334D03*
X012180Y002346D03*
X012180Y002359D03*
X012180Y002371D03*
X012180Y002384D03*
X012180Y002396D03*
X012180Y002409D03*
X012180Y002421D03*
X012480Y002371D03*
X012480Y002321D03*
X012530Y002309D03*
X012555Y002346D03*
X012555Y002409D03*
X012655Y002434D03*
X012630Y002334D03*
X012630Y002321D03*
X013155Y002384D03*
X013355Y002346D03*
X013455Y002396D03*
X013455Y002409D03*
X013505Y002309D03*
X013730Y002309D03*
X013730Y002421D03*
X013855Y002384D03*
X013880Y002309D03*
X014030Y002371D03*
X014180Y002359D03*
X014430Y002396D03*
X014455Y002321D03*
D47*
X014443Y002359D03*
X014418Y002421D03*
X014168Y002371D03*
X014043Y002334D03*
X014018Y002409D03*
X013868Y002346D03*
X013843Y002409D03*
X013368Y002334D03*
X013143Y002396D03*
X013118Y002309D03*
X012993Y002371D03*
X012893Y002384D03*
X012643Y002384D03*
X012643Y002396D03*
X012543Y002321D03*
X012493Y002396D03*
X012318Y002359D03*
X012318Y002346D03*
X012318Y002334D03*
X012318Y002321D03*
X012318Y002309D03*
X012068Y002309D03*
X012068Y002321D03*
X012068Y002334D03*
X012068Y002346D03*
X012068Y002359D03*
X012068Y002371D03*
X012068Y002384D03*
X012068Y002396D03*
X012068Y002409D03*
X012068Y002421D03*
X011993Y002346D03*
X011943Y002396D03*
X011868Y002384D03*
X011868Y002409D03*
X011868Y002321D03*
X011543Y002359D03*
X011443Y002309D03*
X011443Y002421D03*
X011293Y002384D03*
X011068Y002384D03*
X011068Y002396D03*
X011068Y002409D03*
X011068Y002421D03*
X011068Y002434D03*
X011068Y002446D03*
X011068Y002371D03*
X011068Y002359D03*
X011068Y002346D03*
X010793Y002871D03*
X010818Y002934D03*
X010843Y003021D03*
X010843Y003034D03*
X009968Y003621D03*
X010143Y003709D03*
X009493Y003071D03*
X009493Y003059D03*
X009493Y003046D03*
X009518Y002934D03*
X009543Y002859D03*
D48*
X009548Y002846D03*
X009536Y002884D03*
X009523Y002909D03*
X009523Y002921D03*
X009511Y002959D03*
X009498Y003009D03*
X009498Y003021D03*
X009486Y003109D03*
X009486Y003121D03*
X009486Y003134D03*
X009486Y003146D03*
X009486Y003159D03*
X009486Y003171D03*
X009486Y003184D03*
X009486Y003196D03*
X009486Y003209D03*
X009486Y003221D03*
X009486Y003234D03*
X009486Y003246D03*
X009486Y003259D03*
X009486Y003271D03*
X009486Y003284D03*
X009486Y003296D03*
X009486Y003309D03*
X009486Y003321D03*
X009486Y003334D03*
X009486Y003346D03*
X009486Y003359D03*
X009486Y003371D03*
X009486Y003384D03*
X009486Y003396D03*
X009486Y003409D03*
X010048Y003571D03*
X010011Y003746D03*
X010848Y003084D03*
X010848Y003071D03*
X010848Y003059D03*
X010836Y003009D03*
X010836Y002996D03*
X010823Y002959D03*
X010811Y002921D03*
X010798Y002884D03*
X010786Y002859D03*
X010773Y002834D03*
X011311Y002359D03*
X011323Y002346D03*
X011523Y002409D03*
X011536Y002371D03*
X011548Y002334D03*
X011686Y002371D03*
X011811Y002371D03*
X011811Y002384D03*
X011811Y002396D03*
X011811Y002409D03*
X011811Y002421D03*
X011861Y002421D03*
X011861Y002334D03*
X011811Y002334D03*
X011811Y002346D03*
X011811Y002321D03*
X011811Y002309D03*
X011936Y002309D03*
X011986Y002309D03*
X011998Y002334D03*
X012473Y002334D03*
X012473Y002346D03*
X012486Y002309D03*
X012548Y002334D03*
X012561Y002371D03*
X012561Y002384D03*
X012561Y002396D03*
X012486Y002384D03*
X012636Y002371D03*
X012636Y002359D03*
X012636Y002346D03*
X012623Y002309D03*
X012648Y002409D03*
X012836Y002409D03*
X012836Y002421D03*
X012836Y002434D03*
X012836Y002446D03*
X012836Y002396D03*
X012836Y002384D03*
X012836Y002371D03*
X012836Y002359D03*
X012836Y002346D03*
X012836Y002334D03*
X012836Y002321D03*
X012911Y002446D03*
X012986Y002421D03*
X013173Y002359D03*
X013186Y002346D03*
X013323Y002384D03*
X013336Y002371D03*
X013511Y002334D03*
X013511Y002321D03*
X013611Y002321D03*
X013611Y002309D03*
X013611Y002334D03*
X013611Y002346D03*
X013611Y002359D03*
X013848Y002396D03*
X013861Y002359D03*
X014011Y002421D03*
X014023Y002384D03*
X014048Y002309D03*
X014148Y002396D03*
X014198Y002334D03*
X014211Y002321D03*
X014298Y002321D03*
X014298Y002309D03*
X014298Y002334D03*
X014298Y002346D03*
X014298Y002359D03*
X014298Y002371D03*
X014298Y002384D03*
X014298Y002396D03*
X014298Y002409D03*
X014298Y002421D03*
X014423Y002409D03*
X014436Y002371D03*
X014448Y002334D03*
X012573Y002771D03*
D49*
X012836Y002309D03*
X013298Y002409D03*
X014123Y002421D03*
X011948Y002384D03*
X010511Y002509D03*
X010411Y002434D03*
X010373Y002409D03*
X010011Y002359D03*
X009986Y002371D03*
X009948Y002396D03*
X009873Y002446D03*
X010486Y003571D03*
D50*
X010486Y003628D03*
X010486Y003640D03*
X010486Y003653D03*
X010486Y003715D03*
X010836Y003690D03*
X010836Y003578D03*
X009849Y003590D03*
X009849Y003515D03*
X010561Y002565D03*
X010111Y002315D03*
D51*
X010180Y002315D03*
X009505Y003565D03*
X009505Y003578D03*
D52*
X010155Y003703D03*
X010855Y003415D03*
X010855Y003403D03*
X010855Y003390D03*
X010855Y003378D03*
X010855Y003365D03*
X010855Y003353D03*
X010855Y003340D03*
X010855Y003328D03*
X010855Y003315D03*
X010855Y003303D03*
X010855Y003290D03*
X010855Y003278D03*
X010855Y003265D03*
X010855Y003253D03*
X010855Y003240D03*
X010855Y003228D03*
X010855Y003215D03*
X010855Y003203D03*
X010855Y003190D03*
X010855Y003178D03*
X010855Y003165D03*
X010855Y003153D03*
X010855Y003140D03*
X010855Y003128D03*
X010855Y003115D03*
X010830Y002978D03*
X010805Y002903D03*
X010780Y002840D03*
X011330Y002340D03*
X011530Y002390D03*
X011955Y002428D03*
X012180Y002415D03*
X012180Y002403D03*
X012180Y002390D03*
X012180Y002378D03*
X012180Y002365D03*
X012180Y002353D03*
X012180Y002340D03*
X012180Y002328D03*
X012180Y002315D03*
X012305Y002378D03*
X012480Y002378D03*
X012480Y002365D03*
X012480Y002315D03*
X012555Y002353D03*
X012630Y002340D03*
X012630Y002328D03*
X012655Y002440D03*
X012905Y002390D03*
X013180Y002353D03*
X013330Y002378D03*
X013380Y002315D03*
X013455Y002403D03*
X013580Y002415D03*
X013605Y002365D03*
X013730Y002315D03*
X013855Y002378D03*
X013880Y002315D03*
X014030Y002365D03*
X014430Y002390D03*
X014455Y002315D03*
X009555Y002828D03*
X009530Y002903D03*
X009505Y002978D03*
X009505Y002990D03*
D53*
X009502Y003571D03*
X009502Y003684D03*
X009852Y003584D03*
X009996Y003634D03*
X010477Y003696D03*
X010489Y003621D03*
X010489Y003609D03*
X010489Y003596D03*
X010496Y003546D03*
X010658Y003571D03*
X010839Y003571D03*
X010839Y003684D03*
X012546Y002721D03*
X012558Y002734D03*
X011827Y002359D03*
X010202Y002321D03*
X010089Y002321D03*
D54*
X011180Y002346D03*
X011255Y002346D03*
X011255Y002334D03*
X011255Y002321D03*
X011255Y002359D03*
X011255Y002371D03*
X011255Y002384D03*
X011255Y002396D03*
X011355Y002396D03*
X011355Y002384D03*
X011355Y002371D03*
X011355Y002359D03*
X011355Y002346D03*
X011355Y002334D03*
X011355Y002409D03*
X011580Y002346D03*
X011605Y002409D03*
X011930Y002321D03*
X012130Y002421D03*
X012230Y002409D03*
X012330Y002371D03*
X013030Y002359D03*
X013055Y002321D03*
X013905Y002359D03*
X013980Y002359D03*
X014380Y002334D03*
X014405Y002396D03*
X010255Y003609D03*
X010205Y003584D03*
D55*
X010236Y003559D03*
X010274Y003584D03*
X010161Y003609D03*
X010061Y003584D03*
X010061Y003646D03*
X009974Y003659D03*
X009799Y003659D03*
X009799Y003671D03*
X009799Y003684D03*
X009799Y003696D03*
X009799Y003709D03*
X009799Y003721D03*
X009799Y003646D03*
X009799Y003634D03*
X009799Y003621D03*
X009799Y003609D03*
X009799Y003596D03*
X009799Y003584D03*
X009799Y003571D03*
X009799Y003559D03*
X009686Y003584D03*
X009686Y003596D03*
X009686Y003609D03*
X009686Y003621D03*
X009686Y003634D03*
X009686Y003646D03*
X009686Y003659D03*
X009686Y003671D03*
X009686Y003684D03*
X009686Y003696D03*
X009686Y003709D03*
X009686Y003721D03*
X009686Y003734D03*
X010774Y003721D03*
X010774Y003709D03*
X010774Y003696D03*
X010774Y003684D03*
X010774Y003671D03*
X010774Y003659D03*
X010774Y003646D03*
X010774Y003634D03*
X010774Y003621D03*
X010774Y003609D03*
X010774Y003596D03*
X010774Y003584D03*
X010774Y003571D03*
X011599Y002396D03*
X011586Y002359D03*
X011574Y002334D03*
X011724Y002359D03*
X011749Y002321D03*
X011736Y002421D03*
X012124Y002409D03*
X012336Y002384D03*
X013286Y002384D03*
X013286Y002396D03*
X013286Y002371D03*
X013286Y002359D03*
X013286Y002346D03*
X013286Y002334D03*
X013286Y002321D03*
X013386Y002334D03*
X013386Y002346D03*
X013386Y002359D03*
X013386Y002371D03*
X013386Y002384D03*
X013386Y002396D03*
X013386Y002409D03*
X013449Y002321D03*
X013511Y002409D03*
X013624Y002371D03*
X013899Y002346D03*
X013911Y002371D03*
X013924Y002409D03*
X013986Y002371D03*
X013974Y002334D03*
X013999Y002409D03*
X014124Y002396D03*
X014124Y002384D03*
X014124Y002371D03*
X014124Y002359D03*
X014124Y002346D03*
X014124Y002334D03*
X014124Y002321D03*
X014374Y002321D03*
X014399Y002384D03*
D56*
X014393Y002371D03*
X014393Y002359D03*
X014218Y002359D03*
X014218Y002371D03*
X014218Y002384D03*
X014218Y002396D03*
X014218Y002409D03*
X014218Y002346D03*
X014218Y002334D03*
X013993Y002384D03*
X013968Y002321D03*
X013893Y002334D03*
X013918Y002396D03*
X013793Y002321D03*
X013218Y002334D03*
X013218Y002346D03*
X013218Y002359D03*
X013218Y002371D03*
X013218Y002384D03*
X013218Y002396D03*
X013218Y002409D03*
X013118Y002396D03*
X013118Y002384D03*
X013118Y002371D03*
X013118Y002359D03*
X013118Y002346D03*
X013118Y002334D03*
X013118Y002321D03*
X013043Y002409D03*
X013043Y002421D03*
X011993Y002421D03*
X011593Y002384D03*
X010543Y003571D03*
X010543Y003584D03*
X010543Y003596D03*
X010543Y003609D03*
X010543Y003621D03*
X010543Y003634D03*
X010543Y003646D03*
X010543Y003659D03*
X010543Y003671D03*
X010543Y003684D03*
X010543Y003696D03*
X010543Y003709D03*
X010543Y003721D03*
X010243Y003546D03*
X010243Y003534D03*
X010268Y003509D03*
X010043Y003609D03*
X010043Y003634D03*
X009968Y003684D03*
X009568Y003684D03*
X009568Y003696D03*
X009568Y003709D03*
X009568Y003721D03*
X009568Y003671D03*
X009568Y003659D03*
X009568Y003646D03*
X009568Y003634D03*
X009568Y003621D03*
X009568Y003609D03*
X009568Y003596D03*
X009568Y003584D03*
X009568Y003571D03*
D57*
X009918Y002415D03*
X010343Y002390D03*
X011343Y002328D03*
X012568Y002753D03*
D58*
X012705Y002478D03*
X012355Y002428D03*
X011955Y002378D03*
X013205Y002328D03*
X014130Y002415D03*
X010655Y003540D03*
X010130Y003640D03*
X010005Y003715D03*
X009805Y002503D03*
X009955Y002390D03*
X010380Y002415D03*
X010455Y002465D03*
D59*
X010561Y002559D03*
X010061Y002334D03*
X009949Y003559D03*
X009949Y003571D03*
X009861Y003571D03*
X010099Y003634D03*
X010074Y003759D03*
X009686Y003746D03*
X010474Y003684D03*
D60*
X010230Y002334D03*
D61*
X010258Y002346D03*
X010283Y002359D03*
X010308Y002371D03*
X010352Y002396D03*
X010033Y002346D03*
X009683Y003571D03*
X010658Y003746D03*
X012533Y002421D03*
D62*
X013873Y003259D03*
X014011Y002346D03*
X010561Y002571D03*
X009736Y002946D03*
X009723Y002934D03*
X009711Y002921D03*
X009511Y003546D03*
X009511Y003596D03*
X009511Y003609D03*
X009511Y003621D03*
X009511Y003634D03*
X009511Y003646D03*
X009511Y003659D03*
X009873Y003671D03*
X010311Y003571D03*
X010486Y003509D03*
D63*
X010368Y003521D03*
X012493Y002671D03*
X014418Y002346D03*
D64*
X013480Y002371D03*
X013130Y002409D03*
X011980Y002359D03*
X010480Y002484D03*
X010430Y002446D03*
X010330Y002384D03*
D65*
X010380Y002765D03*
X010330Y002815D03*
X009880Y003690D03*
X012655Y002415D03*
X013005Y002428D03*
D66*
X012659Y002421D03*
X012476Y002659D03*
X012945Y003271D03*
X013890Y003271D03*
X010370Y002771D03*
X010359Y002784D03*
X010345Y002796D03*
X009751Y002959D03*
X009859Y003546D03*
X009859Y003646D03*
X009876Y003684D03*
X009515Y003534D03*
X009515Y003521D03*
D67*
X009515Y003515D03*
X009515Y003528D03*
X009515Y003540D03*
X009690Y003753D03*
X009876Y003678D03*
X009859Y003640D03*
X009859Y003540D03*
X010170Y003353D03*
X010351Y002790D03*
X010365Y002778D03*
X009765Y002565D03*
X011701Y002428D03*
X012951Y003278D03*
X013895Y003278D03*
D68*
X012936Y003265D03*
X012486Y002665D03*
X011823Y002428D03*
X010661Y003753D03*
X009861Y003553D03*
X009511Y003590D03*
X009511Y003603D03*
X009511Y003615D03*
X009511Y003628D03*
X009511Y003640D03*
X009511Y003653D03*
D69*
X009880Y003715D03*
X012180Y002428D03*
D70*
X012564Y002746D03*
X010489Y003559D03*
X010170Y003371D03*
X009764Y002546D03*
D71*
X009764Y002559D03*
X010170Y003359D03*
X010489Y003521D03*
X012520Y002696D03*
X012914Y003246D03*
X013845Y003234D03*
D72*
X010389Y002759D03*
X009764Y002571D03*
X009689Y002896D03*
X010314Y003621D03*
D73*
X010095Y003534D03*
X010345Y003159D03*
X010545Y002971D03*
X010659Y002859D03*
X010020Y002846D03*
X010801Y003746D03*
X011945Y003146D03*
X011940Y003134D03*
X011940Y003121D03*
X012390Y003309D03*
X012440Y003259D03*
X012459Y003234D03*
X012465Y003221D03*
X012470Y003209D03*
X012265Y002571D03*
D74*
X011983Y003228D03*
X011989Y003240D03*
X010639Y002890D03*
X010402Y002753D03*
X010314Y002840D03*
X009989Y002803D03*
X009952Y002765D03*
X009677Y002878D03*
X009764Y002578D03*
X010314Y003203D03*
X010302Y003215D03*
X009877Y003703D03*
D75*
X009861Y003653D03*
X010311Y003615D03*
X010586Y002953D03*
X010598Y002940D03*
X010611Y002928D03*
X010561Y002578D03*
X009761Y002965D03*
D76*
X010558Y002640D03*
X010658Y002778D03*
X011258Y002703D03*
X011258Y002690D03*
X011752Y003240D03*
X011239Y003765D03*
X009877Y003740D03*
X012264Y002578D03*
X013333Y002653D03*
X014277Y002653D03*
D77*
X011964Y003196D03*
X009764Y002584D03*
D78*
X009974Y002784D03*
X010561Y002584D03*
X010636Y002896D03*
X009874Y003696D03*
D79*
X012261Y002584D03*
D80*
X011940Y003128D03*
X011945Y003140D03*
X012234Y003378D03*
X012376Y003315D03*
X012395Y003303D03*
X012445Y003253D03*
X012451Y003240D03*
X010559Y002603D03*
X010301Y002865D03*
X009995Y003165D03*
X009665Y002853D03*
X009765Y002590D03*
X009540Y003740D03*
D81*
X010086Y003540D03*
X010049Y003228D03*
X010036Y003215D03*
X010024Y003203D03*
X010286Y003228D03*
X010324Y003190D03*
X010649Y002878D03*
X010561Y002590D03*
X009999Y002815D03*
X011974Y003215D03*
X014086Y003378D03*
D82*
X012258Y002590D03*
X010552Y002690D03*
D83*
X009993Y003159D03*
X009768Y002596D03*
X012368Y003321D03*
D84*
X012448Y003246D03*
X011948Y003159D03*
X010561Y002596D03*
X010011Y002834D03*
X009998Y003171D03*
X010336Y003171D03*
X010361Y003546D03*
D85*
X011258Y002621D03*
X011258Y002609D03*
X011258Y002596D03*
D86*
X011259Y002634D03*
X010376Y003034D03*
X012259Y002596D03*
D87*
X012793Y002596D03*
X012793Y002609D03*
X012793Y002621D03*
D88*
X013533Y002621D03*
X013533Y002609D03*
X013533Y002596D03*
D89*
X014274Y002596D03*
X014274Y002609D03*
X014274Y002621D03*
D90*
X014268Y003178D03*
X014268Y003190D03*
X013318Y003203D03*
X012793Y003153D03*
X012793Y003140D03*
X012793Y003128D03*
X012793Y003115D03*
X012793Y003103D03*
X012793Y003090D03*
X012793Y003078D03*
X012793Y003065D03*
X012793Y003053D03*
X012793Y003040D03*
X012793Y003028D03*
X012793Y003015D03*
X012793Y003003D03*
X012793Y002990D03*
X012793Y002978D03*
X012793Y002965D03*
X012793Y002953D03*
X012793Y002940D03*
X012793Y002928D03*
X012793Y002915D03*
X012793Y002903D03*
X012793Y002890D03*
X012793Y002878D03*
X012793Y002865D03*
X012793Y002853D03*
X012793Y002840D03*
X012793Y002828D03*
X012793Y002815D03*
X012793Y002803D03*
X012793Y002790D03*
X012793Y002778D03*
X012493Y003103D03*
X012493Y003115D03*
X012493Y003128D03*
X010668Y002840D03*
X009768Y002603D03*
D91*
X011258Y002603D03*
X011258Y002615D03*
D92*
X010552Y002728D03*
X012258Y002603D03*
X013333Y002628D03*
X014277Y002628D03*
D93*
X012793Y002615D03*
X012793Y002603D03*
X010368Y003740D03*
D94*
X013533Y002615D03*
X013533Y002603D03*
D95*
X014274Y002603D03*
X014274Y002615D03*
D96*
X013743Y003171D03*
X013143Y003371D03*
X012793Y002709D03*
X012793Y002696D03*
X010668Y002834D03*
X009768Y002609D03*
D97*
X010027Y002859D03*
X009983Y003146D03*
X010352Y003559D03*
X010558Y002609D03*
D98*
X009784Y002734D03*
X012259Y002609D03*
D99*
X011968Y002803D03*
X011943Y002865D03*
X012793Y002678D03*
X013268Y003278D03*
X011868Y003590D03*
X011843Y003653D03*
X011743Y003753D03*
X009768Y002615D03*
D100*
X010358Y003140D03*
X010558Y002615D03*
X011927Y003003D03*
X011927Y003015D03*
X011927Y003028D03*
X011927Y003040D03*
X012796Y003165D03*
X012789Y003240D03*
X012789Y003253D03*
X012789Y003265D03*
X013308Y003228D03*
X013314Y003215D03*
X013327Y003165D03*
X013739Y003165D03*
X013733Y003240D03*
X013733Y003253D03*
X013733Y003265D03*
X013733Y002765D03*
X013733Y002753D03*
X013733Y002740D03*
X013733Y002728D03*
X013733Y002715D03*
X013333Y002715D03*
X013333Y002728D03*
X013333Y002740D03*
X013333Y002703D03*
X013333Y002690D03*
X012789Y002715D03*
X012789Y002728D03*
X012789Y002740D03*
X012789Y002753D03*
X012789Y002765D03*
X014277Y002740D03*
X014277Y002728D03*
X014277Y002715D03*
X014277Y002703D03*
X014277Y002690D03*
X014271Y003165D03*
X014258Y003215D03*
X014252Y003228D03*
X010327Y003665D03*
D101*
X009677Y003503D03*
X011258Y002628D03*
X012258Y002615D03*
D102*
X012043Y002696D03*
X012018Y002721D03*
X012793Y002659D03*
X013718Y003309D03*
X010043Y002896D03*
X009768Y002621D03*
X009643Y002821D03*
D103*
X010558Y002621D03*
X011258Y002771D03*
X011258Y002784D03*
X011258Y002796D03*
X011258Y002809D03*
X011258Y002821D03*
X011258Y002834D03*
X011258Y002846D03*
X011258Y002859D03*
X011258Y002871D03*
X011258Y002884D03*
X011258Y002896D03*
X011258Y002909D03*
X011258Y002921D03*
X011258Y002934D03*
X011258Y002946D03*
X011258Y002959D03*
X011258Y002971D03*
X011258Y002984D03*
X011258Y002996D03*
X011258Y003009D03*
X011258Y003021D03*
X011258Y003034D03*
X011258Y003046D03*
X011258Y003059D03*
X011258Y003071D03*
X011258Y003084D03*
X011258Y003096D03*
X011258Y003109D03*
X011258Y003121D03*
X011258Y003134D03*
X011258Y003146D03*
X011258Y003159D03*
X011258Y003171D03*
X011258Y003234D03*
X011258Y003246D03*
X011258Y003259D03*
X011258Y003271D03*
X011258Y003284D03*
X011258Y003296D03*
X011258Y003309D03*
X011258Y003321D03*
X011258Y003334D03*
X011258Y003346D03*
X011258Y003359D03*
X011258Y003371D03*
X011258Y003384D03*
X011258Y003396D03*
X011258Y003409D03*
X011258Y003421D03*
X011258Y003434D03*
X011258Y003446D03*
X011258Y003459D03*
X011258Y003471D03*
X011258Y003484D03*
X011258Y003496D03*
X011258Y003509D03*
X011258Y003521D03*
X011258Y003534D03*
X011258Y003546D03*
X011258Y003559D03*
X011258Y003571D03*
X011258Y003584D03*
X011258Y003596D03*
X011258Y003609D03*
X011258Y003621D03*
X011258Y003634D03*
X011258Y003646D03*
X011258Y003659D03*
X011752Y003746D03*
X011783Y003721D03*
X011808Y003696D03*
X011927Y002959D03*
X011927Y002946D03*
X011933Y002921D03*
X011933Y002909D03*
X013333Y002684D03*
X013733Y002684D03*
X014277Y002684D03*
D104*
X012255Y002621D03*
X010655Y003496D03*
D105*
X010318Y003703D03*
X010043Y002903D03*
X009768Y002628D03*
X009668Y002778D03*
X010668Y002790D03*
X012793Y002653D03*
X012818Y003215D03*
X012768Y003315D03*
X013143Y003365D03*
D106*
X012776Y003303D03*
X012809Y003190D03*
X013334Y002665D03*
X013751Y003190D03*
X013720Y003303D03*
X014276Y002665D03*
X012001Y002740D03*
X011995Y002753D03*
X011826Y003303D03*
X011840Y003315D03*
X011845Y003328D03*
X011851Y003340D03*
X011859Y003353D03*
X011865Y003365D03*
X011870Y003378D03*
X011876Y003403D03*
X011884Y003428D03*
X011884Y003440D03*
X011884Y003515D03*
X011884Y003528D03*
X011876Y003565D03*
X011865Y003603D03*
X011720Y003765D03*
X011251Y003728D03*
X011251Y003715D03*
X011265Y003228D03*
X011259Y002753D03*
X011259Y002740D03*
X011259Y002728D03*
X010559Y002628D03*
X010040Y002890D03*
X010370Y003115D03*
D107*
X009774Y002665D03*
X010311Y003715D03*
X012161Y002628D03*
X014086Y003353D03*
D108*
X012483Y003178D03*
X012352Y003328D03*
X012408Y002628D03*
X010352Y003565D03*
X010102Y003528D03*
X009658Y002840D03*
D109*
X010548Y002715D03*
X012798Y002628D03*
D110*
X013743Y002628D03*
D111*
X012793Y002646D03*
X012818Y003221D03*
X010318Y003709D03*
X009768Y002634D03*
D112*
X010558Y002634D03*
X010677Y002809D03*
X010683Y002821D03*
X011258Y002721D03*
X011258Y002709D03*
X011783Y003259D03*
X011677Y003784D03*
X010108Y003509D03*
X013333Y002659D03*
X013758Y003209D03*
X014277Y002659D03*
D113*
X014086Y003359D03*
X012136Y002634D03*
X010111Y003496D03*
D114*
X009880Y003709D03*
X009530Y003734D03*
X010030Y003209D03*
X010280Y003234D03*
X010330Y003184D03*
X010005Y002821D03*
X012430Y002634D03*
D115*
X012795Y002634D03*
X013739Y002634D03*
D116*
X013333Y002634D03*
X014277Y002634D03*
X012233Y003359D03*
X010383Y003059D03*
D117*
X010170Y003290D03*
X010045Y002915D03*
X009770Y002640D03*
X012820Y003228D03*
X013764Y003228D03*
D118*
X011258Y002640D03*
X010114Y003478D03*
X009777Y002690D03*
D119*
X012123Y002640D03*
X013223Y003303D03*
X013698Y003365D03*
D120*
X013914Y003290D03*
X012970Y003290D03*
X012445Y002640D03*
X012020Y003278D03*
X010620Y002915D03*
D121*
X010559Y002653D03*
X009701Y002753D03*
X011290Y003215D03*
X012234Y003365D03*
X012795Y002640D03*
X013740Y002640D03*
D122*
X013333Y002640D03*
X014277Y002640D03*
X011258Y002665D03*
X010658Y003553D03*
X009683Y003553D03*
D123*
X009676Y003559D03*
X010170Y003284D03*
X009959Y003084D03*
X009770Y002646D03*
X011259Y002671D03*
X012751Y003321D03*
X013695Y003321D03*
D124*
X013333Y002646D03*
X014277Y002646D03*
X011258Y002684D03*
X010558Y002646D03*
D125*
X011259Y002646D03*
X011520Y003171D03*
X012726Y003334D03*
X012726Y003346D03*
X012726Y003359D03*
X013670Y003359D03*
X013670Y003346D03*
X013670Y003334D03*
X010170Y003259D03*
X010115Y003484D03*
D126*
X009961Y003096D03*
X010649Y002771D03*
X012111Y002646D03*
X013736Y002646D03*
X013761Y003221D03*
D127*
X012458Y002646D03*
X012027Y003284D03*
X010627Y002909D03*
X010577Y002959D03*
X010327Y002821D03*
D128*
X009770Y002653D03*
X010170Y003278D03*
X011689Y003215D03*
D129*
X011258Y002653D03*
D130*
X012099Y002653D03*
X010111Y003503D03*
D131*
X009868Y003665D03*
X009693Y002903D03*
X010343Y002803D03*
X012468Y002653D03*
D132*
X013736Y002653D03*
X013761Y003215D03*
X013711Y003315D03*
X014086Y003365D03*
X010674Y002803D03*
X010374Y003103D03*
X009961Y003103D03*
D133*
X010171Y003271D03*
X009771Y002659D03*
X011258Y002659D03*
D134*
X010555Y002659D03*
D135*
X010283Y002921D03*
X010377Y003096D03*
X010171Y003296D03*
X010046Y002909D03*
X011258Y002696D03*
X011739Y003234D03*
X011239Y003771D03*
X012089Y002659D03*
X013239Y003296D03*
X014183Y003296D03*
D136*
X013736Y002659D03*
X013261Y003284D03*
X012773Y003309D03*
X011823Y003296D03*
X011811Y003284D03*
X011798Y003271D03*
X011248Y003734D03*
X010311Y003684D03*
X010373Y003109D03*
X010286Y002909D03*
X009648Y002809D03*
D137*
X010555Y002665D03*
D138*
X010680Y002815D03*
X012080Y002665D03*
D139*
X012793Y002665D03*
X011818Y003290D03*
X011693Y003778D03*
X009968Y003115D03*
X009643Y002815D03*
D140*
X010311Y003678D03*
X011248Y003740D03*
X012011Y002728D03*
X012023Y002715D03*
X012036Y002703D03*
X012811Y003203D03*
X013736Y002665D03*
D141*
X009773Y002671D03*
D142*
X010555Y002671D03*
D143*
X010670Y002796D03*
X009964Y003109D03*
X009664Y002784D03*
X010314Y003696D03*
X011245Y003746D03*
X012070Y002671D03*
X012814Y003209D03*
D144*
X012793Y002671D03*
X011968Y002796D03*
X011943Y002871D03*
X011868Y003371D03*
X011868Y003596D03*
X011843Y003646D03*
X011818Y003684D03*
X010368Y003121D03*
X014218Y003271D03*
D145*
X013748Y003184D03*
X013723Y003296D03*
X013273Y003271D03*
X013336Y002671D03*
X013736Y002671D03*
X011961Y002809D03*
X011948Y002846D03*
X011936Y002896D03*
X011886Y003459D03*
X011886Y003471D03*
X011886Y003484D03*
X011886Y003496D03*
X011886Y003509D03*
X011873Y003571D03*
X011861Y003609D03*
X011848Y003634D03*
X011836Y003659D03*
X010036Y002884D03*
D146*
X011255Y003671D03*
X011255Y003684D03*
X011255Y003696D03*
X011730Y003759D03*
X011830Y003671D03*
X011855Y003621D03*
X011880Y003546D03*
X011880Y003421D03*
X011955Y002834D03*
X012805Y003184D03*
X012780Y003296D03*
X014280Y002671D03*
D147*
X009773Y002678D03*
D148*
X010555Y002678D03*
D149*
X010283Y002928D03*
X009958Y003090D03*
X011258Y002678D03*
X011727Y003228D03*
X011652Y003790D03*
X011233Y003778D03*
D150*
X011245Y003753D03*
X011770Y003253D03*
X011789Y003265D03*
X012045Y002690D03*
X012064Y002678D03*
X010314Y003690D03*
X010170Y003303D03*
X014195Y003290D03*
D151*
X014227Y003265D03*
X013727Y003290D03*
X013283Y003265D03*
X012802Y003178D03*
X012783Y003290D03*
X013333Y002678D03*
X013733Y002690D03*
X014277Y002678D03*
X011933Y002903D03*
X011933Y002915D03*
X011927Y002953D03*
X011927Y002965D03*
X011258Y002965D03*
X011258Y002978D03*
X011258Y002990D03*
X011258Y003003D03*
X011258Y003015D03*
X011258Y003028D03*
X011258Y003040D03*
X011258Y003053D03*
X011258Y003065D03*
X011258Y003078D03*
X011258Y003090D03*
X011258Y003103D03*
X011258Y003115D03*
X011258Y003128D03*
X011258Y003140D03*
X011258Y003153D03*
X011258Y003165D03*
X011258Y003240D03*
X011258Y003253D03*
X011258Y003265D03*
X011258Y003278D03*
X011258Y003290D03*
X011258Y003303D03*
X011258Y003315D03*
X011258Y003328D03*
X011258Y003340D03*
X011258Y003353D03*
X011258Y003365D03*
X011258Y003378D03*
X011258Y003390D03*
X011258Y003403D03*
X011258Y003415D03*
X011258Y003428D03*
X011258Y003440D03*
X011258Y003453D03*
X011258Y003465D03*
X011258Y003478D03*
X011258Y003490D03*
X011258Y003503D03*
X011258Y003515D03*
X011258Y003528D03*
X011258Y003540D03*
X011258Y003553D03*
X011258Y003565D03*
X011258Y003578D03*
X011258Y003590D03*
X011258Y003603D03*
X011258Y003615D03*
X011258Y003628D03*
X011258Y003640D03*
X011258Y003653D03*
X011258Y003665D03*
X011777Y003728D03*
X011802Y003703D03*
X011833Y003665D03*
X011258Y002953D03*
X011258Y002940D03*
X011258Y002928D03*
X011258Y002915D03*
X011258Y002903D03*
X011258Y002890D03*
X011258Y002878D03*
X011258Y002865D03*
X011258Y002853D03*
X011258Y002840D03*
X011258Y002828D03*
X011258Y002815D03*
X011258Y002803D03*
X011258Y002790D03*
X011258Y002778D03*
D152*
X011261Y002765D03*
X011936Y002890D03*
X011948Y002853D03*
X011948Y002840D03*
X011961Y002815D03*
X011973Y002790D03*
X011986Y002765D03*
X011873Y003390D03*
X011886Y003453D03*
X011886Y003465D03*
X011886Y003478D03*
X011886Y003490D03*
X011886Y003503D03*
X011873Y003578D03*
X011861Y003615D03*
X011848Y003640D03*
X011823Y003678D03*
X011761Y003740D03*
X010286Y002903D03*
X013736Y002678D03*
X014211Y003278D03*
D153*
X009774Y002684D03*
D154*
X010555Y002684D03*
D155*
X012055Y002684D03*
D156*
X012508Y002684D03*
X012902Y003234D03*
X013858Y003246D03*
X010833Y003584D03*
X010833Y003696D03*
X010833Y003709D03*
X010833Y003721D03*
X010483Y003671D03*
X010483Y003659D03*
X009852Y003609D03*
X009508Y003584D03*
X009508Y003671D03*
X009508Y003709D03*
X009508Y003721D03*
D157*
X010289Y002896D03*
X011939Y002884D03*
X011945Y002859D03*
X012789Y002684D03*
X011795Y003709D03*
X011770Y003734D03*
D158*
X011789Y003715D03*
X011814Y003690D03*
X011939Y002878D03*
X012789Y002690D03*
X013745Y003178D03*
X010670Y002828D03*
X010364Y003128D03*
X009970Y003128D03*
D159*
X009777Y002696D03*
D160*
X010552Y002696D03*
D161*
X010033Y002871D03*
X009977Y003134D03*
X010102Y003521D03*
X010327Y003671D03*
X011927Y003046D03*
X011927Y003034D03*
X011927Y003021D03*
X011927Y003009D03*
X011927Y002996D03*
X012339Y003334D03*
X012789Y003259D03*
X012789Y003246D03*
X012789Y003234D03*
X012796Y003159D03*
X012789Y002759D03*
X012789Y002746D03*
X012789Y002734D03*
X012789Y002721D03*
X013333Y002721D03*
X013333Y002709D03*
X013333Y002696D03*
X013333Y002734D03*
X013733Y002734D03*
X013733Y002746D03*
X013733Y002759D03*
X013733Y002721D03*
X013739Y003159D03*
X013733Y003234D03*
X013733Y003246D03*
X013733Y003259D03*
X013321Y003196D03*
X013314Y003209D03*
X013308Y003221D03*
X013302Y003234D03*
X013296Y003246D03*
X014239Y003246D03*
X014246Y003234D03*
X014252Y003221D03*
X014258Y003209D03*
X014264Y003196D03*
X014277Y002734D03*
X014277Y002721D03*
X014277Y002709D03*
X014277Y002696D03*
D162*
X013736Y002696D03*
X013736Y002709D03*
X013286Y003259D03*
X012799Y003171D03*
X012786Y003271D03*
X012786Y003284D03*
X012786Y003371D03*
X011924Y002984D03*
X011924Y002971D03*
X010361Y003134D03*
X014086Y003371D03*
D163*
X009776Y002703D03*
D164*
X009958Y003040D03*
X010552Y002703D03*
D165*
X010293Y002890D03*
X010168Y003315D03*
X012793Y002703D03*
X013293Y003253D03*
X014243Y003240D03*
D166*
X014236Y003253D03*
X013736Y002703D03*
X013299Y003240D03*
X012786Y003278D03*
X011924Y002990D03*
X011924Y002978D03*
X010036Y002878D03*
D167*
X009780Y002709D03*
D168*
X010548Y002709D03*
X014086Y003334D03*
D169*
X014205Y003284D03*
X012230Y003371D03*
X012030Y002709D03*
X009880Y003734D03*
X009655Y002796D03*
D170*
X009849Y003521D03*
X009849Y003596D03*
X010386Y003571D03*
X010486Y003634D03*
X010486Y003646D03*
X010486Y003709D03*
X010836Y003671D03*
X010836Y003559D03*
X012536Y002709D03*
D171*
X012230Y003340D03*
X009780Y002715D03*
D172*
X009658Y002790D03*
X009652Y002803D03*
X010283Y002915D03*
X011258Y002715D03*
X013252Y003290D03*
D173*
X013139Y003321D03*
X014083Y003321D03*
X009783Y002721D03*
D174*
X010549Y002721D03*
D175*
X009783Y002728D03*
X014083Y003315D03*
D176*
X010549Y002734D03*
D177*
X009970Y003121D03*
X010170Y003309D03*
X011251Y003709D03*
X011251Y003721D03*
X011709Y003771D03*
X011870Y003584D03*
X011876Y003559D03*
X011884Y003534D03*
X011884Y003521D03*
X011884Y003446D03*
X011884Y003434D03*
X011876Y003409D03*
X011876Y003396D03*
X011870Y003384D03*
X011865Y003359D03*
X011859Y003346D03*
X011851Y003334D03*
X011840Y003321D03*
X011834Y003309D03*
X011959Y002821D03*
X011976Y002784D03*
X011984Y002771D03*
X011990Y002759D03*
X011995Y002746D03*
X012009Y002734D03*
X011259Y002734D03*
X011259Y002746D03*
X011259Y002759D03*
X012809Y003196D03*
X013751Y003196D03*
D178*
X009786Y002740D03*
D179*
X010548Y002740D03*
D180*
X009786Y002746D03*
D181*
X010548Y002746D03*
X010361Y003734D03*
X013136Y003309D03*
D182*
X013330Y003159D03*
X013330Y003146D03*
X013330Y003134D03*
X013330Y003121D03*
X013330Y003109D03*
X013330Y003096D03*
X013330Y003084D03*
X013330Y003071D03*
X013330Y003059D03*
X013330Y003046D03*
X013330Y003034D03*
X013330Y003021D03*
X013330Y003009D03*
X013330Y002996D03*
X013330Y002984D03*
X013330Y002971D03*
X013330Y002959D03*
X013330Y002946D03*
X013330Y002934D03*
X013330Y002921D03*
X013330Y002909D03*
X013330Y002896D03*
X013330Y002884D03*
X013330Y002871D03*
X013330Y002859D03*
X013330Y002846D03*
X013330Y002834D03*
X013330Y002821D03*
X013330Y002809D03*
X013330Y002796D03*
X013330Y002784D03*
X013330Y002771D03*
X013330Y002759D03*
X013330Y002746D03*
X011930Y003059D03*
X010355Y003146D03*
X009655Y002834D03*
D183*
X010324Y003646D03*
X010324Y003659D03*
X013324Y003184D03*
X013324Y003171D03*
X013736Y003146D03*
X013736Y003134D03*
X013736Y003121D03*
X013736Y003109D03*
X013736Y003096D03*
X013736Y003084D03*
X013736Y003071D03*
X013736Y003059D03*
X013736Y003046D03*
X013736Y003034D03*
X013736Y003021D03*
X013736Y003009D03*
X013736Y002996D03*
X013736Y002984D03*
X013736Y002971D03*
X013736Y002959D03*
X013736Y002946D03*
X013736Y002934D03*
X013736Y002921D03*
X013736Y002909D03*
X013736Y002896D03*
X013736Y002884D03*
X013736Y002871D03*
X013736Y002859D03*
X013736Y002846D03*
X013736Y002834D03*
X013736Y002821D03*
X013736Y002809D03*
X013736Y002796D03*
X013736Y002784D03*
X013736Y002771D03*
X014274Y002771D03*
X014274Y002759D03*
X014274Y002746D03*
X014274Y002784D03*
X014274Y002796D03*
X014274Y002809D03*
X014274Y002821D03*
X014274Y002834D03*
X014274Y002846D03*
X014274Y002859D03*
X014274Y002871D03*
X014274Y002884D03*
X014274Y002896D03*
X014274Y002909D03*
X014274Y002921D03*
X014274Y002934D03*
X014274Y002946D03*
X014274Y002959D03*
X014274Y002971D03*
X014274Y002984D03*
X014274Y002996D03*
X014274Y003009D03*
X014274Y003021D03*
X014274Y003034D03*
X014274Y003046D03*
X014274Y003059D03*
X014274Y003071D03*
X014274Y003084D03*
X014274Y003096D03*
X014274Y003109D03*
X014274Y003121D03*
X014274Y003134D03*
X014274Y003146D03*
X014274Y003159D03*
D184*
X010655Y002865D03*
X010005Y003178D03*
X009930Y002753D03*
D185*
X010048Y002928D03*
X010623Y002753D03*
X011223Y003790D03*
D186*
X011930Y003053D03*
X013330Y003053D03*
X013330Y003065D03*
X013330Y003078D03*
X013330Y003090D03*
X013330Y003103D03*
X013330Y003115D03*
X013330Y003128D03*
X013330Y003140D03*
X013330Y003153D03*
X013330Y003040D03*
X013330Y003028D03*
X013330Y003015D03*
X013330Y003003D03*
X013330Y002990D03*
X013330Y002978D03*
X013330Y002965D03*
X013330Y002953D03*
X013330Y002940D03*
X013330Y002928D03*
X013330Y002915D03*
X013330Y002903D03*
X013330Y002890D03*
X013330Y002878D03*
X013330Y002865D03*
X013330Y002853D03*
X013330Y002840D03*
X013330Y002828D03*
X013330Y002815D03*
X013330Y002803D03*
X013330Y002790D03*
X013330Y002778D03*
X013330Y002765D03*
X013330Y002753D03*
X010030Y002865D03*
X009980Y003140D03*
D187*
X010324Y003653D03*
X011524Y003165D03*
X013324Y003178D03*
X013324Y003190D03*
X013736Y003153D03*
X013736Y003140D03*
X013736Y003128D03*
X013736Y003115D03*
X013736Y003103D03*
X013736Y003090D03*
X013736Y003078D03*
X013736Y003065D03*
X013736Y003053D03*
X013736Y003040D03*
X013736Y003028D03*
X013736Y003015D03*
X013736Y003003D03*
X013736Y002990D03*
X013736Y002978D03*
X013736Y002965D03*
X013736Y002953D03*
X013736Y002940D03*
X013736Y002928D03*
X013736Y002915D03*
X013736Y002903D03*
X013736Y002890D03*
X013736Y002878D03*
X013736Y002865D03*
X013736Y002853D03*
X013736Y002840D03*
X013736Y002828D03*
X013736Y002815D03*
X013736Y002803D03*
X013736Y002790D03*
X013736Y002778D03*
X014274Y002778D03*
X014274Y002790D03*
X014274Y002803D03*
X014274Y002815D03*
X014274Y002828D03*
X014274Y002840D03*
X014274Y002853D03*
X014274Y002865D03*
X014274Y002878D03*
X014274Y002890D03*
X014274Y002903D03*
X014274Y002915D03*
X014274Y002928D03*
X014274Y002940D03*
X014274Y002953D03*
X014274Y002965D03*
X014274Y002978D03*
X014274Y002990D03*
X014274Y003003D03*
X014274Y003015D03*
X014274Y003028D03*
X014274Y003040D03*
X014274Y003053D03*
X014274Y003065D03*
X014274Y003078D03*
X014274Y003090D03*
X014274Y003103D03*
X014274Y003115D03*
X014274Y003128D03*
X014274Y003140D03*
X014274Y003153D03*
X014261Y003203D03*
X014274Y002765D03*
X014274Y002753D03*
D188*
X009870Y003746D03*
X009689Y002759D03*
D189*
X009943Y002759D03*
X010018Y003196D03*
X010043Y003221D03*
X010318Y003196D03*
X010643Y002884D03*
X010068Y003721D03*
D190*
X010048Y002921D03*
X010636Y002759D03*
X011711Y003221D03*
D191*
X010380Y003090D03*
X009680Y002765D03*
D192*
X010643Y002765D03*
D193*
X010661Y002784D03*
X011274Y003221D03*
X011761Y003246D03*
X009674Y002771D03*
D194*
X009958Y002771D03*
X009983Y002796D03*
X009996Y002809D03*
X010308Y003209D03*
X010296Y003221D03*
X010364Y003534D03*
X010814Y003734D03*
X011977Y003221D03*
X011996Y003246D03*
X012077Y003321D03*
X012983Y003296D03*
X013927Y003296D03*
D195*
X014268Y003184D03*
X014268Y003171D03*
X012793Y003146D03*
X012793Y003134D03*
X012793Y003121D03*
X012793Y003109D03*
X012793Y003096D03*
X012793Y003084D03*
X012793Y003071D03*
X012793Y003059D03*
X012793Y003046D03*
X012793Y003034D03*
X012793Y003021D03*
X012793Y003009D03*
X012793Y002996D03*
X012793Y002984D03*
X012793Y002971D03*
X012793Y002959D03*
X012793Y002946D03*
X012793Y002934D03*
X012793Y002921D03*
X012793Y002909D03*
X012793Y002896D03*
X012793Y002884D03*
X012793Y002871D03*
X012793Y002859D03*
X012793Y002846D03*
X012793Y002834D03*
X012793Y002821D03*
X012793Y002809D03*
X012793Y002796D03*
X012793Y002784D03*
X012793Y002771D03*
X012493Y003109D03*
X012493Y003121D03*
X012493Y003134D03*
X010293Y002884D03*
X010168Y003321D03*
D196*
X010368Y003528D03*
X010568Y002965D03*
X009968Y002778D03*
X012068Y003315D03*
X012818Y003378D03*
D197*
X011880Y003415D03*
X011880Y003540D03*
X011880Y003553D03*
X011855Y003628D03*
X011255Y003678D03*
X011255Y003690D03*
X011255Y003703D03*
X010105Y003515D03*
X011955Y002828D03*
X011980Y002778D03*
D198*
X012961Y003284D03*
X010336Y002809D03*
X009698Y002909D03*
X010311Y003609D03*
X009861Y003659D03*
D199*
X009555Y003753D03*
X009655Y002828D03*
X011930Y002928D03*
X011930Y002940D03*
X013730Y003278D03*
D200*
X011958Y003178D03*
X011952Y003165D03*
X010808Y003740D03*
X010333Y003178D03*
X010308Y002853D03*
X010008Y002828D03*
D201*
X010018Y002840D03*
X010343Y003165D03*
X013943Y003303D03*
D202*
X012486Y003171D03*
X012473Y003196D03*
X011936Y003109D03*
X010298Y002871D03*
X010086Y003246D03*
X009661Y002846D03*
D203*
X009674Y002871D03*
X010311Y002846D03*
X010074Y003546D03*
X011974Y003209D03*
X011986Y003234D03*
D204*
X012489Y003159D03*
X012489Y003146D03*
X010664Y002846D03*
X009895Y003721D03*
X009545Y003746D03*
D205*
X010348Y003153D03*
X010661Y002853D03*
X010023Y002853D03*
X011936Y003103D03*
X011936Y003115D03*
X012473Y003203D03*
X012486Y003165D03*
D206*
X012418Y003284D03*
X010168Y003334D03*
X009668Y002859D03*
D207*
X010305Y002859D03*
X011955Y003171D03*
X012105Y003334D03*
X012405Y003296D03*
X012430Y003271D03*
D208*
X011964Y003190D03*
X010364Y003540D03*
X010270Y003240D03*
X010070Y003240D03*
X010014Y003190D03*
X009670Y002865D03*
D209*
X009783Y002971D03*
X010008Y003184D03*
X010058Y003234D03*
X010333Y003634D03*
X010652Y002871D03*
X011958Y003184D03*
D210*
X012489Y003153D03*
X012489Y003140D03*
X010795Y003753D03*
X009895Y003728D03*
X009989Y003153D03*
X010295Y002878D03*
D211*
X009680Y002884D03*
X012005Y003259D03*
X012055Y003309D03*
D212*
X012033Y003290D03*
X010633Y002903D03*
X009683Y002890D03*
X009683Y003565D03*
D213*
X009855Y003628D03*
X009730Y002940D03*
X009705Y002915D03*
X010830Y003515D03*
X010830Y003528D03*
X010830Y003540D03*
X010830Y003590D03*
X010830Y003603D03*
X010830Y003615D03*
X010830Y003628D03*
X010830Y003640D03*
X010830Y003653D03*
X013880Y003265D03*
D214*
X010618Y002921D03*
X010593Y002946D03*
D215*
X009743Y002953D03*
X009718Y002928D03*
D216*
X010161Y002934D03*
D217*
X010605Y002934D03*
X013905Y003284D03*
D218*
X013730Y003284D03*
X013730Y003271D03*
X013730Y003371D03*
X014230Y003259D03*
X011930Y002934D03*
D219*
X010623Y003465D03*
X010161Y002940D03*
D220*
X010161Y002946D03*
D221*
X010161Y002953D03*
D222*
X010161Y002959D03*
D223*
X010161Y002965D03*
D224*
X010161Y002971D03*
X011348Y003821D03*
D225*
X010168Y002978D03*
D226*
X010168Y002984D03*
D227*
X010164Y002990D03*
D228*
X010165Y002996D03*
D229*
X010164Y003003D03*
D230*
X010164Y003009D03*
D231*
X010164Y003015D03*
D232*
X010168Y003021D03*
D233*
X010368Y003028D03*
X009968Y003028D03*
D234*
X009961Y003034D03*
D235*
X010380Y003040D03*
D236*
X009955Y003046D03*
D237*
X010383Y003046D03*
D238*
X009955Y003053D03*
D239*
X010384Y003053D03*
X012726Y003328D03*
X012726Y003340D03*
X012726Y003353D03*
X013670Y003353D03*
X013670Y003340D03*
X013670Y003328D03*
D240*
X010730Y003509D03*
X009955Y003059D03*
D241*
X009955Y003065D03*
D242*
X010383Y003065D03*
X010114Y003490D03*
D243*
X012214Y003078D03*
X012214Y003065D03*
D244*
X009955Y003071D03*
D245*
X010383Y003071D03*
X010658Y003546D03*
X010658Y003559D03*
X009683Y003546D03*
D246*
X012214Y003071D03*
D247*
X010380Y003078D03*
X009955Y003078D03*
D248*
X010380Y003084D03*
X011230Y003784D03*
D249*
X012218Y003084D03*
D250*
X012218Y003090D03*
D251*
X012214Y003096D03*
D252*
X012411Y003290D03*
X012423Y003278D03*
X012436Y003265D03*
X012461Y003228D03*
X012998Y003303D03*
X011948Y003153D03*
D253*
X011433Y003178D03*
D254*
X011449Y003184D03*
D255*
X012480Y003184D03*
X010255Y003246D03*
D256*
X011458Y003190D03*
D257*
X012480Y003190D03*
X010355Y003553D03*
X010330Y003640D03*
D258*
X011470Y003196D03*
D259*
X011477Y003203D03*
X011333Y003828D03*
D260*
X011968Y003203D03*
X012093Y003328D03*
X013143Y003378D03*
X010168Y003340D03*
D261*
X011805Y003278D03*
X013755Y003203D03*
D262*
X011486Y003209D03*
D263*
X012468Y003215D03*
X010168Y003328D03*
D264*
X010170Y003253D03*
D265*
X009855Y003534D03*
X009855Y003621D03*
X009855Y003634D03*
X010830Y003634D03*
X010830Y003646D03*
X010830Y003659D03*
X010830Y003621D03*
X010830Y003609D03*
X010830Y003596D03*
X010830Y003546D03*
X010830Y003534D03*
X010830Y003521D03*
X012930Y003259D03*
D266*
X010170Y003265D03*
D267*
X014168Y003303D03*
D268*
X014080Y003309D03*
D269*
X013139Y003315D03*
D270*
X013139Y003328D03*
D271*
X014083Y003328D03*
D272*
X013143Y003334D03*
D273*
X013143Y003340D03*
D274*
X014086Y003340D03*
D275*
X012230Y003346D03*
D276*
X013143Y003346D03*
D277*
X014086Y003346D03*
D278*
X012230Y003353D03*
D279*
X013143Y003353D03*
D280*
X013143Y003359D03*
D281*
X012755Y003365D03*
D282*
X010170Y003421D03*
X010170Y003434D03*
X010170Y003446D03*
X010170Y003459D03*
X010170Y003771D03*
X010170Y003784D03*
X010170Y003796D03*
X010170Y003809D03*
X010170Y003821D03*
X010170Y003834D03*
X010170Y003846D03*
D283*
X010170Y003840D03*
X010170Y003828D03*
X010170Y003815D03*
X010170Y003803D03*
X010170Y003790D03*
X010170Y003778D03*
X010170Y003765D03*
X010170Y003453D03*
X010170Y003440D03*
X010170Y003428D03*
D284*
X009890Y003465D03*
D285*
X009693Y003471D03*
D286*
X010118Y003471D03*
D287*
X010633Y003471D03*
D288*
X010651Y003490D03*
X009690Y003478D03*
D289*
X010643Y003478D03*
D290*
X009690Y003484D03*
D291*
X010645Y003484D03*
D292*
X009708Y003490D03*
D293*
X009683Y003496D03*
D294*
X010658Y003503D03*
D295*
X009677Y003509D03*
D296*
X009868Y003559D03*
X010318Y003584D03*
X010318Y003596D03*
X010493Y003534D03*
D297*
X009505Y003559D03*
X009505Y003696D03*
D298*
X010493Y003584D03*
D299*
X010345Y003721D03*
D300*
X010343Y003728D03*
D301*
X010355Y003746D03*
D302*
X009868Y003753D03*
D303*
X010361Y003753D03*
D304*
X009758Y003759D03*
D305*
X010489Y003759D03*
D306*
X011243Y003759D03*
D307*
X011421Y003796D03*
D308*
X011395Y003803D03*
D309*
X011370Y003809D03*
D310*
X011361Y003815D03*
D311*
X011311Y003834D03*
M02*
