G75*
%MOIN*%
%OFA0B0*%
%FSLAX24Y24*%
%IPPOS*%
%LPD*%
%AMOC8*
5,1,8,0,0,1.08239X$1,22.5*
%
%ADD10C,0.0000*%
%ADD11C,0.0030*%
%ADD12C,0.0080*%
%ADD13C,0.0039*%
D10*
X000100Y000100D02*
X000100Y015100D01*
X020100Y015100D01*
X020100Y000100D01*
X000100Y000100D01*
D11*
X005005Y003479D02*
X005005Y003576D01*
X005053Y003625D01*
X005053Y003726D02*
X005005Y003774D01*
X005005Y003871D01*
X005053Y003919D01*
X005102Y003919D01*
X005150Y003871D01*
X005150Y003822D01*
X005150Y003871D02*
X005198Y003919D01*
X005247Y003919D01*
X005295Y003871D01*
X005295Y003774D01*
X005247Y003726D01*
X005247Y003625D02*
X005295Y003576D01*
X005295Y003479D01*
X005247Y003431D01*
X005053Y003431D01*
X005005Y003479D01*
X005005Y004020D02*
X005005Y004214D01*
X005005Y004117D02*
X005295Y004117D01*
X005198Y004020D01*
X006585Y003270D02*
X006633Y003270D01*
X006827Y003464D01*
X006875Y003464D01*
X006875Y003270D01*
X006827Y003169D02*
X006875Y003121D01*
X006875Y003024D01*
X006827Y002976D01*
X006827Y002875D02*
X006730Y002875D01*
X006682Y002826D01*
X006682Y002681D01*
X006682Y002778D02*
X006585Y002875D01*
X006585Y002976D02*
X006778Y003169D01*
X006827Y003169D01*
X006585Y003169D02*
X006585Y002976D01*
X006827Y002875D02*
X006875Y002826D01*
X006875Y002681D01*
X006585Y002681D01*
X008045Y003324D02*
X008045Y003421D01*
X008093Y003469D01*
X008190Y003570D02*
X008190Y003764D01*
X008045Y003715D02*
X008335Y003715D01*
X008190Y003570D01*
X008287Y003469D02*
X008335Y003421D01*
X008335Y003324D01*
X008287Y003276D01*
X008093Y003276D01*
X008045Y003324D01*
X009335Y002404D02*
X009335Y002210D01*
X009335Y002307D02*
X009625Y002307D01*
X009528Y002210D01*
X009528Y002109D02*
X009480Y002061D01*
X009432Y002109D01*
X009383Y002109D01*
X009335Y002061D01*
X009335Y001964D01*
X009383Y001916D01*
X009335Y001815D02*
X009432Y001718D01*
X009432Y001766D02*
X009432Y001621D01*
X009335Y001621D02*
X009625Y001621D01*
X009625Y001766D01*
X009577Y001815D01*
X009480Y001815D01*
X009432Y001766D01*
X009577Y001916D02*
X009625Y001964D01*
X009625Y002061D01*
X009577Y002109D01*
X009528Y002109D01*
X009480Y002061D02*
X009480Y002012D01*
X010112Y002183D02*
X010161Y002135D01*
X010257Y002135D01*
X010306Y002183D01*
X010112Y002377D01*
X010112Y002183D01*
X010306Y002183D02*
X010306Y002377D01*
X010257Y002425D01*
X010161Y002425D01*
X010112Y002377D01*
X010407Y002377D02*
X010407Y002328D01*
X010455Y002280D01*
X010407Y002232D01*
X010407Y002183D01*
X010455Y002135D01*
X010552Y002135D01*
X010600Y002183D01*
X010702Y002135D02*
X010798Y002232D01*
X010750Y002232D02*
X010895Y002232D01*
X010895Y002135D02*
X010895Y002425D01*
X010750Y002425D01*
X010702Y002377D01*
X010702Y002280D01*
X010750Y002232D01*
X010600Y002377D02*
X010552Y002425D01*
X010455Y002425D01*
X010407Y002377D01*
X010455Y002280D02*
X010504Y002280D01*
X012965Y002372D02*
X013110Y002372D01*
X013207Y002469D01*
X013255Y002469D01*
X013207Y002570D02*
X013255Y002619D01*
X013255Y002715D01*
X013207Y002764D01*
X013158Y002764D01*
X012965Y002570D01*
X012965Y002764D01*
X013110Y002372D02*
X013207Y002276D01*
X013255Y002276D01*
X014925Y004285D02*
X014925Y004575D01*
X015070Y004430D01*
X014876Y004430D01*
X015171Y004285D02*
X015364Y004285D01*
X015268Y004285D02*
X015268Y004575D01*
X015364Y004478D01*
X015465Y004527D02*
X015514Y004575D01*
X015611Y004575D01*
X015659Y004527D01*
X015659Y004333D01*
X015611Y004285D01*
X015514Y004285D01*
X015465Y004333D01*
X018405Y003874D02*
X018453Y003874D01*
X018647Y004068D01*
X018695Y004068D01*
X018695Y003874D01*
X018695Y003676D02*
X018405Y003676D01*
X018405Y003580D02*
X018405Y003773D01*
X018598Y003580D02*
X018695Y003676D01*
X018647Y003478D02*
X018695Y003430D01*
X018695Y003333D01*
X018647Y003285D01*
X018453Y003285D01*
X018405Y003333D01*
X018405Y003430D01*
X018453Y003478D01*
X012765Y007586D02*
X012717Y007586D01*
X012620Y007682D01*
X012475Y007682D01*
X012620Y007682D02*
X012717Y007779D01*
X012765Y007779D01*
X012668Y007880D02*
X012765Y007977D01*
X012475Y007977D01*
X012475Y007880D02*
X012475Y008074D01*
X011541Y009475D02*
X011444Y009475D01*
X011395Y009523D01*
X011294Y009475D02*
X011101Y009475D01*
X011198Y009475D02*
X011198Y009765D01*
X011294Y009668D01*
X011395Y009717D02*
X011444Y009765D01*
X011541Y009765D01*
X011589Y009717D01*
X011589Y009523D01*
X011541Y009475D01*
X011000Y009523D02*
X010951Y009475D01*
X010855Y009475D01*
X010806Y009523D01*
X010806Y009620D01*
X010855Y009668D01*
X010903Y009668D01*
X011000Y009620D01*
X011000Y009765D01*
X010806Y009765D01*
X010425Y010495D02*
X010135Y010495D01*
X010232Y010495D02*
X010232Y010640D01*
X010280Y010688D01*
X010377Y010688D01*
X010425Y010640D01*
X010425Y010495D01*
X010232Y010592D02*
X010135Y010688D01*
X010135Y010790D02*
X010135Y010983D01*
X010135Y010886D02*
X010425Y010886D01*
X010328Y010790D01*
X010328Y011084D02*
X010377Y011084D01*
X010425Y011133D01*
X010425Y011229D01*
X010377Y011278D01*
X010328Y011278D01*
X010280Y011229D01*
X010280Y011133D01*
X010328Y011084D01*
X010280Y011133D02*
X010232Y011084D01*
X010183Y011084D01*
X010135Y011133D01*
X010135Y011229D01*
X010183Y011278D01*
X010232Y011278D01*
X010280Y011229D01*
X009407Y009908D02*
X009455Y009859D01*
X009455Y009763D01*
X009407Y009714D01*
X009407Y009613D02*
X009455Y009565D01*
X009455Y009468D01*
X009407Y009420D01*
X009407Y009318D02*
X009310Y009318D01*
X009262Y009270D01*
X009262Y009125D01*
X009262Y009222D02*
X009165Y009318D01*
X009165Y009420D02*
X009358Y009613D01*
X009407Y009613D01*
X009165Y009613D02*
X009165Y009420D01*
X009407Y009318D02*
X009455Y009270D01*
X009455Y009125D01*
X009165Y009125D01*
X009165Y009714D02*
X009358Y009908D01*
X009407Y009908D01*
X009165Y009908D02*
X009165Y009714D01*
X007595Y008727D02*
X007595Y008533D01*
X007547Y008485D01*
X007450Y008485D01*
X007402Y008533D01*
X007300Y008485D02*
X007107Y008678D01*
X007107Y008727D01*
X007155Y008775D01*
X007252Y008775D01*
X007300Y008727D01*
X007402Y008727D02*
X007450Y008775D01*
X007547Y008775D01*
X007595Y008727D01*
X007300Y008485D02*
X007107Y008485D01*
X007006Y008630D02*
X006812Y008630D01*
X006861Y008485D02*
X006861Y008775D01*
X007006Y008630D01*
X005915Y008775D02*
X005915Y008920D01*
X005867Y008968D01*
X005770Y008968D01*
X005722Y008920D01*
X005722Y008775D01*
X005722Y008872D02*
X005625Y008968D01*
X005625Y009070D02*
X005625Y009263D01*
X005625Y009166D02*
X005915Y009166D01*
X005818Y009070D01*
X005818Y009364D02*
X005770Y009413D01*
X005770Y009558D01*
X005673Y009558D02*
X005867Y009558D01*
X005915Y009509D01*
X005915Y009413D01*
X005867Y009364D01*
X005818Y009364D01*
X005673Y009364D02*
X005625Y009413D01*
X005625Y009509D01*
X005673Y009558D01*
X005625Y008775D02*
X005915Y008775D01*
X004335Y009043D02*
X004287Y008995D01*
X004093Y008995D01*
X004045Y009043D01*
X004045Y009140D01*
X004093Y009188D01*
X004045Y009290D02*
X004045Y009483D01*
X004045Y009386D02*
X004335Y009386D01*
X004238Y009290D01*
X004287Y009188D02*
X004335Y009140D01*
X004335Y009043D01*
X004287Y009584D02*
X004238Y009584D01*
X004190Y009633D01*
X004190Y009729D01*
X004142Y009778D01*
X004093Y009778D01*
X004045Y009729D01*
X004045Y009633D01*
X004093Y009584D01*
X004142Y009584D01*
X004190Y009633D01*
X004190Y009729D02*
X004238Y009778D01*
X004287Y009778D01*
X004335Y009729D01*
X004335Y009633D01*
X004287Y009584D01*
X006206Y010303D02*
X006255Y010255D01*
X006351Y010255D01*
X006400Y010303D01*
X006501Y010255D02*
X006694Y010255D01*
X006501Y010448D01*
X006501Y010497D01*
X006549Y010545D01*
X006646Y010545D01*
X006694Y010497D01*
X006795Y010497D02*
X006844Y010545D01*
X006941Y010545D01*
X006989Y010497D01*
X006989Y010303D01*
X006941Y010255D01*
X006844Y010255D01*
X006795Y010303D01*
X006400Y010497D02*
X006351Y010545D01*
X006255Y010545D01*
X006206Y010497D01*
X006206Y010448D01*
X006255Y010400D01*
X006206Y010352D01*
X006206Y010303D01*
X006255Y010400D02*
X006303Y010400D01*
X009533Y007158D02*
X009582Y007158D01*
X009630Y007109D01*
X009630Y006964D01*
X009533Y006964D01*
X009485Y007013D01*
X009485Y007109D01*
X009533Y007158D01*
X009727Y007061D02*
X009630Y006964D01*
X009678Y006863D02*
X009727Y006863D01*
X009775Y006815D01*
X009775Y006718D01*
X009727Y006670D01*
X009727Y006568D02*
X009630Y006568D01*
X009582Y006520D01*
X009582Y006375D01*
X009582Y006472D02*
X009485Y006568D01*
X009485Y006670D02*
X009678Y006863D01*
X009485Y006863D02*
X009485Y006670D01*
X009727Y006568D02*
X009775Y006520D01*
X009775Y006375D01*
X009485Y006375D01*
X009727Y007061D02*
X009775Y007158D01*
X010702Y006445D02*
X010799Y006397D01*
X010896Y006300D01*
X010751Y006300D01*
X010702Y006252D01*
X010702Y006203D01*
X010751Y006155D01*
X010847Y006155D01*
X010896Y006203D01*
X010896Y006300D01*
X010997Y006155D02*
X011190Y006155D01*
X011094Y006155D02*
X011094Y006445D01*
X011190Y006348D01*
X011292Y006397D02*
X011340Y006445D01*
X011437Y006445D01*
X011485Y006397D01*
X011485Y006203D01*
X011437Y006155D01*
X011340Y006155D01*
X011292Y006203D01*
X011743Y005328D02*
X011695Y005279D01*
X011695Y005183D01*
X011743Y005134D01*
X011695Y005033D02*
X011695Y004840D01*
X011695Y004936D02*
X011985Y004936D01*
X011888Y004840D01*
X011937Y004738D02*
X011985Y004690D01*
X011985Y004593D01*
X011937Y004545D01*
X011743Y004545D01*
X011695Y004593D01*
X011695Y004690D01*
X011743Y004738D01*
X011937Y005134D02*
X011985Y005183D01*
X011985Y005279D01*
X011937Y005328D01*
X011888Y005328D01*
X011840Y005279D01*
X011792Y005328D01*
X011743Y005328D01*
X011840Y005279D02*
X011840Y005231D01*
X009895Y005115D02*
X009895Y005019D01*
X009847Y004970D01*
X009847Y004869D02*
X009750Y004869D01*
X009702Y004821D01*
X009702Y004676D01*
X009702Y004772D02*
X009605Y004869D01*
X009605Y004970D02*
X009798Y005164D01*
X009847Y005164D01*
X009895Y005115D01*
X009847Y004869D02*
X009895Y004821D01*
X009895Y004676D01*
X009605Y004676D01*
X009605Y004970D02*
X009605Y005164D01*
X007429Y006385D02*
X007429Y006675D01*
X007284Y006675D01*
X007235Y006627D01*
X007235Y006530D01*
X007284Y006482D01*
X007429Y006482D01*
X007332Y006482D02*
X007235Y006385D01*
X007134Y006385D02*
X006941Y006578D01*
X006941Y006627D01*
X006989Y006675D01*
X007086Y006675D01*
X007134Y006627D01*
X007134Y006385D02*
X006941Y006385D01*
X006840Y006433D02*
X006791Y006385D01*
X006695Y006385D01*
X006646Y006433D01*
X006646Y006482D01*
X006695Y006530D01*
X006743Y006530D01*
X006695Y006530D02*
X006646Y006578D01*
X006646Y006627D01*
X006695Y006675D01*
X006791Y006675D01*
X006840Y006627D01*
X006890Y005685D02*
X006842Y005637D01*
X006890Y005685D02*
X006987Y005685D01*
X007035Y005637D01*
X007035Y005443D01*
X006987Y005395D01*
X006890Y005395D01*
X006842Y005443D01*
X006740Y005443D02*
X006692Y005395D01*
X006595Y005395D01*
X006547Y005443D01*
X006547Y005492D01*
X006595Y005540D01*
X006644Y005540D01*
X006595Y005540D02*
X006547Y005588D01*
X006547Y005637D01*
X006595Y005685D01*
X006692Y005685D01*
X006740Y005637D01*
X006446Y005637D02*
X006397Y005685D01*
X006301Y005685D01*
X006252Y005637D01*
X006446Y005443D01*
X006397Y005395D01*
X006301Y005395D01*
X006252Y005443D01*
X006252Y005637D01*
X006446Y005637D02*
X006446Y005443D01*
X004215Y005733D02*
X004167Y005685D01*
X003973Y005685D01*
X003925Y005733D01*
X003925Y005830D01*
X003973Y005878D01*
X003925Y005980D02*
X004118Y006173D01*
X004167Y006173D01*
X004215Y006125D01*
X004215Y006028D01*
X004167Y005980D01*
X004167Y005878D02*
X004215Y005830D01*
X004215Y005733D01*
X003925Y005980D02*
X003925Y006173D01*
X003973Y006274D02*
X003925Y006323D01*
X003925Y006419D01*
X003973Y006468D01*
X004070Y006468D01*
X004118Y006419D01*
X004118Y006371D01*
X004070Y006274D01*
X004215Y006274D01*
X004215Y006468D01*
X016855Y007896D02*
X017145Y008089D01*
X017097Y008190D02*
X017145Y008239D01*
X017145Y008335D01*
X017097Y008384D01*
X017048Y008384D01*
X016855Y008190D01*
X016855Y008384D01*
X016855Y008089D02*
X017145Y007896D01*
D12*
X013280Y007986D02*
X013280Y007514D01*
X012768Y006766D02*
X012532Y006766D01*
X012020Y007514D02*
X012020Y007986D01*
X012532Y008734D02*
X012768Y008734D01*
D13*
X014840Y009824D02*
X014840Y005651D01*
X014840Y005631D02*
X014842Y005600D01*
X014847Y005570D01*
X014857Y005540D01*
X014869Y005512D01*
X014885Y005486D01*
X014904Y005461D01*
X014926Y005439D01*
X014951Y005420D01*
X014977Y005404D01*
X015005Y005392D01*
X015035Y005382D01*
X015065Y005377D01*
X015096Y005375D01*
X015096Y005376D02*
X019446Y005376D01*
X019446Y005553D01*
X019446Y005533D02*
X019446Y006360D01*
X019250Y006360D01*
X019211Y006362D01*
X019173Y006368D01*
X019136Y006377D01*
X019099Y006390D01*
X019064Y006407D01*
X019031Y006426D01*
X019000Y006449D01*
X018971Y006475D01*
X018945Y006504D01*
X018922Y006535D01*
X018903Y006568D01*
X018886Y006603D01*
X018873Y006640D01*
X018864Y006677D01*
X018858Y006715D01*
X018856Y006754D01*
X018856Y009234D01*
X018858Y009274D01*
X018863Y009314D01*
X018873Y009352D01*
X018885Y009390D01*
X018901Y009427D01*
X018921Y009462D01*
X018943Y009495D01*
X018969Y009526D01*
X018997Y009554D01*
X019028Y009580D01*
X019061Y009602D01*
X019096Y009622D01*
X019133Y009638D01*
X019171Y009650D01*
X019209Y009660D01*
X019249Y009665D01*
X019289Y009667D01*
X019446Y009667D01*
X019446Y009943D01*
X019446Y009923D02*
X019466Y009923D01*
X019446Y009923D02*
X019446Y010100D01*
X015116Y010100D01*
X015096Y010100D01*
X015116Y010100D02*
X015085Y010098D01*
X015055Y010093D01*
X015025Y010085D01*
X014996Y010073D01*
X014969Y010058D01*
X014944Y010040D01*
X014921Y010019D01*
X014900Y009996D01*
X014882Y009971D01*
X014867Y009944D01*
X014855Y009915D01*
X014847Y009885D01*
X014842Y009855D01*
X014840Y009824D01*
M02*
